<svg width="68" height="20" viewBox="0 0 68 20" fill="none" xmlns="http://www.w3.org/2000/svg">
<path fill-rule="evenodd" clip-rule="evenodd" d="M2.00977 16.9675V2.44207H5.48064V14.9697H9.68324V16.9675H2.00977ZM10.1279 5.05135C10.1279 4.48009 10.2453 3.99839 10.4738 3.60314C10.7054 3.20789 11.0234 2.8929 11.4248 2.66131C11.8262 2.42972 12.3018 2.26605 12.8514 2.16106C13.4011 2.05916 13.997 2.00977 14.6362 2.00977C15.2631 2.00977 15.8467 2.06225 16.3901 2.16106C16.9336 2.26296 17.4091 2.43282 17.8106 2.67059C18.212 2.90836 18.527 3.22024 18.7586 3.60931C18.9902 3.9953 19.1044 4.48316 19.1044 5.06986V14.3521C19.1044 14.9357 18.9871 15.4236 18.7586 15.8096C18.527 16.1956 18.212 16.5105 17.8106 16.7483C17.4091 16.9861 16.9367 17.1559 16.3901 17.2578C15.8467 17.3597 15.2631 17.4091 14.6362 17.4091C13.997 17.4091 13.4011 17.3566 12.8514 17.2578C12.2987 17.1559 11.8262 16.9892 11.4248 16.7576C11.0234 16.526 10.7085 16.2141 10.4738 15.8188C10.2422 15.4236 10.1279 14.9419 10.1279 14.3706V5.05135ZM15.6552 4.76728C15.6552 4.15587 15.3156 3.85018 14.6362 3.85018C13.9569 3.85018 13.6142 4.15587 13.6142 4.76728V14.6609C13.6142 15.2754 13.9538 15.578 14.6362 15.578C15.3156 15.578 15.6552 15.2723 15.6552 14.6609V4.76728ZM25.938 16.9675V11.2148H23.8968V16.9675H20.4075V4.84756C20.4075 4.41217 20.5249 4.01689 20.7564 3.66487C20.988 3.31284 21.303 3.01332 21.7044 2.76629C22.1059 2.52234 22.5814 2.33401 23.1311 2.20431C23.6807 2.07462 24.2766 2.00977 24.9158 2.00977C25.5426 2.00977 26.1263 2.07462 26.6698 2.20431C27.2133 2.33401 27.6888 2.52234 28.0902 2.76629C28.4885 3.01332 28.8066 3.31284 29.0382 3.66487C29.2698 4.01689 29.3841 4.41217 29.3841 4.84756V16.9675H25.938ZM25.938 4.76728C25.938 4.15587 25.5982 3.85018 24.9189 3.85018C24.2396 3.85018 23.8968 4.15587 23.8968 4.76728V9.31884H25.938V4.76728ZM30.8354 16.9675V2.44207H35.2201C38.2802 2.44207 39.8088 3.58459 39.8088 5.86964V13.5616C39.8088 15.8312 38.2649 16.9706 35.177 16.9706H30.8354V16.9675ZM36.3411 5.07297C36.3411 4.43069 35.8192 4.11262 34.7693 4.11262H34.2999V15.1889H34.7693C35.8161 15.1889 36.3411 14.8771 36.3411 14.2502V5.07297ZM41.257 16.9675V2.44207H44.7247V16.9675H41.257ZM51.7837 16.9675V4.76728C51.7837 4.15587 51.4439 3.85018 50.7646 3.85018C50.0853 3.85018 49.7456 4.15587 49.7456 4.76728V16.9675H46.2563V5.05446C46.2563 4.4832 46.3705 4.00146 46.6021 3.6062C46.8337 3.21095 47.1487 2.89601 47.5501 2.66442C47.9516 2.43283 48.4271 2.26916 48.9768 2.16417C49.5264 2.06227 50.1224 2.01288 50.7616 2.01288C51.3884 2.01288 51.972 2.06536 52.5155 2.16417C53.059 2.26607 53.5345 2.43588 53.9328 2.67365C54.3342 2.91142 54.6492 3.2233 54.8808 3.61238C55.1124 3.99836 55.2266 4.48627 55.2266 5.07297V16.9675H51.7837ZM63.6782 16.9675L63.3725 16.069C63.0576 16.5198 62.6623 16.8533 62.1806 17.0787C61.6989 17.3041 61.035 17.4153 60.192 17.4153C59.7689 17.4153 59.3428 17.3628 58.9044 17.264C58.469 17.1621 58.0768 16.9953 57.7309 16.7637C57.3851 16.5322 57.0979 16.2203 56.8756 15.825C56.6502 15.4298 56.5391 14.9481 56.5391 14.3768V5.05446C56.5391 4.4832 56.6564 4.00146 56.8849 3.6062C57.1165 3.21095 57.4345 2.89601 57.8359 2.66442C58.2373 2.43283 58.7129 2.26916 59.2625 2.16417C59.8122 2.06227 60.4082 2.01288 61.0474 2.01288C61.6742 2.01288 62.2454 2.06536 62.7611 2.16417C63.2768 2.26607 63.7246 2.43588 64.0982 2.67365C64.4719 2.91142 64.759 3.2233 64.9658 3.61238C65.1696 3.99836 65.2715 4.48627 65.2715 5.07297V7.47842H62.0694V4.76417C62.0694 4.15276 61.7298 3.84707 61.0505 3.84707C60.3711 3.84707 60.0283 4.15276 60.0283 4.76417V14.6578C60.0283 15.2723 60.402 15.5749 61.1492 15.5749C61.8687 15.5749 62.2331 15.2445 62.2331 14.5744V11.4124H60.9671V9.59674H65.4939V16.9614H63.6782V16.9675Z" stroke="black" stroke-width="4.01952" stroke-miterlimit="22.9256" stroke-linecap="round" stroke-linejoin="round"/>
<mask id="mask0_140_1647" style="mask-type:luminance" maskUnits="userSpaceOnUse" x="2" y="2" width="64" height="16">
<path d="M2.00977 16.9675V2.44207H5.48064V14.9697H9.68324V16.9675H2.00977V16.9675ZM10.1279 5.05135C10.1279 4.48009 10.2453 3.99839 10.4738 3.60314C10.7054 3.20789 11.0234 2.8929 11.4248 2.66131C11.8262 2.42972 12.3018 2.26605 12.8514 2.16106C13.4011 2.05916 13.997 2.00977 14.6362 2.00977C15.2631 2.00977 15.8467 2.06225 16.3901 2.16106C16.9336 2.26296 17.4091 2.43282 17.8106 2.67059C18.212 2.90836 18.527 3.22024 18.7586 3.60931C18.9902 3.9953 19.1044 4.48316 19.1044 5.06986V14.3521C19.1044 14.9357 18.9871 15.4236 18.7586 15.8096C18.527 16.1956 18.212 16.5105 17.8106 16.7483C17.4091 16.9861 16.9367 17.1559 16.3901 17.2578C15.8467 17.3597 15.2631 17.4091 14.6362 17.4091C13.997 17.4091 13.4011 17.3566 12.8514 17.2578C12.2987 17.1559 11.8262 16.9892 11.4248 16.7576C11.0234 16.526 10.7085 16.2141 10.4738 15.8188C10.2422 15.4236 10.1279 14.9419 10.1279 14.3706V5.05135ZM15.6552 4.76728C15.6552 4.15587 15.3156 3.85018 14.6362 3.85018C13.9569 3.85018 13.6142 4.15587 13.6142 4.76728V14.6609C13.6142 15.2754 13.9538 15.578 14.6362 15.578C15.3156 15.578 15.6552 15.2723 15.6552 14.6609V4.76728ZM25.938 16.9675V11.2148H23.8968V16.9675H20.4075V4.84756C20.4075 4.41217 20.5249 4.01689 20.7564 3.66487C20.988 3.31284 21.303 3.01332 21.7044 2.76629C22.1059 2.52234 22.5814 2.33401 23.1311 2.20431C23.6807 2.07462 24.2766 2.00977 24.9158 2.00977C25.5426 2.00977 26.1263 2.07462 26.6698 2.20431C27.2133 2.33401 27.6888 2.52234 28.0902 2.76629C28.4885 3.01332 28.8066 3.31284 29.0382 3.66487C29.2698 4.01689 29.3841 4.41217 29.3841 4.84756V16.9675H25.938ZM25.938 4.76728C25.938 4.15587 25.5982 3.85018 24.9189 3.85018C24.2396 3.85018 23.8968 4.15587 23.8968 4.76728V9.31884H25.938V4.76728ZM30.8354 16.9675V2.44207H35.2201C38.2802 2.44207 39.8088 3.58459 39.8088 5.86964V13.5616C39.8088 15.8312 38.2649 16.9706 35.177 16.9706H30.8354V16.9675ZM36.3411 5.07297C36.3411 4.43069 35.8192 4.11262 34.7693 4.11262H34.2999V15.1889H34.7693C35.8161 15.1889 36.3411 14.8771 36.3411 14.2502V5.07297ZM41.257 16.9675V2.44207H44.7247V16.9675H41.257ZM51.7837 16.9675V4.76728C51.7837 4.15587 51.4439 3.85018 50.7646 3.85018C50.0853 3.85018 49.7456 4.15587 49.7456 4.76728V16.9675H46.2563V5.05446C46.2563 4.4832 46.3705 4.00146 46.6021 3.6062C46.8337 3.21095 47.1487 2.89601 47.5501 2.66442C47.9516 2.43283 48.4271 2.26916 48.9768 2.16417C49.5264 2.06227 50.1224 2.01288 50.7616 2.01288C51.3884 2.01288 51.972 2.06536 52.5155 2.16417C53.059 2.26607 53.5345 2.43588 53.9328 2.67365C54.3342 2.91142 54.6492 3.2233 54.8808 3.61238C55.1124 3.99836 55.2266 4.48627 55.2266 5.07297V16.9675H51.7837ZM63.6782 16.9675L63.3725 16.069C63.0576 16.5198 62.6623 16.8533 62.1806 17.0787C61.6989 17.3041 61.035 17.4153 60.192 17.4153C59.7689 17.4153 59.3428 17.3628 58.9044 17.264C58.469 17.1621 58.0768 16.9953 57.7309 16.7637C57.3851 16.5322 57.0979 16.2203 56.8756 15.825C56.6502 15.4298 56.5391 14.9481 56.5391 14.3768V5.05446C56.5391 4.4832 56.6564 4.00146 56.8849 3.6062C57.1165 3.21095 57.4345 2.89601 57.8359 2.66442C58.2373 2.43283 58.7129 2.26916 59.2625 2.16417C59.8122 2.06227 60.4082 2.01288 61.0474 2.01288C61.6742 2.01288 62.2454 2.06536 62.7611 2.16417C63.2768 2.26607 63.7246 2.43588 64.0982 2.67365C64.4719 2.91142 64.759 3.2233 64.9658 3.61238C65.1696 3.99836 65.2715 4.48627 65.2715 5.07297V7.47842H62.0694V4.76417C62.0694 4.15276 61.7298 3.84707 61.0505 3.84707C60.3711 3.84707 60.0283 4.15276 60.0283 4.76417V14.6578C60.0283 15.2723 60.402 15.5749 61.1492 15.5749C61.8687 15.5749 62.2331 15.2445 62.2331 14.5744V11.4124H60.9671V9.59674H65.4939V16.9614H63.6782V16.9675Z" fill="white"/>
</mask>
<g mask="url(#mask0_140_1647)">
<path d="M65.4939 9.49823H2.00977V17.4156H65.4939V9.49823Z" fill="#E6E6E6"/>
</g>
<mask id="mask1_140_1647" style="mask-type:luminance" maskUnits="userSpaceOnUse" x="2" y="2" width="64" height="16">
<path d="M2.00977 16.9675V2.44207H5.48064V14.9697H9.68324V16.9675H2.00977V16.9675ZM10.1279 5.05135C10.1279 4.48009 10.2453 3.99839 10.4738 3.60314C10.7054 3.20789 11.0234 2.8929 11.4248 2.66131C11.8262 2.42972 12.3018 2.26605 12.8514 2.16106C13.4011 2.05916 13.997 2.00977 14.6362 2.00977C15.2631 2.00977 15.8467 2.06225 16.3901 2.16106C16.9336 2.26296 17.4091 2.43282 17.8106 2.67059C18.212 2.90836 18.527 3.22024 18.7586 3.60931C18.9902 3.9953 19.1044 4.48316 19.1044 5.06986V14.3521C19.1044 14.9357 18.9871 15.4236 18.7586 15.8096C18.527 16.1956 18.212 16.5105 17.8106 16.7483C17.4091 16.9861 16.9367 17.1559 16.3901 17.2578C15.8467 17.3597 15.2631 17.4091 14.6362 17.4091C13.997 17.4091 13.4011 17.3566 12.8514 17.2578C12.2987 17.1559 11.8262 16.9892 11.4248 16.7576C11.0234 16.526 10.7085 16.2141 10.4738 15.8188C10.2422 15.4236 10.1279 14.9419 10.1279 14.3706V5.05135ZM15.6552 4.76728C15.6552 4.15587 15.3156 3.85018 14.6362 3.85018C13.9569 3.85018 13.6142 4.15587 13.6142 4.76728V14.6609C13.6142 15.2754 13.9538 15.578 14.6362 15.578C15.3156 15.578 15.6552 15.2723 15.6552 14.6609V4.76728ZM25.938 16.9675V11.2148H23.8968V16.9675H20.4075V4.84756C20.4075 4.41217 20.5249 4.01689 20.7564 3.66487C20.988 3.31284 21.303 3.01332 21.7044 2.76629C22.1059 2.52234 22.5814 2.33401 23.1311 2.20431C23.6807 2.07462 24.2766 2.00977 24.9158 2.00977C25.5426 2.00977 26.1263 2.07462 26.6698 2.20431C27.2133 2.33401 27.6888 2.52234 28.0902 2.76629C28.4885 3.01332 28.8066 3.31284 29.0382 3.66487C29.2698 4.01689 29.3841 4.41217 29.3841 4.84756V16.9675H25.938ZM25.938 4.76728C25.938 4.15587 25.5982 3.85018 24.9189 3.85018C24.2396 3.85018 23.8968 4.15587 23.8968 4.76728V9.31884H25.938V4.76728ZM30.8354 16.9675V2.44207H35.2201C38.2802 2.44207 39.8088 3.58459 39.8088 5.86964V13.5616C39.8088 15.8312 38.2649 16.9706 35.177 16.9706H30.8354V16.9675ZM36.3411 5.07297C36.3411 4.43069 35.8192 4.11262 34.7693 4.11262H34.2999V15.1889H34.7693C35.8161 15.1889 36.3411 14.8771 36.3411 14.2502V5.07297ZM41.257 16.9675V2.44207H44.7247V16.9675H41.257ZM51.7837 16.9675V4.76728C51.7837 4.15587 51.4439 3.85018 50.7646 3.85018C50.0853 3.85018 49.7456 4.15587 49.7456 4.76728V16.9675H46.2563V5.05446C46.2563 4.4832 46.3705 4.00146 46.6021 3.6062C46.8337 3.21095 47.1487 2.89601 47.5501 2.66442C47.9516 2.43283 48.4271 2.26916 48.9768 2.16417C49.5264 2.06227 50.1224 2.01288 50.7616 2.01288C51.3884 2.01288 51.972 2.06536 52.5155 2.16417C53.059 2.26607 53.5345 2.43588 53.9328 2.67365C54.3342 2.91142 54.6492 3.2233 54.8808 3.61238C55.1124 3.99836 55.2266 4.48627 55.2266 5.07297V16.9675H51.7837ZM63.6782 16.9675L63.3725 16.069C63.0576 16.5198 62.6623 16.8533 62.1806 17.0787C61.6989 17.3041 61.035 17.4153 60.192 17.4153C59.7689 17.4153 59.3428 17.3628 58.9044 17.264C58.469 17.1621 58.0768 16.9953 57.7309 16.7637C57.3851 16.5322 57.0979 16.2203 56.8756 15.825C56.6502 15.4298 56.5391 14.9481 56.5391 14.3768V5.05446C56.5391 4.4832 56.6564 4.00146 56.8849 3.6062C57.1165 3.21095 57.4345 2.89601 57.8359 2.66442C58.2373 2.43283 58.7129 2.26916 59.2625 2.16417C59.8122 2.06227 60.4082 2.01288 61.0474 2.01288C61.6742 2.01288 62.2454 2.06536 62.7611 2.16417C63.2768 2.26607 63.7246 2.43588 64.0982 2.67365C64.4719 2.91142 64.759 3.2233 64.9658 3.61238C65.1696 3.99836 65.2715 4.48627 65.2715 5.07297V7.47842H62.0694V4.76417C62.0694 4.15276 61.7298 3.84707 61.0505 3.84707C60.3711 3.84707 60.0283 4.15276 60.0283 4.76417V14.6578C60.0283 15.2723 60.402 15.5749 61.1492 15.5749C61.8687 15.5749 62.2331 15.2445 62.2331 14.5744V11.4124H60.9671V9.59674H65.4939V16.9614H63.6782V16.9675Z" fill="white"/>
</mask>
<g mask="url(#mask1_140_1647)">
<path d="M65.4939 1.58075H2.00977V17.4155H65.4939V1.58075Z" fill="#E6E6E6"/>
</g>
<mask id="mask2_140_1647" style="mask-type:luminance" maskUnits="userSpaceOnUse" x="2" y="2" width="64" height="16">
<path d="M2.00977 16.9675V2.44207H5.48064V14.9697H9.68324V16.9675H2.00977ZM10.1279 5.05135C10.1279 4.48009 10.2453 3.99839 10.4738 3.60314C10.7054 3.20789 11.0234 2.8929 11.4248 2.66131C11.8262 2.42972 12.3018 2.26605 12.8514 2.16106C13.4011 2.05916 13.997 2.00977 14.6362 2.00977C15.2631 2.00977 15.8467 2.06225 16.3901 2.16106C16.9336 2.26296 17.4091 2.43282 17.8106 2.67059C18.212 2.90836 18.527 3.22024 18.7586 3.60931C18.9902 3.9953 19.1044 4.48316 19.1044 5.06986V14.3521C19.1044 14.9357 18.9871 15.4236 18.7586 15.8096C18.527 16.1956 18.212 16.5105 17.8106 16.7483C17.4091 16.9861 16.9367 17.1559 16.3901 17.2578C15.8467 17.3597 15.2631 17.4091 14.6362 17.4091C13.997 17.4091 13.4011 17.3566 12.8514 17.2578C12.2987 17.1559 11.8262 16.9892 11.4248 16.7576C11.0234 16.526 10.7085 16.2141 10.4738 15.8188C10.2422 15.4236 10.1279 14.9419 10.1279 14.3706V5.05135ZM15.6552 4.76728C15.6552 4.15587 15.3156 3.85018 14.6362 3.85018C13.9569 3.85018 13.6142 4.15587 13.6142 4.76728V14.6609C13.6142 15.2754 13.9538 15.578 14.6362 15.578C15.3156 15.578 15.6552 15.2723 15.6552 14.6609V4.76728ZM25.938 16.9675V11.2148H23.8968V16.9675H20.4075V4.84756C20.4075 4.41217 20.5248 4.01689 20.7564 3.66487C20.988 3.31284 21.303 3.01332 21.7044 2.76629C22.1059 2.52234 22.5814 2.33401 23.1311 2.20431C23.6807 2.07462 24.2766 2.00977 24.9158 2.00977C25.5426 2.00977 26.1263 2.07462 26.6698 2.20431C27.2133 2.33401 27.6888 2.52234 28.0902 2.76629C28.4885 3.01332 28.8066 3.31284 29.0382 3.66487C29.2698 4.01689 29.3841 4.41217 29.3841 4.84756V16.9675H25.938ZM25.938 4.76728C25.938 4.15587 25.5982 3.85018 24.9189 3.85018C24.2396 3.85018 23.8968 4.15587 23.8968 4.76728V9.31884H25.938V4.76728ZM30.8354 16.9675V2.44207H35.2201C38.2802 2.44207 39.8088 3.58459 39.8088 5.86964V13.5616C39.8088 15.8312 38.2649 16.9706 35.177 16.9706H30.8354V16.9675ZM36.3411 5.07297C36.3411 4.43069 35.8192 4.11262 34.7693 4.11262H34.2999V15.1889H34.7693C35.8161 15.1889 36.3411 14.8771 36.3411 14.2502V5.07297ZM41.257 16.9675V2.44207H44.7247V16.9675H41.257ZM51.7837 16.9675V4.76728C51.7837 4.15587 51.4439 3.85018 50.7646 3.85018C50.0853 3.85018 49.7456 4.15587 49.7456 4.76728V16.9675H46.2563V5.05446C46.2563 4.4832 46.3705 4.00146 46.6021 3.6062C46.8337 3.21095 47.1487 2.89601 47.5501 2.66442C47.9516 2.43283 48.4271 2.26916 48.9768 2.16417C49.5264 2.06227 50.1224 2.01288 50.7616 2.01288C51.3884 2.01288 51.972 2.06536 52.5155 2.16417C53.059 2.26607 53.5344 2.43588 53.9328 2.67365C54.3342 2.91142 54.6492 3.2233 54.8808 3.61238C55.1124 3.99836 55.2266 4.48627 55.2266 5.07297V16.9675H51.7837ZM63.6782 16.9675L63.3725 16.069C63.0576 16.5198 62.6623 16.8533 62.1806 17.0787C61.6989 17.3041 61.035 17.4153 60.192 17.4153C59.7689 17.4153 59.3428 17.3628 58.9044 17.264C58.469 17.1621 58.0768 16.9953 57.7309 16.7637C57.3851 16.5322 57.0979 16.2203 56.8756 15.825C56.6501 15.4298 56.5391 14.9481 56.5391 14.3768V5.05446C56.5391 4.4832 56.6564 4.00146 56.8849 3.6062C57.1165 3.21095 57.4345 2.89601 57.8359 2.66442C58.2373 2.43283 58.7129 2.26916 59.2625 2.16417C59.8122 2.06227 60.4082 2.01288 61.0474 2.01288C61.6742 2.01288 62.2454 2.06536 62.7611 2.16417C63.2768 2.26607 63.7246 2.43588 64.0982 2.67365C64.4719 2.91142 64.759 3.2233 64.9658 3.61238C65.1696 3.99836 65.2715 4.48627 65.2715 5.07297V7.47842H62.0694V4.76417C62.0694 4.15276 61.7298 3.84707 61.0505 3.84707C60.3711 3.84707 60.0283 4.15276 60.0283 4.76417V14.6578C60.0283 15.2723 60.402 15.5749 61.1492 15.5749C61.8687 15.5749 62.2331 15.2445 62.2331 14.5744V11.4124H60.9671V9.59673H65.4939V16.9614H63.6782V16.9675Z" fill="white"/>
</mask>
<g mask="url(#mask2_140_1647)">
<path d="M65.4939 -6.3371H2.00977V9.49767H65.4939V-6.3371Z" fill="white"/>
</g>
</svg>
