<svg width="204" height="68" viewBox="0 0 204 68" fill="none" xmlns="http://www.w3.org/2000/svg">
<path fill-rule="evenodd" clip-rule="evenodd" d="M197.133 18.4757C189.815 11.1604 177.957 11.1604 170.639 18.4757C163.32 25.794 163.32 37.6515 170.639 44.9699C177.954 52.2882 189.815 52.2882 197.133 44.9699C204.448 37.6515 204.448 25.794 197.133 18.4757Z" stroke="black" stroke-width="2.40702" stroke-miterlimit="22.9256"/>
<path fill-rule="evenodd" clip-rule="evenodd" d="M197.133 18.4757C189.815 11.1604 177.957 11.1604 170.639 18.4757C163.32 25.794 163.32 37.6515 170.639 44.9699C177.954 52.2882 189.815 52.2882 197.133 44.9699C204.448 37.6515 204.448 25.794 197.133 18.4757Z" fill="#333333"/>
<path fill-rule="evenodd" clip-rule="evenodd" d="M195.024 20.5878C188.873 14.4367 178.902 14.4367 172.751 20.5878C166.6 26.7358 166.6 36.7097 172.751 42.8577C178.902 49.0088 188.873 49.0088 195.024 42.8577C201.172 36.7097 201.172 26.7358 195.024 20.5878Z" fill="#4D4D4D"/>
<path fill-rule="evenodd" clip-rule="evenodd" d="M197.191 30.8207H192.723C192.226 30.8207 191.821 31.2252 191.821 31.7193V31.7224C191.821 32.2164 192.226 32.624 192.723 32.624H197.191C197.685 32.624 198.093 32.2195 198.093 31.7224V31.7193C198.093 31.2252 197.688 30.8207 197.191 30.8207Z" fill="#666666"/>
<path fill-rule="evenodd" clip-rule="evenodd" d="M197.723 30.8206H193.255C192.758 30.8206 192.353 31.2251 192.353 31.7191V31.7222C192.353 32.2163 192.758 32.6239 193.255 32.6239H197.723C198.217 32.6239 198.621 32.2194 198.621 31.7222V31.7191C198.621 31.2251 198.217 30.8206 197.723 30.8206Z" fill="black"/>
<path fill-rule="evenodd" clip-rule="evenodd" d="M182.984 18.4135V22.8848C182.984 23.3789 183.388 23.7864 183.885 23.7864H183.888C184.386 23.7864 184.79 23.382 184.79 22.8848V18.4135C184.79 17.9194 184.386 17.5118 183.888 17.5118H183.885C183.388 17.5149 182.984 17.9194 182.984 18.4135Z" fill="#666666"/>
<path fill-rule="evenodd" clip-rule="evenodd" d="M182.984 17.8858V22.357C182.984 22.8542 183.388 23.2587 183.885 23.2587H183.889C184.386 23.2587 184.79 22.8542 184.79 22.357V17.8858C184.79 17.3917 184.386 16.9841 183.889 16.9841H183.885C183.388 16.9841 182.984 17.3917 182.984 17.8858Z" fill="black"/>
<path fill-rule="evenodd" clip-rule="evenodd" d="M170.579 32.6239H175.047C175.544 32.6239 175.949 32.2194 175.949 31.7222V31.7191C175.949 31.2251 175.544 30.8206 175.047 30.8206H170.579C170.082 30.8206 169.677 31.2251 169.677 31.7191V31.7222C169.677 32.2163 170.082 32.6239 170.579 32.6239Z" fill="#666666"/>
<path fill-rule="evenodd" clip-rule="evenodd" d="M170.048 32.624H174.517C175.014 32.624 175.418 32.2195 175.418 31.7224V31.7193C175.418 31.2252 175.014 30.8207 174.517 30.8207H170.048C169.554 30.8207 169.15 31.2252 169.15 31.7193V31.7224C169.15 32.2164 169.554 32.624 170.048 32.624Z" fill="black"/>
<path fill-rule="evenodd" clip-rule="evenodd" d="M184.787 45.0315V40.5633C184.787 40.0662 184.382 39.6617 183.885 39.6617H183.882C183.385 39.6617 182.981 40.0662 182.981 40.5633V45.0315C182.981 45.5256 183.385 45.9332 183.882 45.9332H183.885C184.382 45.9301 184.787 45.5256 184.787 45.0315Z" fill="#666666"/>
<path fill-rule="evenodd" clip-rule="evenodd" d="M184.787 45.5591V41.091C184.787 40.5938 184.383 40.1893 183.885 40.1893H183.882C183.385 40.1893 182.981 40.5938 182.981 41.091V45.5591C182.981 46.0532 183.385 46.4577 183.882 46.4577H183.885C184.383 46.4577 184.787 46.0532 184.787 45.5591Z" fill="black"/>
<path fill-rule="evenodd" clip-rule="evenodd" d="M6.68992 18.4757C-0.625317 25.7909 -0.625317 37.6516 6.68992 44.9668C14.0082 52.282 25.8658 52.282 33.1841 44.9668C40.5025 37.6516 40.5025 25.7909 33.1841 18.4757C25.8658 11.1604 14.0051 11.1604 6.68992 18.4757Z" stroke="black" stroke-width="2.40702" stroke-miterlimit="22.9256"/>
<path fill-rule="evenodd" clip-rule="evenodd" d="M6.68992 18.4757C-0.625317 25.7909 -0.625317 37.6516 6.68992 44.9668C14.0082 52.282 25.8658 52.282 33.1841 44.9668C40.5025 37.6516 40.5025 25.7909 33.1841 18.4757C25.8658 11.1604 14.0051 11.1604 6.68992 18.4757Z" fill="#333333"/>
<path fill-rule="evenodd" clip-rule="evenodd" d="M8.79911 20.5878C2.64802 26.7389 2.64802 36.7097 8.79911 42.8577C14.9502 49.0057 24.921 49.0088 31.0721 42.8577C37.2232 36.7066 37.2232 26.7358 31.0721 20.5878C24.921 14.4367 14.9502 14.4367 8.79911 20.5878Z" fill="#4D4D4D"/>
<path fill-rule="evenodd" clip-rule="evenodd" d="M19.0358 18.4165V22.8847C19.0358 23.3818 19.4403 23.7863 19.9374 23.7863H19.9405C20.4346 23.7863 20.8422 23.3818 20.8422 22.8847V18.4165C20.8422 17.9224 20.4377 17.5148 19.9405 17.5148H19.9374C19.4403 17.5148 19.0358 17.9224 19.0358 18.4165Z" fill="#666666"/>
<path fill-rule="evenodd" clip-rule="evenodd" d="M19.0358 17.8858V22.3539C19.0358 22.8511 19.4403 23.2556 19.9374 23.2556H19.9405C20.4346 23.2556 20.8422 22.8511 20.8422 22.3539V17.8858C20.8422 17.3886 20.4377 16.9841 19.9405 16.9841H19.9374C19.4403 16.9872 19.0358 17.3917 19.0358 17.8858Z" fill="black"/>
<path fill-rule="evenodd" clip-rule="evenodd" d="M6.6282 32.6239H11.0995C11.5966 32.6239 12.0011 32.2194 12.0011 31.7222V31.7191C12.0011 31.2251 11.5966 30.8206 11.0995 30.8206H6.6282C6.13414 30.8206 5.72656 31.2251 5.72656 31.7191V31.7222C5.72965 32.2194 6.13414 32.6239 6.6282 32.6239Z" fill="#666666"/>
<path fill-rule="evenodd" clip-rule="evenodd" d="M6.09988 32.624H10.5681C11.0653 32.624 11.4698 32.2195 11.4698 31.7224V31.7193C11.4698 31.2252 11.0653 30.8207 10.5681 30.8207H6.09988C5.60273 30.8207 5.19824 31.2252 5.19824 31.7193V31.7224C5.19824 32.2195 5.60273 32.624 6.09988 32.624Z" fill="black"/>
<path fill-rule="evenodd" clip-rule="evenodd" d="M20.8384 45.0315V40.5633C20.8384 40.0662 20.4339 39.6617 19.9367 39.6617H19.9336C19.4396 39.6617 19.032 40.0662 19.032 40.5633V45.0315C19.032 45.5287 19.4365 45.9332 19.9336 45.9332H19.9367C20.4308 45.9301 20.8384 45.5256 20.8384 45.0315Z" fill="#666666"/>
<path fill-rule="evenodd" clip-rule="evenodd" d="M20.8385 45.5591V41.091C20.8385 40.5938 20.434 40.1893 19.9369 40.1893H19.9337C19.4397 40.1893 19.0321 40.5938 19.0321 41.091V45.5591C19.0321 46.0532 19.4366 46.4608 19.9337 46.4608H19.9369C20.4309 46.4577 20.8385 46.0532 20.8385 45.5591Z" fill="black"/>
<path fill-rule="evenodd" clip-rule="evenodd" d="M33.2427 30.8207H28.7714C28.2742 30.8207 27.8698 31.2252 27.8698 31.7193V31.7224C27.8698 32.2195 28.2742 32.624 28.7714 32.624H33.2427C33.7367 32.624 34.1443 32.2195 34.1443 31.7224V31.7193C34.1443 31.2252 33.7367 30.8207 33.2427 30.8207Z" fill="#666666"/>
<path fill-rule="evenodd" clip-rule="evenodd" d="M33.7739 30.8206H29.3057C28.8085 30.8206 28.4041 31.2251 28.4041 31.7191V31.7222C28.4041 32.2194 28.8085 32.6239 29.3057 32.6239H33.7739C34.2679 32.6239 34.6756 32.2194 34.6756 31.7222V31.7191C34.6725 31.2251 34.2679 30.8206 33.7739 30.8206Z" fill="black"/>
<path fill-rule="evenodd" clip-rule="evenodd" d="M142.366 32.047L142.388 56.673L137.904 61.1628L65.9468 61.2277L61.457 56.7409L61.4354 32.118L65.919 27.6282L137.873 27.5634L142.366 32.047Z" stroke="black" stroke-width="1.54488" stroke-miterlimit="22.9256"/>
<path fill-rule="evenodd" clip-rule="evenodd" d="M142.366 32.0467L142.388 56.6726L137.904 61.1655L65.9468 61.2304L61.457 56.7467L61.4354 32.1208L65.919 27.6309L137.876 27.5692L142.366 32.0467Z" fill="#333333"/>
<path fill-rule="evenodd" clip-rule="evenodd" d="M130.82 26.8003L130.854 62.0889L126.368 66.5817L108.899 66.5972L104.409 62.1135L104.379 26.8251L108.859 22.3322L126.33 22.3198L130.82 26.8003Z" stroke="black" stroke-width="1.54488" stroke-miterlimit="22.9256"/>
<path fill-rule="evenodd" clip-rule="evenodd" d="M130.82 26.8006L130.851 62.0891L126.368 66.582L108.899 66.5974L104.41 62.1138L104.379 26.8222L108.862 22.3324L126.334 22.317L130.82 26.8006Z" fill="#4D4D4D"/>
<path d="M126.349 22.3261H108.881V66.588H126.349V22.3261Z" fill="#666666"/>
<path d="M123.842 61.1812H111.422V63.5373H123.842V61.1812Z" fill="black"/>
<path d="M123.839 57.093H111.42V59.449H123.839V57.093Z" fill="black"/>
<path d="M123.826 53.0113L111.41 53.0274L111.413 55.3835L123.829 55.3673L123.826 53.0113Z" fill="black"/>
<path d="M123.842 48.8811L111.422 48.896L111.425 51.2521L123.845 51.2372L123.842 48.8811Z" fill="black"/>
<path fill-rule="evenodd" clip-rule="evenodd" d="M98.2897 26.8287L98.3206 62.1203L93.837 66.6101L76.3656 66.6255L71.8759 62.1419L71.845 26.8534L76.3286 22.3636L93.7969 22.3481L98.2897 26.8287Z" stroke="black" stroke-width="1.54488" stroke-miterlimit="22.9256"/>
<path fill-rule="evenodd" clip-rule="evenodd" d="M98.2898 26.8285L98.3208 62.117L93.8371 66.6068L76.3657 66.6222L71.876 62.1386L71.8451 26.8501L76.3287 22.3603L93.797 22.3448L98.2898 26.8285Z" fill="#4D4D4D"/>
<path d="M93.8185 22.3541H76.3472V66.616H93.8185V22.3541Z" fill="#666666"/>
<path d="M91.3014 61.2163L78.8818 61.2324L78.8849 63.5885L91.3044 63.5723L91.3014 61.2163Z" fill="black"/>
<path d="M91.3053 57.1207H78.8857V59.4768H91.3053V57.1207Z" fill="black"/>
<path d="M91.302 53.0325H78.8824V55.3885H91.302V53.0325Z" fill="black"/>
<path d="M91.2991 48.9443H78.8795V51.3004H91.2991V48.9443Z" fill="black"/>
<path fill-rule="evenodd" clip-rule="evenodd" d="M107.068 28.5053L107.086 8.75515L103.489 5.15466L45.776 5.10217L42.1754 8.69955L42.1569 28.4497L45.7512 32.0502L103.467 32.1028L107.068 28.5053Z" stroke="black" stroke-width="1.54488" stroke-miterlimit="22.9256"/>
<path fill-rule="evenodd" clip-rule="evenodd" d="M107.068 28.5054L107.086 8.75524L103.489 5.15164L45.7763 5.09915L42.1726 8.69658L42.1542 28.4468L45.7515 32.0503L103.464 32.1029L107.068 28.5054Z" fill="#333333"/>
<path fill-rule="evenodd" clip-rule="evenodd" d="M97.8103 32.7143L97.835 4.41062L94.2407 0.807023L80.2247 0.794678L76.6243 4.39206L76.5996 32.6957L80.1969 36.2962L94.2068 36.3086L97.8103 32.7143Z" stroke="black" stroke-width="1.54488" stroke-miterlimit="22.9256"/>
<path fill-rule="evenodd" clip-rule="evenodd" d="M97.8103 32.7144L97.835 4.41071L94.2406 0.807114L80.2278 0.794769L76.6273 4.38909L76.6025 32.6928L80.2 36.2963L94.2128 36.3087L97.8103 32.7144Z" fill="#4D4D4D"/>
<path d="M94.2251 0.800446H80.2123V36.302H94.2251V0.800446Z" fill="#666666"/>
<path d="M82.2093 3.22126L82.2063 5.11105L92.1648 5.12699L92.1678 3.23719L82.2093 3.22126Z" fill="black"/>
<path d="M92.2088 6.53226H82.2472V8.42205H92.2088V6.53226Z" fill="black"/>
<path d="M92.2058 9.80862H82.2443V11.6984H92.2058V9.80862Z" fill="black"/>
<path d="M92.2025 13.088H82.241V14.9777H92.2025V13.088Z" fill="black"/>
<path fill-rule="evenodd" clip-rule="evenodd" d="M71.7176 32.6892L71.7392 4.38554L68.1449 0.78505L54.1351 0.772705L50.5315 4.37013L50.5068 32.6738L54.1043 36.2743L68.114 36.2866L71.7176 32.6892Z" stroke="black" stroke-width="1.54488" stroke-miterlimit="22.9256"/>
<path fill-rule="evenodd" clip-rule="evenodd" d="M71.7177 32.6893L71.7425 4.38558L68.1482 0.782029L54.1352 0.769684L50.5316 4.36706L50.507 32.6707L54.1013 36.2743L68.1141 36.2867L71.7177 32.6893Z" fill="#4D4D4D"/>
<path d="M68.1324 0.77887H54.1195V36.2805H68.1324V0.77887Z" fill="#666666"/>
<path d="M66.1187 3.22751H56.1572V5.1173H66.1187V3.22751Z" fill="black"/>
<path d="M66.1158 6.50681H56.1543V8.3966H66.1158V6.50681Z" fill="black"/>
<path d="M66.113 9.7832H56.1514V11.673H66.113V9.7832Z" fill="black"/>
<path d="M66.1097 13.0654H56.1481V14.9552H66.1097V13.0654Z" fill="black"/>
<path fill-rule="evenodd" clip-rule="evenodd" d="M161.773 28.5054L161.789 8.75524L158.194 5.15475L100.482 5.10226L96.878 8.69965L96.8625 28.4498L100.457 32.0503L158.17 32.1029L161.773 28.5054Z" stroke="black" stroke-width="1.54488" stroke-miterlimit="22.9256"/>
<path fill-rule="evenodd" clip-rule="evenodd" d="M161.773 28.5055L161.789 8.75533L158.194 5.15173L100.482 5.09924L96.878 8.69667L96.8625 28.4469L100.457 32.0504L158.17 32.103L161.773 28.5055Z" fill="#333333"/>
<path fill-rule="evenodd" clip-rule="evenodd" d="M152.513 32.7145L152.537 4.41081L148.943 0.807206L134.93 0.794861L131.33 4.39224L131.305 32.6959L134.899 36.2964L148.912 36.3088L152.513 32.7145Z" stroke="black" stroke-width="1.54488" stroke-miterlimit="22.9256"/>
<path fill-rule="evenodd" clip-rule="evenodd" d="M152.513 32.7144L152.538 4.41071L148.943 0.807114L134.93 0.794769L131.327 4.38909L131.302 32.6928L134.896 36.2963L148.909 36.3087L152.513 32.7144Z" fill="#4D4D4D"/>
<path d="M148.928 0.800537H134.915V36.3021H148.928V0.800537Z" fill="#666666"/>
<path d="M146.914 3.24921H136.952V5.139H146.914V3.24921Z" fill="black"/>
<path d="M146.911 6.53174H136.949V8.42153H146.911V6.53174Z" fill="black"/>
<path d="M146.908 9.80814H136.947V11.6979H146.908V9.80814Z" fill="black"/>
<path d="M146.905 13.0875H136.943V14.9773H146.905V13.0875Z" fill="black"/>
<path fill-rule="evenodd" clip-rule="evenodd" d="M126.42 32.6893L126.444 4.38563L122.85 0.785141L108.837 0.772797L105.236 4.37022L105.212 32.6739L108.806 36.2744L122.816 36.2867L126.42 32.6893Z" stroke="black" stroke-width="1.54488" stroke-miterlimit="22.9256"/>
<path fill-rule="evenodd" clip-rule="evenodd" d="M126.42 32.6894L126.444 4.38567L122.85 0.78212L108.837 0.769775L105.234 4.36716L105.209 32.6708L108.803 36.2744L122.816 36.2868L126.42 32.6894Z" fill="#4D4D4D"/>
<path d="M122.834 0.778961H108.822V36.2806H122.834V0.778961Z" fill="#666666"/>
<path d="M120.821 3.22748H110.859V5.11727H120.821V3.22748Z" fill="black"/>
<path d="M120.818 6.5069H110.856V8.39669H120.818V6.5069Z" fill="black"/>
<path d="M120.815 9.78329H110.853V11.6731H120.815V9.78329Z" fill="black"/>
<path d="M120.812 13.0655H110.85V14.9553H120.812V13.0655Z" fill="black"/>
<path fill-rule="evenodd" clip-rule="evenodd" d="M15.6357 4.39203H46.317L48.5959 6.67403H155.224L157.506 4.39203H188.184L194.329 10.5339V53.2858L188.184 59.4277H15.6357L9.4939 53.2858V10.5339L15.6357 4.39203Z" stroke="black" stroke-width="1.48188" stroke-miterlimit="22.9256"/>
<path fill-rule="evenodd" clip-rule="evenodd" d="M15.6357 4.39203H46.317L48.599 6.67403H155.227L157.509 4.39203H188.187L194.329 10.5339V53.2858L188.187 59.4277H15.6357L9.4939 53.2858V10.5339L15.6357 4.39203Z" fill="#6E6534"/>
<path d="M194.329 10.5338H9.4939V53.2858H194.329V10.5338Z" fill="#59522A"/>
<path d="M194.329 32.3587H9.4939V34.6036H194.329V32.3587Z" fill="#6E6534"/>
<path d="M194.329 31.031H9.4939V33.2728H194.329V31.031Z" fill="#332D10"/>
<path d="M194.329 10.5338H9.4939V11.7474H194.329V10.5338Z" fill="#B0AC44"/>
<path fill-rule="evenodd" clip-rule="evenodd" d="M194.329 53.2856H9.4939L15.6357 59.4275H188.184L194.329 53.2856Z" fill="#4A4420"/>
<path fill-rule="evenodd" clip-rule="evenodd" d="M24.4949 10.5338H179.331L183.889 15.0946V48.7311L179.331 53.2889H24.4949L19.9373 48.7311V15.0946L24.4949 10.5338Z" fill="#332D10"/>
<path fill-rule="evenodd" clip-rule="evenodd" d="M29.908 13.507H173.915L177.707 17.2958V46.5197L173.915 50.3148H29.908L26.1161 46.5197V17.2958L29.908 13.507Z" stroke="black" stroke-width="1.48188" stroke-miterlimit="22.9256"/>
<path fill-rule="evenodd" clip-rule="evenodd" d="M29.908 13.507H173.918L177.71 17.2989V46.5228L173.918 50.3178H29.908L26.1161 46.5228V17.2989L29.908 13.507Z" fill="#333333"/>
<path fill-rule="evenodd" clip-rule="evenodd" d="M11.6677 12.6793C10.8926 12.6793 10.2659 13.3123 10.2659 14.0966C10.2659 14.8809 10.8926 15.5139 11.6677 15.5139C12.4428 15.5139 13.0696 14.8809 13.0696 14.0966C13.0696 13.3154 12.4428 12.6793 11.6677 12.6793Z" fill="#B0AC44"/>
<path fill-rule="evenodd" clip-rule="evenodd" d="M11.6676 12.6794C10.9636 12.6794 10.3923 13.2506 10.3923 13.9546C10.3923 14.6587 10.9636 15.23 11.6676 15.23C12.3717 15.23 12.9429 14.6587 12.9429 13.9546C12.9429 13.2506 12.3717 12.6794 11.6676 12.6794Z" fill="#332D10"/>
<path fill-rule="evenodd" clip-rule="evenodd" d="M11.6677 49.8827C10.8926 49.8827 10.2659 50.5188 10.2659 51.3031C10.2659 52.0874 10.8926 52.7236 11.6677 52.7236C12.4428 52.7236 13.0696 52.0874 13.0696 51.3031C13.0696 50.5188 12.4428 49.8827 11.6677 49.8827Z" fill="#B0AC44"/>
<path fill-rule="evenodd" clip-rule="evenodd" d="M11.6676 49.8826C10.9636 49.8826 10.3923 50.4538 10.3923 51.1579C10.3923 51.8619 10.9636 52.4332 11.6676 52.4332C12.3717 52.4332 12.9429 51.865 12.9429 51.1579C12.9429 50.4538 12.3717 49.8826 11.6676 49.8826Z" fill="#332D10"/>
<path fill-rule="evenodd" clip-rule="evenodd" d="M192.267 12.6793C191.492 12.6793 190.865 13.3123 190.865 14.0966C190.865 14.8809 191.492 15.5139 192.267 15.5139C193.042 15.5139 193.669 14.8809 193.669 14.0966C193.669 13.3154 193.042 12.6793 192.267 12.6793Z" fill="#B0AC44"/>
<path fill-rule="evenodd" clip-rule="evenodd" d="M192.267 12.6794C191.563 12.6794 190.992 13.2506 190.992 13.9546C190.992 14.6587 191.563 15.23 192.267 15.23C192.971 15.23 193.542 14.6587 193.542 13.9546C193.542 13.2506 192.971 12.6794 192.267 12.6794Z" fill="#332D10"/>
<path fill-rule="evenodd" clip-rule="evenodd" d="M192.267 49.8827C191.492 49.8827 190.865 50.5188 190.865 51.3031C190.865 52.0874 191.492 52.7236 192.267 52.7236C193.042 52.7236 193.669 52.0874 193.669 51.3031C193.669 50.5188 193.042 49.8827 192.267 49.8827Z" fill="#B0AC44"/>
<path fill-rule="evenodd" clip-rule="evenodd" d="M192.267 49.8826C191.563 49.8826 190.992 50.4538 190.992 51.1579C190.992 51.8619 191.563 52.4332 192.267 52.4332C192.971 52.4332 193.542 51.865 193.542 51.1579C193.542 50.4538 192.971 49.8826 192.267 49.8826Z" fill="#332D10"/>
<path fill-rule="evenodd" clip-rule="evenodd" d="M31.9025 15.7612H171.917L175.604 19.09V44.7288L171.917 48.0575H31.9025L28.2186 44.7288V19.09L31.9025 15.7612Z" fill="#4D4D4D"/>
<path fill-rule="evenodd" clip-rule="evenodd" d="M34.3572 18.2747H169.462L173.019 21.0847V42.734L169.462 45.544H34.3572L30.8 42.734V21.0847L34.3572 18.2747Z" fill="#333333"/>
<path fill-rule="evenodd" clip-rule="evenodd" d="M35.8398 20.0809H167.98L171.46 22.5173V41.301L167.98 43.7373H35.8398L32.3628 41.301V22.5173L35.8398 20.0809Z" stroke="#1BA18A" stroke-width="1.48188" stroke-miterlimit="22.9256"/>
<path d="M35.8398 20.0809H167.98L171.46 22.5173V41.301L167.98 43.7373H35.8398L32.3628 41.301V22.5173L35.8398 20.0809Z" fill="#247869"/>
<mask id="mask0_140_1382" style="mask-type:luminance" maskUnits="userSpaceOnUse" x="32" y="20" width="140" height="24">
<path d="M35.8398 20.0809H167.98L171.46 22.5173V41.301L167.98 43.7373H35.8398L32.3628 41.301V22.5173L35.8398 20.0809Z" fill="white"/>
</mask>
<g mask="url(#mask0_140_1382)">
<path opacity="0.44" fill-rule="evenodd" clip-rule="evenodd" d="M45.2276 42.6069L47.1329 43.7093L49.0411 44.8117V47.0134V49.215L47.1329 50.3143L45.2276 51.4167L43.3193 50.3143L41.411 49.215V47.0134V44.8117L43.3193 43.7093L45.2276 42.6069Z" fill="#07A189"/>
<path opacity="0.44" fill-rule="evenodd" clip-rule="evenodd" d="M36.7728 12.8062L38.6749 13.9147L40.577 15.0263L40.5678 17.228L40.5555 19.4297L38.6471 20.5228L36.7326 21.6159L34.8305 20.5074L32.9283 19.3957L32.9376 17.1941L32.9499 14.9924L34.8614 13.8993L36.7728 12.8062Z" fill="#07A189"/>
<path opacity="0.44" fill-rule="evenodd" clip-rule="evenodd" d="M32.4532 20.2046L34.3553 21.3162L36.2574 22.4248L36.2481 24.6295L36.2358 26.8281L34.3275 27.9213L32.413 29.0144L30.5109 27.9058L28.6086 26.7973L28.618 24.5925L28.6303 22.3908L30.5417 21.2977L32.4532 20.2046Z" fill="#07A189"/>
<path opacity="0.44" fill-rule="evenodd" clip-rule="evenodd" d="M49.615 20.3221L51.5172 21.4337L53.4193 22.5423L53.4101 24.747L53.4009 26.9456L51.4864 28.0418L49.5749 29.1349L47.6728 28.0233L45.7706 26.9147L45.7799 24.71L45.7922 22.5083L47.7037 21.4152L49.615 20.3221Z" fill="#07A189"/>
<path opacity="0.44" fill-rule="evenodd" clip-rule="evenodd" d="M45.2953 27.7238L47.1975 28.8323L49.0996 29.944L49.0904 32.1456L49.0811 34.3473L47.1697 35.4404L45.2552 36.5336L43.3531 35.425L41.4509 34.3133L41.4602 32.1117L41.4725 29.9069L43.3839 28.8138L45.2953 27.7238Z" fill="#07A189"/>
<path opacity="0.44" fill-rule="evenodd" clip-rule="evenodd" d="M45.3661 12.8558L47.2683 13.9643L49.1705 15.0729L49.1612 17.2776L49.152 19.4793L47.2375 20.5724L45.326 21.6656L43.4239 20.5539L41.5217 19.4453L41.5311 17.2406L41.5403 15.042L43.4517 13.9489L45.3661 12.8558Z" fill="#07A189"/>
<path opacity="0.44" fill-rule="evenodd" clip-rule="evenodd" d="M41.0464 20.2542L42.9486 21.3627L44.8507 22.4744L44.8415 24.6761L44.8322 26.8778L42.9177 27.9708L41.0063 29.064L39.1042 27.9554L37.202 26.8438L37.2113 24.6421L37.2205 22.4404L39.132 21.3473L41.0464 20.2542Z" fill="#07A189"/>
<path opacity="0.44" fill-rule="evenodd" clip-rule="evenodd" d="M40.9506 35.1436L42.8528 36.2552L44.7549 37.3638L44.7457 39.5654L44.7364 41.7671L42.825 42.8602L40.9136 43.9534L39.0083 42.8448L37.1062 41.7331L37.1185 39.5315L37.1278 37.3298L39.0392 36.2367L40.9506 35.1436Z" fill="#07A189"/>
<path opacity="0.44" fill-rule="evenodd" clip-rule="evenodd" d="M36.6308 42.5459L38.5361 43.6545L40.4351 44.7661L40.4259 46.9678L40.4165 49.1695L38.5052 50.2626L36.5937 51.3526L34.6886 50.2441L32.7894 49.1355L32.7988 46.9307L32.808 44.729L34.7194 43.6359L36.6308 42.5459Z" fill="#07A189"/>
<path opacity="0.44" fill-rule="evenodd" clip-rule="evenodd" d="M36.7017 27.6741L38.6039 28.7857L40.5061 29.8974L40.4968 32.0959L40.4844 34.3007L38.573 35.3907L36.6616 36.4838L34.7594 35.3753L32.8573 34.2667L32.8666 32.062L32.8759 29.8603L34.7903 28.7672L36.7017 27.6741Z" fill="#07A189"/>
<path opacity="0.44" fill-rule="evenodd" clip-rule="evenodd" d="M32.382 35.0757L34.2842 36.1843L36.1863 37.2959L36.1771 39.4945L36.1647 41.6993L34.2532 42.7924L32.3419 43.8855L30.4397 42.7769L28.5376 41.6653L28.5468 39.4636L28.5561 37.2589L30.4706 36.1688L32.382 35.0757Z" fill="#07A189"/>
<path opacity="0.44" fill-rule="evenodd" clip-rule="evenodd" d="M66.7592 20.3841L68.6675 21.4865L70.5758 22.5858V24.7905V26.9922L68.6675 28.0946L66.7592 29.1939L64.8508 28.0946L62.9457 26.9922V24.7905V22.5858L64.8508 21.4865L66.7592 20.3841Z" fill="#07A189"/>
<path opacity="0.44" fill-rule="evenodd" clip-rule="evenodd" d="M62.4735 27.8036L64.3787 28.9029L66.2871 30.0053V32.207V34.4117L64.3787 35.511L62.4735 36.6134L60.5651 35.511L58.6569 34.4117V32.207V30.0053L60.5651 28.9029L62.4735 27.8036Z" fill="#07A189"/>
<path opacity="0.44" fill-rule="evenodd" clip-rule="evenodd" d="M62.4764 12.9327L64.3817 14.0351L66.2899 15.1375V17.3392V19.5408L64.3817 20.6432L62.4764 21.7456L60.5681 20.6432L58.6598 19.5408V17.3392V15.1375L60.5681 14.0351L62.4764 12.9327Z" fill="#07A189"/>
<path opacity="0.44" fill-rule="evenodd" clip-rule="evenodd" d="M58.1908 20.3533L60.096 21.4556L62.0043 22.558V24.7566V26.9614L60.096 28.0607L58.1908 29.163L56.2824 28.0607L54.3741 26.9614V24.7566V22.558L56.2824 21.4556L58.1908 20.3533Z" fill="#07A189"/>
<path opacity="0.44" fill-rule="evenodd" clip-rule="evenodd" d="M58.1597 35.2429L60.0681 36.3484L61.9763 37.4476V39.6494V41.851L60.0681 42.9534L58.1597 44.0557L56.2545 42.9534L54.3462 41.851V39.6494V37.4476L56.2545 36.3484L58.1597 35.2429Z" fill="#07A189"/>
<path opacity="0.44" fill-rule="evenodd" clip-rule="evenodd" d="M53.8737 42.6628L55.782 43.7651L57.6903 44.8644V47.0692V49.2709L55.782 50.3702L53.8737 51.4725L51.9684 50.3702L50.0602 49.2709V47.0692V44.8644L51.9684 43.7651L53.8737 42.6628Z" fill="#07A189"/>
<path opacity="0.44" fill-rule="evenodd" clip-rule="evenodd" d="M53.8766 27.7945L55.785 28.8938L57.6932 29.9962V32.2009V34.4026L55.785 35.5019L53.8766 36.6043L51.9714 35.5019L50.0631 34.4026V32.2009V29.9962L51.9714 28.8938L53.8766 27.7945Z" fill="#07A189"/>
<path opacity="0.44" fill-rule="evenodd" clip-rule="evenodd" d="M49.591 35.215L51.4993 36.3143L53.4076 37.4167V39.6184V41.82L51.4993 42.9224L49.591 44.0217L47.6826 42.9224L45.7775 41.82V39.6184V37.4167L47.6826 36.3143L49.591 35.215Z" fill="#07A189"/>
<path opacity="0.44" fill-rule="evenodd" clip-rule="evenodd" d="M79.6356 27.8445L81.5407 28.9469L83.4491 30.0462V32.2479V34.4526L81.5407 35.555L79.6356 36.6543L77.7272 35.555L75.8188 34.4526V32.2479V30.0462L77.7272 28.9469L79.6356 27.8445Z" fill="#07A189"/>
<path opacity="0.44" fill-rule="evenodd" clip-rule="evenodd" d="M75.3497 35.2611L77.258 36.3635L79.1632 37.4659V39.6675V41.8723L77.258 42.9716L75.3497 44.0709L73.4414 42.9716L71.5361 41.8723V39.6675V37.4659L73.4414 36.3635L75.3497 35.2611Z" fill="#07A189"/>
<path opacity="0.44" fill-rule="evenodd" clip-rule="evenodd" d="M75.3496 20.3932L77.2609 21.4956L79.1662 22.5949V24.7996V27.0013L77.2609 28.1037L75.3496 29.2061L73.4443 28.1037L71.5391 27.0013V24.7996V22.5949L73.4443 21.4956L75.3496 20.3932Z" fill="#07A189"/>
<path opacity="0.44" fill-rule="evenodd" clip-rule="evenodd" d="M71.0667 27.8137L72.972 28.913L74.8803 30.0153V32.217V34.4187L72.972 35.5211L71.0667 36.6234L69.1585 35.5211L67.2501 34.4187V32.217V30.0153L69.1585 28.913L71.0667 27.8137Z" fill="#07A189"/>
<path opacity="0.44" fill-rule="evenodd" clip-rule="evenodd" d="M71.0359 42.7034L72.9442 43.8057L74.8525 44.905V47.1098V49.3115L72.9442 50.4107L71.0359 51.5131L69.1306 50.4107L67.2223 49.3115V47.1098V44.905L69.1306 43.8057L71.0359 42.7034Z" fill="#07A189"/>
<path opacity="0.44" fill-rule="evenodd" clip-rule="evenodd" d="M66.7532 35.2549L68.6614 36.3542L70.5698 37.4566V39.6583V41.863L68.6614 42.9623L66.7532 44.0616L64.8479 42.9623L62.9396 41.863V39.6583V37.4566L64.8479 36.3542L66.7532 35.2549Z" fill="#07A189"/>
<path opacity="0.44" fill-rule="evenodd" clip-rule="evenodd" d="M62.4675 42.6719L64.3758 43.7743L66.281 44.8766V47.0783V49.28L64.3758 50.3793L62.4675 51.4816L60.5592 50.3793L58.6539 49.28V47.0783V44.8766L60.5592 43.7743L62.4675 42.6719Z" fill="#07A189"/>
<path opacity="0.44" fill-rule="evenodd" clip-rule="evenodd" d="M53.8887 12.8461L55.7878 13.9546L57.693 15.0632L57.6838 17.268L57.6714 19.4696L55.76 20.5596L53.8486 21.6558L51.9464 20.5442L50.0443 19.4357L50.0535 17.234L50.0629 15.0292L51.9774 13.9392L53.8887 12.8461Z" fill="#07A189"/>
<path opacity="0.44" fill-rule="evenodd" clip-rule="evenodd" d="M71.1318 12.9636L73.0369 14.066L74.9453 15.1684V17.37V19.5717L73.0369 20.671L71.1318 21.7734L69.2234 20.671L67.3151 19.5717V17.37V15.1684L69.2234 14.066L71.1318 12.9636Z" fill="#07A189"/>
<path opacity="0.44" fill-rule="evenodd" clip-rule="evenodd" d="M88.2946 13.0035L90.1999 14.1059L92.1083 15.2083V17.4099V19.6116L90.1999 20.714L88.2946 21.8133L86.3863 20.714L84.478 19.6116V17.4099V15.2083L86.3863 14.1059L88.2946 13.0035Z" fill="#07A189"/>
<path opacity="0.44" fill-rule="evenodd" clip-rule="evenodd" d="M84.008 20.424L85.9133 21.5264L87.8216 22.6257V24.8274V27.029L85.9133 28.1314L84.008 29.2338L82.0998 28.1314L80.1914 27.029V24.8274V22.6257L82.0998 21.5264L84.008 20.424Z" fill="#07A189"/>
<path opacity="0.44" fill-rule="evenodd" clip-rule="evenodd" d="M79.7222 12.9727L81.6306 14.0751L83.5388 15.1775V17.3791V19.5808L81.6306 20.6832L79.7222 21.7825L77.817 20.6832L75.9087 19.5808V17.3791V15.1775L77.817 14.0751L79.7222 12.9727Z" fill="#07A189"/>
<path opacity="0.44" fill-rule="evenodd" clip-rule="evenodd" d="M96.8725 27.9552L98.7746 29.0637L100.68 30.1723L100.667 32.377L100.658 34.5787L98.7468 35.6718L96.8323 36.765L94.9302 35.6564L93.028 34.5448L93.0373 32.3431L93.0496 30.1414L94.961 29.0483L96.8725 27.9552Z" fill="#07A189"/>
<path opacity="0.44" fill-rule="evenodd" clip-rule="evenodd" d="M92.5524 35.3539L94.4545 36.4625L96.3598 37.5741L96.3474 39.7758L96.3382 41.9806L94.4267 43.0706L92.5122 44.1637L90.6101 43.0521L88.7111 41.9435L88.7172 39.7419L88.7295 37.5402L90.641 36.4471L92.5524 35.3539Z" fill="#07A189"/>
<path opacity="0.44" fill-rule="evenodd" clip-rule="evenodd" d="M92.6233 20.4857L94.5255 21.5973L96.4276 22.7058L96.4184 24.9075L96.406 27.1092L94.4946 28.2023L92.5832 29.2954L90.6811 28.1838L88.7789 27.0783L88.7882 24.8736L88.7974 22.6719L90.7119 21.5788L92.6233 20.4857Z" fill="#07A189"/>
<path opacity="0.44" fill-rule="evenodd" clip-rule="evenodd" d="M88.3036 27.8844L90.2059 28.996L92.108 30.1077L92.0987 32.3063L92.0895 34.5111L90.175 35.6011L88.2635 36.6942L86.3614 35.5856L84.4592 34.4771L84.4686 32.2754L84.4778 30.0707L86.3923 28.9775L88.3036 27.8844Z" fill="#07A189"/>
<path opacity="0.44" fill-rule="evenodd" clip-rule="evenodd" d="M88.2111 42.7773L90.1102 43.8859L92.0123 44.9945L92.003 47.1992L91.9937 49.4009L90.0793 50.494L88.1679 51.5872L86.2688 50.4755L84.3635 49.3669L84.3729 47.1622L84.3852 44.9605L86.2966 43.8674L88.2111 42.7773Z" fill="#07A189"/>
<path opacity="0.44" fill-rule="evenodd" clip-rule="evenodd" d="M83.9589 35.3079L85.8611 36.4164L87.7632 37.528L87.754 39.7297L87.7446 41.9314L85.8301 43.0245L83.9188 44.1176L82.0166 43.006L80.1145 41.8974L80.1237 39.6958L80.133 37.4941L82.0444 36.401L83.9589 35.3079Z" fill="#07A189"/>
<path opacity="0.44" fill-rule="evenodd" clip-rule="evenodd" d="M79.6392 42.7095L81.5414 43.815L83.4436 44.9267L83.4343 47.1283L83.425 49.333L81.5137 50.4231L79.5991 51.5162L77.6969 50.4077L75.7948 49.296L75.8041 47.0943L75.8134 44.8927L77.7247 43.7996L79.6392 42.7095Z" fill="#07A189"/>
<path opacity="0.44" fill-rule="evenodd" clip-rule="evenodd" d="M109.715 35.4714L111.621 36.5831L113.52 37.6917L113.51 39.8933L113.501 42.0981L111.59 43.1881L109.678 44.2812L107.773 43.1727L105.871 42.0641L105.883 39.8594L105.892 37.6577L107.804 36.5646L109.715 35.4714Z" fill="#07A189"/>
<path opacity="0.44" fill-rule="evenodd" clip-rule="evenodd" d="M105.395 42.8731L107.3 43.9817L109.202 45.0933L109.19 47.295L109.181 49.4967L107.269 50.5898L105.358 51.6798L103.456 50.5712L101.551 49.4627L101.563 47.261L101.572 45.0594L103.484 43.9631L105.395 42.8731Z" fill="#07A189"/>
<path opacity="0.44" fill-rule="evenodd" clip-rule="evenodd" d="M105.466 28.0013L107.369 29.1129L109.271 30.2215L109.261 32.4231L109.249 34.6279L107.338 35.7179L105.426 36.811L103.524 35.7025L101.622 34.5939L101.631 32.3923L101.644 30.1875L103.552 29.0944L105.466 28.0013Z" fill="#07A189"/>
<path opacity="0.44" fill-rule="evenodd" clip-rule="evenodd" d="M101.146 35.4036L103.048 36.5122L104.95 37.6207L104.941 39.8255L104.929 42.0271L103.017 43.1203L101.106 44.2134L99.2037 43.1017L97.3015 41.9932L97.3108 39.7915L97.3232 37.5898L99.2346 36.4967L101.146 35.4036Z" fill="#07A189"/>
<path opacity="0.44" fill-rule="evenodd" clip-rule="evenodd" d="M96.8012 42.8264L98.7033 43.9349L100.605 45.0435L100.596 47.2451L100.587 49.4499L98.6755 50.5399L96.7611 51.6331L94.8589 50.5245L92.9568 49.4128L92.966 47.2112L92.9753 45.0095L94.8898 43.9164L96.8012 42.8264Z" fill="#07A189"/>
<path opacity="0.44" fill-rule="evenodd" clip-rule="evenodd" d="M118.29 35.5023L120.195 36.6047L122.103 37.704V39.9088V42.1104L120.195 43.2128L118.29 44.3121L116.382 43.2128L114.473 42.1104V39.9088V37.704L116.382 36.6047L118.29 35.5023Z" fill="#07A189"/>
<path opacity="0.44" fill-rule="evenodd" clip-rule="evenodd" d="M113.979 42.9439L115.885 44.0463L117.793 45.1456V47.3473V49.552L115.885 50.6513L113.979 51.7537L112.071 50.6513L110.163 49.552V47.3473V45.1456L112.071 44.0463L113.979 42.9439Z" fill="#07A189"/>
<path opacity="0.44" fill-rule="evenodd" clip-rule="evenodd" d="M105.463 13.0775L107.369 14.1861L109.271 15.2978L109.258 17.4963L109.249 19.7011L107.338 20.7911L105.426 21.8873L103.521 20.7757L101.622 19.6671L101.631 17.4624L101.64 15.2607L103.552 14.1707L105.463 13.0775Z" fill="#07A189"/>
<path opacity="0.44" fill-rule="evenodd" clip-rule="evenodd" d="M101.143 20.476L103.048 21.5845L104.95 22.6962L104.938 24.8978L104.929 27.0995L103.017 28.1926L101.106 29.2858L99.2037 28.1772L97.3015 27.0655L97.3108 24.8639L97.3201 22.6622L99.2315 21.5691L101.143 20.476Z" fill="#07A189"/>
<path opacity="0.44" fill-rule="evenodd" clip-rule="evenodd" d="M96.8941 13.0064L98.7962 14.1181L100.698 15.2266L100.689 17.4283L100.68 19.63L98.7653 20.7231L96.854 21.8162L94.9549 20.7077L93.0497 19.5991L93.062 17.3944L93.0713 15.1926L94.9827 14.0996L96.8941 13.0064Z" fill="#07A189"/>
<path opacity="0.44" fill-rule="evenodd" clip-rule="evenodd" d="M118.309 20.5934L120.211 21.702L122.113 22.8136L122.104 25.0153L122.095 27.217L120.18 28.3101L118.269 29.4032L116.367 28.2947L114.461 27.183L114.474 24.9814L114.483 22.7797L116.394 21.6866L118.309 20.5934Z" fill="#07A189"/>
<path opacity="0.44" fill-rule="evenodd" clip-rule="evenodd" d="M113.988 27.9922L115.89 29.1038L117.793 30.2124L117.783 32.4141L117.774 34.6188L115.86 35.7089L113.948 36.802L112.046 35.6934L110.144 34.5848L110.153 32.3801L110.162 30.1784L112.077 29.0853L113.988 27.9922Z" fill="#07A189"/>
<path opacity="0.44" fill-rule="evenodd" clip-rule="evenodd" d="M114.057 13.1243L115.959 14.2329L117.861 15.3445L117.852 17.5462L117.843 19.7509L115.931 20.841L114.017 21.934L112.114 20.8255L110.212 19.7139L110.222 17.5122L110.234 15.3105L112.145 14.2174L114.057 13.1243Z" fill="#07A189"/>
<path opacity="0.44" fill-rule="evenodd" clip-rule="evenodd" d="M109.739 20.5227L111.638 21.6343L113.544 22.7429L113.531 24.9477L113.522 27.1493L111.611 28.2425L109.696 29.3355L107.794 28.2239L105.895 27.1154L105.901 24.9106L105.913 22.7089L107.825 21.6189L109.739 20.5227Z" fill="#07A189"/>
<path opacity="0.44" fill-rule="evenodd" clip-rule="evenodd" d="M130.96 42.8913L132.868 43.9937L134.776 45.093V47.2947V49.4963L132.868 50.5987L130.96 51.7011L129.054 50.5987L127.146 49.4963V47.2947V45.093L129.054 43.9937L130.96 42.8913Z" fill="#07A189"/>
<path opacity="0.44" fill-rule="evenodd" clip-rule="evenodd" d="M122.508 13.0873L124.41 14.1989L126.309 15.3106L126.3 17.5122L126.291 19.7139L124.379 20.8039L122.468 21.897L120.563 20.7885L118.663 19.6799L118.673 17.4783L118.682 15.2735L120.593 14.1804L122.508 13.0873Z" fill="#07A189"/>
<path opacity="0.44" fill-rule="evenodd" clip-rule="evenodd" d="M135.351 20.6058L137.253 21.7143L139.155 22.826L139.146 25.0277L139.134 27.2293L137.222 28.3224L135.311 29.4155L133.409 28.3039L131.504 27.1954L131.516 24.9937L131.525 22.792L133.44 21.6989L135.351 20.6058Z" fill="#07A189"/>
<path opacity="0.44" fill-rule="evenodd" clip-rule="evenodd" d="M131.03 28.0042L132.933 29.1159L134.835 30.2244L134.825 32.4261L134.816 34.6309L132.905 35.7209L130.99 36.814L129.088 35.7024L127.186 34.5969L127.195 32.3921L127.205 30.1905L129.119 29.0973L131.03 28.0042Z" fill="#07A189"/>
<path opacity="0.44" fill-rule="evenodd" clip-rule="evenodd" d="M131.098 13.1363L133 14.2449L134.906 15.3565L134.893 17.5613L134.884 19.7598L132.973 20.853L131.058 21.9461L129.156 20.8375L127.254 19.729L127.263 17.5242L127.275 15.3225L129.187 14.2294L131.098 13.1363Z" fill="#07A189"/>
<path opacity="0.44" fill-rule="evenodd" clip-rule="evenodd" d="M126.782 20.5347L128.681 21.6464L130.586 22.7549L130.574 24.9597L130.564 27.1613L128.653 28.2514L126.741 29.3445L124.836 28.2359L122.937 27.1243L122.943 24.9226L122.956 22.7209L124.867 21.6278L126.782 20.5347Z" fill="#07A189"/>
<path opacity="0.44" fill-rule="evenodd" clip-rule="evenodd" d="M126.686 35.4276L128.588 36.5361L130.49 37.6447L130.481 39.8495L130.468 42.0512L128.557 43.1442L126.646 44.2374L124.744 43.1257L122.841 42.0172L122.851 39.8155L122.86 37.6138L124.774 36.5207L126.686 35.4276Z" fill="#07A189"/>
<path opacity="0.44" fill-rule="evenodd" clip-rule="evenodd" d="M122.366 42.8264L124.268 43.9349L126.17 45.0465L126.161 47.2482L126.152 49.4499L124.237 50.543L122.326 51.6361L120.424 50.5276L118.522 49.4159L118.531 47.2143L118.543 45.0126L120.455 43.9195L122.366 42.8264Z" fill="#07A189"/>
<path opacity="0.44" fill-rule="evenodd" clip-rule="evenodd" d="M122.434 27.9581L124.336 29.0667L126.241 30.1752L126.229 32.38L126.22 34.5817L124.308 35.6748L122.397 36.7679L120.495 35.6563L118.589 34.5477L118.602 32.3461L118.611 30.1444L120.523 29.0513L122.434 27.9581Z" fill="#07A189"/>
<path opacity="0.44" fill-rule="evenodd" clip-rule="evenodd" d="M152.491 20.6675L154.4 21.7668L156.308 22.8691V25.0708V27.2756L154.4 28.3749L152.491 29.4741L150.586 28.3749L148.678 27.2756V25.0708V22.8691L150.586 21.7668L152.491 20.6675Z" fill="#07A189"/>
<path opacity="0.44" fill-rule="evenodd" clip-rule="evenodd" d="M148.209 28.088L150.114 29.1873L152.019 30.2865V32.4913V34.6929L150.114 35.7954L148.209 36.8946L146.3 35.7954L144.392 34.6929V32.4913V30.2865L146.3 29.1873L148.209 28.088Z" fill="#07A189"/>
<path opacity="0.44" fill-rule="evenodd" clip-rule="evenodd" d="M148.209 13.2168L150.117 14.3192L152.022 15.4216V17.6202V19.8249L150.117 20.9242L148.209 22.0266L146.3 20.9242L144.395 19.8249V17.6202V15.4216L146.3 14.3192L148.209 13.2168Z" fill="#07A189"/>
<path opacity="0.44" fill-rule="evenodd" clip-rule="evenodd" d="M143.923 20.6367L145.831 21.7391L147.736 22.8384V25.04V27.2417L145.831 28.3441L143.923 29.4465L142.015 28.3441L140.109 27.2417V25.04V22.8384L142.015 21.7391L143.923 20.6367Z" fill="#07A189"/>
<path opacity="0.44" fill-rule="evenodd" clip-rule="evenodd" d="M143.895 35.5266L145.803 36.629L147.712 37.7283V39.933V42.1316L145.803 43.234L143.895 44.3364L141.987 43.234L140.081 42.1316V39.933V37.7283L141.987 36.629L143.895 35.5266Z" fill="#07A189"/>
<path opacity="0.44" fill-rule="evenodd" clip-rule="evenodd" d="M139.609 42.9468L141.517 44.0491L143.422 45.1484V47.3501V49.5518L141.517 50.6542L139.609 51.7565L137.704 50.6542L135.795 49.5518V47.3501V45.1484L137.704 44.0491L139.609 42.9468Z" fill="#07A189"/>
<path opacity="0.44" fill-rule="evenodd" clip-rule="evenodd" d="M139.612 28.0789L141.52 29.1782L143.426 30.2805V32.4822V34.6839L141.52 35.7863L139.612 36.8856L137.704 35.7863L135.799 34.6839V32.4822V30.2805L137.704 29.1782L139.612 28.0789Z" fill="#07A189"/>
<path opacity="0.44" fill-rule="evenodd" clip-rule="evenodd" d="M135.326 35.4955L137.231 36.5947L139.143 37.6971V39.9019V42.1036L137.231 43.2028L135.326 44.3052L133.418 43.2028L131.513 42.1036V39.9019V37.6971L133.418 36.5947L135.326 35.4955Z" fill="#07A189"/>
<path opacity="0.44" fill-rule="evenodd" clip-rule="evenodd" d="M165.372 28.125L167.277 29.2274L169.185 30.3298V32.5314V34.7331L167.277 35.8324L165.372 36.9348L163.463 35.8324L161.555 34.7331V32.5314V30.3298L163.463 29.2274L165.372 28.125Z" fill="#07A189"/>
<path opacity="0.44" fill-rule="evenodd" clip-rule="evenodd" d="M161.086 35.5455L162.991 36.6479L164.899 37.7502V39.9488V42.1536L162.991 43.2529L161.086 44.3552L159.177 43.2529L157.269 42.1536V39.9488V37.7502L159.177 36.6479L161.086 35.5455Z" fill="#07A189"/>
<path opacity="0.44" fill-rule="evenodd" clip-rule="evenodd" d="M161.089 20.6772L162.994 21.7796L164.899 22.8788V25.0806V27.2822L162.994 28.3846L161.089 29.487L159.18 28.3846L157.272 27.2822V25.0806V22.8788L159.18 21.7796L161.089 20.6772Z" fill="#07A189"/>
<path opacity="0.44" fill-rule="evenodd" clip-rule="evenodd" d="M156.799 28.097L158.707 29.1963L160.616 30.2988V32.5004V34.7021L158.707 35.8044L156.799 36.9037L154.894 35.8044L152.986 34.7021V32.5004V30.2988L154.894 29.1963L156.799 28.097Z" fill="#07A189"/>
<path opacity="0.44" fill-rule="evenodd" clip-rule="evenodd" d="M156.775 42.9868L158.68 44.0861L160.585 45.1884V47.3901V49.5917L158.68 50.6942L156.775 51.7935L154.864 50.6942L152.958 49.5917V47.3901V45.1884L154.864 44.0861L156.775 42.9868Z" fill="#07A189"/>
<path opacity="0.44" fill-rule="evenodd" clip-rule="evenodd" d="M152.488 35.5364L154.397 36.6387L156.302 37.7411V39.9428V42.1445L154.397 43.2437L152.488 44.3461L150.583 43.2437L148.675 42.1445V39.9428V37.7411L150.583 36.6387L152.488 35.5364Z" fill="#07A189"/>
<path opacity="0.44" fill-rule="evenodd" clip-rule="evenodd" d="M148.203 42.9559L150.111 44.0551L152.019 45.1575V47.3592V49.564L150.111 50.6632L148.203 51.7656L146.294 50.6632L144.389 49.564V47.3592V45.1575L146.294 44.0551L148.203 42.9559Z" fill="#07A189"/>
<path opacity="0.44" fill-rule="evenodd" clip-rule="evenodd" d="M139.622 13.1272L141.527 14.2357L143.426 15.3474L143.417 17.549L143.408 19.7508L141.496 20.8438L139.585 21.937L137.68 20.8284L135.777 19.7168L135.787 17.5151L135.799 15.3134L137.71 14.2203L139.622 13.1272Z" fill="#07A189"/>
<path opacity="0.44" fill-rule="evenodd" clip-rule="evenodd" d="M156.864 13.2476L158.772 14.3469L160.68 15.4493V17.6509V19.8526L158.772 20.955L156.864 22.0543L154.958 20.955L153.05 19.8526V17.6509V15.4493L154.958 14.3469L156.864 13.2476Z" fill="#07A189"/>
<path opacity="0.44" fill-rule="evenodd" clip-rule="evenodd" d="M174.027 13.2879L175.935 14.3871L177.843 15.4895V17.6912V19.8929L175.935 20.9953L174.027 22.0976L172.121 20.9953L170.213 19.8929V17.6912V15.4895L172.121 14.3871L174.027 13.2879Z" fill="#07A189"/>
<path opacity="0.44" fill-rule="evenodd" clip-rule="evenodd" d="M169.744 20.7081L171.649 21.8074L173.557 22.9097V25.1114V27.3131L171.649 28.4155L169.744 29.5147L167.836 28.4155L165.927 27.3131V25.1114V22.9097L167.836 21.8074L169.744 20.7081Z" fill="#07A189"/>
<path opacity="0.44" fill-rule="evenodd" clip-rule="evenodd" d="M165.458 13.2567L167.366 14.356L169.272 15.4584V17.6601V19.8648L167.366 20.9641L165.458 22.0665L163.55 20.9641L161.645 19.8648V17.6601V15.4584L163.55 14.356L165.458 13.2567Z" fill="#07A189"/>
<path opacity="0.44" fill-rule="evenodd" clip-rule="evenodd" d="M174.036 28.1685L175.941 29.277L177.843 30.3886L177.831 32.5903L177.822 34.792L175.91 35.8851L173.999 36.9782L172.097 35.8666L170.191 34.758L170.204 32.5563L170.213 30.3516L172.124 29.2615L174.036 28.1685Z" fill="#07A189"/>
<path opacity="0.44" fill-rule="evenodd" clip-rule="evenodd" d="M173.943 43.0578L175.845 44.1694L177.747 45.278L177.738 47.4797L177.729 49.6814L175.817 50.7745L173.903 51.8676L172.001 50.756L170.099 49.6474L170.108 47.4457L170.117 45.2441L172.032 44.1509L173.943 43.0578Z" fill="#07A189"/>
<path opacity="0.44" fill-rule="evenodd" clip-rule="evenodd" d="M169.691 35.5883L171.596 36.7L173.498 37.8085L173.489 40.0133L173.477 42.2118L171.565 43.305L169.654 44.3981L167.752 43.2895L165.85 42.181L165.859 39.9762L165.868 37.7745L167.78 36.6814L169.691 35.5883Z" fill="#07A189"/>
<path opacity="0.44" fill-rule="evenodd" clip-rule="evenodd" d="M165.374 42.99L167.276 44.0986L169.179 45.2102L169.169 47.4088L169.157 49.6135L167.246 50.7067L165.334 51.7998L163.432 50.6882L161.53 49.5796L161.539 47.3779L161.548 45.1731L163.463 44.0831L165.374 42.99Z" fill="#07A189"/>
</g>
</svg>
