<svg width="292" height="95" viewBox="0 0 292 95" fill="none" xmlns="http://www.w3.org/2000/svg">
<path fill-rule="evenodd" clip-rule="evenodd" d="M46.4903 16.6294C41.2099 19.2069 32.0883 20.9889 24.1773 20.9889H21.4969L21.2409 23.2528C20.7358 27.7171 18.3295 32.0386 15.3096 33.9047L13.9545 34.7423L17.2628 38.1041C21.5644 42.4751 23.5029 44.9319 26.0036 49.1807C29.903 55.8063 32.0489 62.6293 32.8458 70.9369C33.4579 77.3146 32.5783 85.8126 30.6454 92.1962C30.0787 94.0675 30.0425 94.4324 30.4808 93.8564C31.76 92.1766 35.0967 85.8916 36.2903 82.9141C42.2795 67.9732 40.0366 51.2815 30.3 38.3395C29.4644 37.229 28.7814 36.2328 28.7822 36.1258C28.7829 36.0188 29.9034 35.3525 31.2726 34.6449C36.6371 31.8722 41.7423 27.2611 45.3705 21.9113C47.296 19.0726 48.8106 16.2767 48.6331 15.8882C48.5708 15.7513 47.6063 16.0849 46.4903 16.6294Z" fill="black"/>
<path fill-rule="evenodd" clip-rule="evenodd" d="M56.9946 0.142269C48.3627 0.841428 39.8477 4.14685 32.4595 9.66633C27.6085 13.2909 27.3031 13.8993 31.3268 11.9232C36.267 9.49698 39.4441 8.8111 45.7417 8.8111C48.5826 8.8111 51.5298 8.94319 52.2905 9.10442L53.6741 9.3981L53.6726 11.6871C53.6693 16.8531 51.8127 24.2214 49.2378 29.2878C47.8425 32.0335 44.9425 36.0669 42.672 38.4193C41.6437 39.4848 40.8797 40.3563 40.9745 40.3563C41.3984 40.3563 47.3828 37.1959 48.8777 36.1827C54.0619 32.6685 57.9067 28.2189 60.6978 22.5043C63.314 17.1483 64.3817 12.6773 64.6385 6.00562C64.7544 2.99831 64.7009 0.530405 64.5175 0.421196C63.8125 0.000225057 60.3377 -0.12854 56.9946 0.142269Z" fill="black"/>
<circle cx="8.88017" cy="24.1034" r="8.88017" fill="black"/>
<path d="M49.2452 71.2067V48.1323H59.7935C61.9032 48.1323 63.7161 48.473 65.2325 49.1542C66.7707 49.8354 67.9574 50.8243 68.7925 52.1209C69.6276 53.3955 70.0451 54.9118 70.0451 56.6698C70.0451 58.4059 69.6276 59.9112 68.7925 61.1858C67.9574 62.4604 66.7707 63.4493 65.2325 64.1525C63.7161 64.8338 61.9032 65.1744 59.7935 65.1744H52.8712L55.772 62.3395V71.2067H49.2452ZM55.772 63.0318L52.8712 60.0321H59.3979C60.7604 60.0321 61.7713 59.7354 62.4306 59.1421C63.1118 58.5487 63.4524 57.7247 63.4524 56.6698C63.4524 55.593 63.1118 54.758 62.4306 54.1646C61.7713 53.5713 60.7604 53.2746 59.3979 53.2746H52.8712L55.772 50.2749V63.0318ZM72.8977 71.2067V48.1323H83.446C85.5556 48.1323 87.3686 48.473 88.8849 49.1542C90.4232 49.8354 91.6099 50.8243 92.445 52.1209C93.28 53.3955 93.6976 54.9118 93.6976 56.6698C93.6976 58.4059 93.28 59.9112 92.445 61.1858C91.6099 62.4384 90.4232 63.4053 88.8849 64.0866C87.3686 64.7459 85.5556 65.0755 83.446 65.0755H76.5237L79.4245 62.3395V71.2067H72.8977ZM87.1708 71.2067L81.4352 62.801H88.3905L94.1591 71.2067H87.1708ZM79.4245 63.0318L76.5237 60.0321H83.0504C84.4129 60.0321 85.4238 59.7354 86.083 59.1421C86.7643 58.5487 87.1049 57.7247 87.1049 56.6698C87.1049 55.593 86.7643 54.758 86.083 54.1646C85.4238 53.5713 84.4129 53.2746 83.0504 53.2746H76.5237L79.4245 50.2749V63.0318ZM108.605 71.6682C106.759 71.6682 105.056 71.3715 103.495 70.7781C101.935 70.1848 100.573 69.3497 99.408 68.2729C98.2652 67.1742 97.3752 65.8996 96.7379 64.4492C96.1006 62.9988 95.782 61.4056 95.782 59.6695C95.782 57.9334 96.1006 56.3402 96.7379 54.8898C97.3752 53.4394 98.2652 52.1758 99.408 51.099C100.573 50.0003 101.935 49.1542 103.495 48.5609C105.056 47.9675 106.759 47.6708 108.605 47.6708C110.473 47.6708 112.176 47.9675 113.714 48.5609C115.274 49.1542 116.626 50.0003 117.769 51.099C118.911 52.1758 119.801 53.4394 120.439 54.8898C121.098 56.3402 121.427 57.9334 121.427 59.6695C121.427 61.4056 121.098 63.0098 120.439 64.4821C119.801 65.9325 118.911 67.1961 117.769 68.2729C116.626 69.3497 115.274 70.1848 113.714 70.7781C112.176 71.3715 110.473 71.6682 108.605 71.6682ZM108.605 66.2622C109.484 66.2622 110.297 66.1083 111.044 65.8007C111.813 65.493 112.472 65.0535 113.022 64.4821C113.593 63.8888 114.033 63.1856 114.34 62.3725C114.67 61.5594 114.835 60.6584 114.835 59.6695C114.835 58.6586 114.67 57.7576 114.34 56.9665C114.033 56.1534 113.593 55.4612 113.022 54.8898C112.472 54.2965 111.813 53.846 111.044 53.5383C110.297 53.2307 109.484 53.0768 108.605 53.0768C107.726 53.0768 106.902 53.2307 106.132 53.5383C105.385 53.846 104.726 54.2965 104.155 54.8898C103.605 55.4612 103.166 56.1534 102.836 56.9665C102.528 57.7576 102.375 58.6586 102.375 59.6695C102.375 60.6584 102.528 61.5594 102.836 62.3725C103.166 63.1856 103.605 63.8888 104.155 64.4821C104.726 65.0535 105.385 65.493 106.132 65.8007C106.902 66.1083 107.726 66.2622 108.605 66.2622ZM129.077 71.6682C127.385 71.6682 125.846 71.3825 124.462 70.8111C123.099 70.2178 121.968 69.3717 121.067 68.2729L124.627 64.0536C125.242 64.8447 125.879 65.4491 126.539 65.8666C127.198 66.2622 127.89 66.4599 128.615 66.4599C130.549 66.4599 131.516 65.3392 131.516 63.0977V53.1757H123.539V48.1323H137.977V62.7021C137.977 65.7128 137.219 67.9653 135.702 69.4596C134.186 70.932 131.978 71.6682 129.077 71.6682ZM148.052 57.0654H158.765V61.944H148.052V57.0654ZM148.513 66.1633H160.578V71.2067H142.052V48.1323H160.149V53.1757H148.513V66.1633ZM175.374 71.6682C173.55 71.6682 171.858 71.3825 170.298 70.8111C168.76 70.2178 167.419 69.3827 166.276 68.3059C165.156 67.2291 164.277 65.9655 163.639 64.5151C163.002 63.0427 162.683 61.4275 162.683 59.6695C162.683 57.9115 163.002 56.3072 163.639 54.8569C164.277 53.3845 165.156 52.1099 166.276 51.0331C167.419 49.9563 168.76 49.1322 170.298 48.5609C171.858 47.9675 173.55 47.6708 175.374 47.6708C177.506 47.6708 179.407 48.0444 181.077 48.7916C182.769 49.5388 184.175 50.6156 185.296 52.022L181.143 55.7798C180.396 54.9008 179.572 54.2305 178.671 53.7691C177.792 53.3076 176.803 53.0768 175.704 53.0768C174.759 53.0768 173.891 53.2307 173.1 53.5383C172.309 53.846 171.627 54.2965 171.056 54.8898C170.507 55.4612 170.067 56.1534 169.738 56.9665C169.43 57.7796 169.276 58.6806 169.276 59.6695C169.276 60.6584 169.43 61.5594 169.738 62.3725C170.067 63.1856 170.507 63.8888 171.056 64.4821C171.627 65.0535 172.309 65.493 173.1 65.8007C173.891 66.1083 174.759 66.2622 175.704 66.2622C176.803 66.2622 177.792 66.0314 178.671 65.5699C179.572 65.1084 180.396 64.4382 181.143 63.5592L185.296 67.317C184.175 68.7015 182.769 69.7783 181.077 70.5474C179.407 71.2946 177.506 71.6682 175.374 71.6682ZM192.595 71.2067V53.3076H185.508V48.1323H206.176V53.3076H199.122V71.2067H192.595ZM208.278 71.2067V48.1323H214.805V71.2067H208.278ZM230.754 71.6682C228.909 71.6682 227.205 71.3715 225.645 70.7781C224.085 70.1848 222.722 69.3497 221.558 68.2729C220.415 67.1742 219.525 65.8996 218.888 64.4492C218.25 62.9988 217.932 61.4056 217.932 59.6695C217.932 57.9334 218.25 56.3402 218.888 54.8898C219.525 53.4394 220.415 52.1758 221.558 51.099C222.722 50.0003 224.085 49.1542 225.645 48.5609C227.205 47.9675 228.909 47.6708 230.754 47.6708C232.622 47.6708 234.325 47.9675 235.864 48.5609C237.424 49.1542 238.776 50.0003 239.918 51.099C241.061 52.1758 241.951 53.4394 242.588 54.8898C243.248 56.3402 243.577 57.9334 243.577 59.6695C243.577 61.4056 243.248 63.0098 242.588 64.4821C241.951 65.9325 241.061 67.1961 239.918 68.2729C238.776 69.3497 237.424 70.1848 235.864 70.7781C234.325 71.3715 232.622 71.6682 230.754 71.6682ZM230.754 66.2622C231.633 66.2622 232.447 66.1083 233.194 65.8007C233.963 65.493 234.622 65.0535 235.172 64.4821C235.743 63.8888 236.182 63.1856 236.49 62.3725C236.82 61.5594 236.985 60.6584 236.985 59.6695C236.985 58.6586 236.82 57.7576 236.49 56.9665C236.182 56.1534 235.743 55.4612 235.172 54.8898C234.622 54.2965 233.963 53.846 233.194 53.5383C232.447 53.2307 231.633 53.0768 230.754 53.0768C229.875 53.0768 229.051 53.2307 228.282 53.5383C227.535 53.846 226.876 54.2965 226.304 54.8898C225.755 55.4612 225.316 56.1534 224.986 56.9665C224.678 57.7576 224.524 58.6586 224.524 59.6695C224.524 60.6584 224.678 61.5594 224.986 62.3725C225.316 63.1856 225.755 63.8888 226.304 64.4821C226.876 65.0535 227.535 65.493 228.282 65.8007C229.051 66.1083 229.875 66.2622 230.754 66.2622ZM246.666 71.2067V48.1323H252.039L264.763 63.4932H262.225V48.1323H268.62V71.2067H263.247L250.523 55.8458H253.061V71.2067H246.666ZM281.003 71.6682C279.113 71.6682 277.289 71.4374 275.531 70.9759C273.795 70.4925 272.377 69.8771 271.279 69.13L273.421 64.3173C274.454 64.9766 275.641 65.526 276.981 65.9655C278.344 66.383 279.695 66.5918 281.036 66.5918C281.937 66.5918 282.662 66.5149 283.211 66.3611C283.761 66.1853 284.156 65.9655 284.398 65.7018C284.662 65.4161 284.793 65.0865 284.793 64.7129C284.793 64.1855 284.552 63.7679 284.068 63.4603C283.585 63.1526 282.959 62.8999 282.189 62.7021C281.42 62.5043 280.563 62.3066 279.618 62.1088C278.695 61.911 277.761 61.6583 276.816 61.3506C275.893 61.043 275.047 60.6474 274.278 60.1639C273.509 59.6585 272.883 59.0102 272.399 58.2191C271.916 57.406 271.674 56.3842 271.674 55.1535C271.674 53.7691 272.048 52.5165 272.795 51.3957C273.564 50.275 274.707 49.374 276.223 48.6927C277.739 48.0115 279.629 47.6708 281.893 47.6708C283.409 47.6708 284.892 47.8467 286.343 48.1983C287.815 48.5279 289.123 49.0223 290.265 49.6816L288.255 54.5272C287.156 53.9339 286.068 53.4944 284.991 53.2087C283.914 52.901 282.871 52.7472 281.86 52.7472C280.959 52.7472 280.234 52.8461 279.684 53.0439C279.135 53.2197 278.739 53.4614 278.497 53.7691C278.256 54.0767 278.135 54.4283 278.135 54.8239C278.135 55.3293 278.366 55.7359 278.827 56.0435C279.311 56.3292 279.937 56.5709 280.706 56.7687C281.497 56.9445 282.354 57.1313 283.277 57.3291C284.222 57.5269 285.156 57.7796 286.079 58.0873C287.024 58.3729 287.881 58.7685 288.65 59.2739C289.419 59.7574 290.035 60.4057 290.496 61.2188C290.98 62.0099 291.221 63.0098 291.221 64.2184C291.221 65.5589 290.837 66.8006 290.068 67.9433C289.32 69.064 288.189 69.965 286.672 70.6463C285.178 71.3275 283.288 71.6682 281.003 71.6682Z" fill="black"/>
<path d="M54.1886 90.3546C53.5914 90.3546 53.0391 90.2576 52.5316 90.0635C52.0315 89.862 51.5948 89.5821 51.2217 89.2238C50.8559 88.8655 50.5686 88.4438 50.3596 87.9587C50.158 87.4735 50.0573 86.9436 50.0573 86.3689C50.0573 85.7941 50.158 85.2642 50.3596 84.779C50.5686 84.2939 50.8597 83.8722 51.2328 83.5139C51.606 83.1556 52.0427 82.8795 52.5428 82.6854C53.0503 82.4839 53.6026 82.3831 54.1998 82.3831C54.7969 82.3831 55.3417 82.4764 55.8344 82.663C56.3344 82.8496 56.7599 83.1333 57.1107 83.5139L56.5957 84.0401C56.2673 83.7117 55.9053 83.4766 55.5097 83.3348C55.1141 83.193 54.6886 83.1221 54.2333 83.1221C53.7482 83.1221 53.3004 83.2042 52.8898 83.3684C52.4868 83.5251 52.1323 83.7528 51.8262 84.0513C51.5277 84.3424 51.2926 84.6857 51.1209 85.0813C50.9567 85.4695 50.8746 85.8986 50.8746 86.3689C50.8746 86.8316 50.9567 87.2608 51.1209 87.6564C51.2926 88.052 51.5277 88.399 51.8262 88.6976C52.1323 88.9887 52.4868 89.2163 52.8898 89.3805C53.3004 89.5373 53.7445 89.6157 54.2221 89.6157C54.67 89.6157 55.0917 89.5485 55.4873 89.4141C55.8903 89.2798 56.2598 89.0521 56.5957 88.7312L57.0659 89.3582C56.6927 89.6866 56.2561 89.9366 55.756 90.1083C55.2559 90.2725 54.7334 90.3546 54.1886 90.3546ZM56.271 89.2574V86.3689H57.0659V89.3582L56.271 89.2574ZM62.512 90.3546C61.5118 90.3546 60.7244 90.0672 60.1497 89.4925C59.5749 88.9178 59.2876 88.0669 59.2876 86.9398V82.4503H60.1161V86.9063C60.1161 87.8318 60.3251 88.5147 60.743 88.9551C61.161 89.3955 61.7507 89.6157 62.512 89.6157C63.2808 89.6157 63.8742 89.3955 64.2921 88.9551C64.7101 88.5147 64.9191 87.8318 64.9191 86.9063V82.4503H65.7252V86.9398C65.7252 88.0669 65.4378 88.9178 64.8631 89.4925C64.2959 90.0672 63.5122 90.3546 62.512 90.3546ZM69.0055 90.3546C68.5651 90.3546 68.1509 90.2576 67.7628 90.0635C67.3821 89.8694 67.0761 89.5933 66.8447 89.235L67.3261 88.6752C67.5426 88.9887 67.7926 89.2275 68.0763 89.3917C68.3599 89.556 68.6734 89.6381 69.0167 89.6381C69.987 89.6381 70.4722 89.0633 70.4722 87.9139V83.1668H67.606V82.4503H71.2895V87.8803C71.2895 88.7088 71.0954 89.3283 70.7073 89.7388C70.3266 90.1493 69.7594 90.3546 69.0055 90.3546ZM72.3008 90.2874L75.8834 82.4503H76.7007L80.2834 90.2874H79.4101L76.1186 82.9317H76.4544L73.1628 90.2874H72.3008ZM73.7114 88.1938L73.9578 87.522H78.5145L78.7608 88.1938H73.7114ZM81.5239 90.2874V82.4503H84.4572C85.1215 82.4503 85.6925 82.5585 86.1702 82.775C86.6479 82.984 87.0136 83.29 87.2674 83.693C87.5286 84.0886 87.6592 84.5701 87.6592 85.1373C87.6592 85.6896 87.5286 86.1673 87.2674 86.5704C87.0136 86.966 86.6479 87.272 86.1702 87.4884C85.6925 87.6974 85.1215 87.8019 84.4572 87.8019H81.9829L82.3524 87.4213V90.2874H81.5239ZM86.8755 90.2874L84.8603 87.4437H85.7559L87.7824 90.2874H86.8755ZM82.3524 87.4884L81.9829 87.0966H84.4348C85.2185 87.0966 85.8119 86.9249 86.215 86.5816C86.6255 86.2382 86.8307 85.7568 86.8307 85.1373C86.8307 84.5103 86.6255 84.0252 86.215 83.6819C85.8119 83.3385 85.2185 83.1668 84.4348 83.1668H81.9829L82.3524 82.775V87.4884ZM88.3047 90.2874L91.8874 82.4503H92.7047L96.2874 90.2874H95.4141L92.1225 82.9317H92.4584L89.1668 90.2874H88.3047ZM89.7154 88.1938L89.9617 87.522H94.5184L94.7648 88.1938H89.7154ZM98.6569 90.2874V83.1668H95.9027V82.4503H102.24V83.1668H99.4854V90.2874H98.6569ZM103.175 84.7119L103.667 82.6518L103.757 83.1221C103.585 83.1221 103.44 83.0698 103.32 82.9653C103.208 82.8534 103.152 82.7078 103.152 82.5287C103.152 82.3495 103.208 82.204 103.32 82.092C103.44 81.9801 103.582 81.9241 103.746 81.9241C103.918 81.9241 104.056 81.9838 104.16 82.1032C104.272 82.2152 104.328 82.357 104.328 82.5287C104.328 82.5884 104.324 82.6481 104.317 82.7078C104.309 82.7675 104.294 82.8347 104.272 82.9093C104.257 82.9765 104.231 83.0623 104.194 83.1668L103.712 84.7119H103.175ZM108.411 90.3546C107.829 90.3546 107.269 90.2613 106.732 90.0747C106.202 89.8806 105.791 89.6343 105.5 89.3358L105.825 88.6976C106.101 88.9663 106.47 89.194 106.933 89.3805C107.403 89.5597 107.896 89.6492 108.411 89.6492C108.904 89.6492 109.303 89.5895 109.609 89.4701C109.922 89.3432 110.15 89.1753 110.292 88.9663C110.441 88.7573 110.516 88.5259 110.516 88.2722C110.516 87.9661 110.426 87.7198 110.247 87.5332C110.075 87.3466 109.848 87.2011 109.564 87.0966C109.28 86.9846 108.967 86.8876 108.624 86.8055C108.28 86.7234 107.937 86.6376 107.594 86.548C107.25 86.451 106.933 86.3241 106.642 86.1673C106.358 86.0106 106.127 85.8053 105.948 85.5516C105.776 85.2903 105.69 84.9507 105.69 84.5327C105.69 84.1446 105.791 83.7901 105.993 83.4691C106.202 83.1407 106.519 82.8795 106.944 82.6854C107.37 82.4839 107.915 82.3831 108.579 82.3831C109.019 82.3831 109.456 82.4466 109.889 82.5735C110.322 82.6929 110.695 82.8608 111.008 83.0773L110.728 83.7378C110.393 83.5139 110.034 83.3497 109.654 83.2452C109.28 83.1407 108.918 83.0885 108.568 83.0885C108.097 83.0885 107.709 83.1519 107.403 83.2788C107.097 83.4057 106.87 83.5774 106.72 83.7938C106.579 84.0028 106.508 84.2416 106.508 84.5103C106.508 84.8164 106.593 85.0627 106.765 85.2493C106.944 85.4359 107.176 85.5814 107.459 85.6859C107.75 85.7904 108.068 85.8837 108.411 85.9658C108.754 86.0479 109.094 86.1375 109.43 86.2345C109.773 86.3315 110.087 86.4584 110.37 86.6152C110.661 86.7644 110.893 86.966 111.064 87.2197C111.244 87.4735 111.333 87.8057 111.333 88.2162C111.333 88.5968 111.229 88.9514 111.02 89.2798C110.811 89.6007 110.49 89.862 110.057 90.0635C109.631 90.2576 109.083 90.3546 108.411 90.3546ZM115.956 90.2874V82.4503H116.785V89.5709H121.174V90.2874H115.956ZM121.239 90.2874L124.822 82.4503H125.639L129.222 90.2874H128.349L125.057 82.9317H125.393L122.101 90.2874H121.239ZM122.65 88.1938L122.896 87.522H127.453L127.699 88.1938H122.65ZM130.463 90.2874V82.4503H133.396C134.06 82.4503 134.631 82.5585 135.109 82.775C135.587 82.984 135.952 83.29 136.206 83.693C136.467 84.0886 136.598 84.5701 136.598 85.1373C136.598 85.6896 136.467 86.1673 136.206 86.5704C135.952 86.966 135.587 87.272 135.109 87.4884C134.631 87.6974 134.06 87.8019 133.396 87.8019H130.922L131.291 87.4213V90.2874H130.463ZM135.814 90.2874L133.799 87.4437H134.695L136.721 90.2874H135.814ZM131.291 87.4884L130.922 87.0966H133.373C134.157 87.0966 134.751 86.9249 135.154 86.5816C135.564 86.2382 135.769 85.7568 135.769 85.1373C135.769 84.5103 135.564 84.0252 135.154 83.6819C134.751 83.3385 134.157 83.1668 133.373 83.1668H130.922L131.291 82.775V87.4884ZM141.934 90.3546C141.337 90.3546 140.785 90.2576 140.277 90.0635C139.777 89.862 139.341 89.5821 138.968 89.2238C138.602 88.8655 138.314 88.4438 138.105 87.9587C137.904 87.4735 137.803 86.9436 137.803 86.3689C137.803 85.7941 137.904 85.2642 138.105 84.779C138.314 84.2939 138.606 83.8722 138.979 83.5139C139.352 83.1556 139.789 82.8795 140.289 82.6854C140.796 82.4839 141.349 82.3831 141.946 82.3831C142.543 82.3831 143.088 82.4764 143.58 82.663C144.08 82.8496 144.506 83.1333 144.857 83.5139L144.342 84.0401C144.013 83.7117 143.651 83.4766 143.256 83.3348C142.86 83.193 142.435 83.1221 141.979 83.1221C141.494 83.1221 141.046 83.2042 140.636 83.3684C140.233 83.5251 139.878 83.7528 139.572 84.0513C139.274 84.3424 139.038 84.6857 138.867 85.0813C138.703 85.4695 138.62 85.8986 138.62 86.3689C138.62 86.8316 138.703 87.2608 138.867 87.6564C139.038 88.052 139.274 88.399 139.572 88.6976C139.878 88.9887 140.233 89.2163 140.636 89.3805C141.046 89.5373 141.49 89.6157 141.968 89.6157C142.416 89.6157 142.838 89.5485 143.233 89.4141C143.636 89.2798 144.006 89.0521 144.342 88.7312L144.812 89.3582C144.439 89.6866 144.002 89.9366 143.502 90.1083C143.002 90.2725 142.479 90.3546 141.934 90.3546ZM144.017 89.2574V86.3689H144.812V89.3582L144.017 89.2574ZM147.84 85.9546H151.982V86.66H147.84V85.9546ZM147.929 89.5709H152.643V90.2874H147.101V82.4503H152.475V83.1668H147.929V89.5709ZM156.695 90.3546C156.113 90.3546 155.553 90.2613 155.016 90.0747C154.486 89.8806 154.075 89.6343 153.784 89.3358L154.109 88.6976C154.385 88.9663 154.754 89.194 155.217 89.3805C155.687 89.5597 156.18 89.6492 156.695 89.6492C157.188 89.6492 157.587 89.5895 157.893 89.4701C158.206 89.3432 158.434 89.1753 158.576 88.9663C158.725 88.7573 158.8 88.5259 158.8 88.2722C158.8 87.9661 158.71 87.7198 158.531 87.5332C158.359 87.3466 158.132 87.2011 157.848 87.0966C157.564 86.9846 157.251 86.8876 156.908 86.8055C156.564 86.7234 156.221 86.6376 155.878 86.548C155.534 86.451 155.217 86.3241 154.926 86.1673C154.642 86.0106 154.411 85.8053 154.232 85.5516C154.06 85.2903 153.974 84.9507 153.974 84.5327C153.974 84.1446 154.075 83.7901 154.277 83.4691C154.486 83.1407 154.803 82.8795 155.228 82.6854C155.654 82.4839 156.199 82.3831 156.863 82.3831C157.303 82.3831 157.74 82.4466 158.173 82.5735C158.606 82.6929 158.979 82.8608 159.292 83.0773L159.012 83.7378C158.677 83.5139 158.318 83.3497 157.938 83.2452C157.564 83.1407 157.202 83.0885 156.852 83.0885C156.381 83.0885 155.993 83.1519 155.687 83.2788C155.381 83.4057 155.154 83.5774 155.004 83.7938C154.863 84.0028 154.792 84.2416 154.792 84.5103C154.792 84.8164 154.877 85.0627 155.049 85.2493C155.228 85.4359 155.46 85.5814 155.743 85.6859C156.034 85.7904 156.352 85.8837 156.695 85.9658C157.038 86.0479 157.378 86.1375 157.714 86.2345C158.057 86.3315 158.371 86.4584 158.654 86.6152C158.945 86.7644 159.177 86.966 159.348 87.2197C159.527 87.4735 159.617 87.8057 159.617 88.2162C159.617 88.5968 159.513 88.9514 159.304 89.2798C159.095 89.6007 158.774 89.862 158.341 90.0635C157.915 90.2576 157.367 90.3546 156.695 90.3546ZM162.779 90.2874V83.1668H160.025V82.4503H166.362V83.1668H163.608V90.2874H162.779ZM172.027 90.2874V83.1668H169.272V82.4503H175.609V83.1668H172.855V90.2874H172.027ZM177.616 85.9546H181.758V86.66H177.616V85.9546ZM177.705 89.5709H182.419V90.2874H176.877V82.4503H182.251V83.1668H177.705V89.5709ZM187.692 90.3546C187.102 90.3546 186.557 90.2576 186.057 90.0635C185.557 89.862 185.124 89.5821 184.759 89.2238C184.393 88.8655 184.106 88.4438 183.897 87.9587C183.695 87.4735 183.594 86.9436 183.594 86.3689C183.594 85.7941 183.695 85.2642 183.897 84.779C184.106 84.2939 184.393 83.8722 184.759 83.5139C185.132 83.1556 185.568 82.8795 186.069 82.6854C186.569 82.4839 187.114 82.3831 187.703 82.3831C188.27 82.3831 188.804 82.4802 189.304 82.6742C189.804 82.8608 190.226 83.1444 190.569 83.5251L190.043 84.0513C189.722 83.7229 189.368 83.4878 188.98 83.346C188.591 83.1967 188.173 83.1221 187.726 83.1221C187.255 83.1221 186.819 83.2042 186.416 83.3684C186.013 83.5251 185.662 83.7528 185.363 84.0513C185.065 84.3424 184.83 84.6857 184.658 85.0813C184.494 85.4695 184.412 85.8986 184.412 86.3689C184.412 86.8391 184.494 87.272 184.658 87.6676C184.83 88.0557 185.065 88.399 185.363 88.6976C185.662 88.9887 186.013 89.2163 186.416 89.3805C186.819 89.5373 187.255 89.6157 187.726 89.6157C188.173 89.6157 188.591 89.541 188.98 89.3917C189.368 89.2425 189.722 89.0036 190.043 88.6752L190.569 89.2014C190.226 89.5821 189.804 89.8694 189.304 90.0635C188.804 90.2576 188.267 90.3546 187.692 90.3546ZM198.012 82.4503H198.829V90.2874H198.012V82.4503ZM193.108 90.2874H192.279V82.4503H193.108V90.2874ZM198.09 86.6711H193.018V85.9434H198.09V86.6711ZM201.331 90.2874V82.4503H202.014L207.422 89.2574H207.063V82.4503H207.881V90.2874H207.198L201.801 83.4803H202.16V90.2874H201.331ZM210.383 90.2874V82.4503H211.211V90.2874H210.383ZM217.109 90.3546C216.519 90.3546 215.974 90.2576 215.474 90.0635C214.974 89.862 214.541 89.5821 214.175 89.2238C213.81 88.8655 213.522 88.4438 213.313 87.9587C213.112 87.4735 213.011 86.9436 213.011 86.3689C213.011 85.7941 213.112 85.2642 213.313 84.779C213.522 84.2939 213.81 83.8722 214.175 83.5139C214.549 83.1556 214.985 82.8795 215.485 82.6854C215.985 82.4839 216.53 82.3831 217.12 82.3831C217.687 82.3831 218.221 82.4802 218.721 82.6742C219.221 82.8608 219.643 83.1444 219.986 83.5251L219.46 84.0513C219.139 83.7229 218.784 83.4878 218.396 83.346C218.008 83.1967 217.59 83.1221 217.142 83.1221C216.672 83.1221 216.235 83.2042 215.832 83.3684C215.429 83.5251 215.079 83.7528 214.78 84.0513C214.481 84.3424 214.246 84.6857 214.075 85.0813C213.91 85.4695 213.828 85.8986 213.828 86.3689C213.828 86.8391 213.91 87.272 214.075 87.6676C214.246 88.0557 214.481 88.399 214.78 88.6976C215.079 88.9887 215.429 89.2163 215.832 89.3805C216.235 89.5373 216.672 89.6157 217.142 89.6157C217.59 89.6157 218.008 89.541 218.396 89.3917C218.784 89.2425 219.139 89.0036 219.46 88.6752L219.986 89.2014C219.643 89.5821 219.221 89.8694 218.721 90.0635C218.221 90.2576 217.683 90.3546 217.109 90.3546ZM220.245 90.2874L223.828 82.4503H224.645L228.228 90.2874H227.355L224.063 82.9317H224.399L221.108 90.2874H220.245ZM221.656 88.1938L221.902 87.522H226.459L226.705 88.1938H221.656ZM229.469 90.2874V82.4503H230.297V89.5709H234.686V90.2874H229.469ZM239.619 86.2457H243.761V86.9622H239.619V86.2457ZM239.708 90.2874H238.88V82.4503H244.254V83.1668H239.708V90.2874ZM246.648 85.9546H250.79V86.66H246.648V85.9546ZM246.737 89.5709H251.451V90.2874H245.909V82.4503H251.283V83.1668H246.737V89.5709ZM255.503 90.3546C254.921 90.3546 254.361 90.2613 253.823 90.0747C253.294 89.8806 252.883 89.6343 252.592 89.3358L252.917 88.6976C253.193 88.9663 253.562 89.194 254.025 89.3805C254.495 89.5597 254.988 89.6492 255.503 89.6492C255.995 89.6492 256.395 89.5895 256.701 89.4701C257.014 89.3432 257.242 89.1753 257.384 88.9663C257.533 88.7573 257.608 88.5259 257.608 88.2722C257.608 87.9661 257.518 87.7198 257.339 87.5332C257.167 87.3466 256.94 87.2011 256.656 87.0966C256.372 86.9846 256.059 86.8876 255.716 86.8055C255.372 86.7234 255.029 86.6376 254.686 86.548C254.342 86.451 254.025 86.3241 253.734 86.1673C253.45 86.0106 253.219 85.8053 253.04 85.5516C252.868 85.2903 252.782 84.9507 252.782 84.5327C252.782 84.1446 252.883 83.7901 253.085 83.4691C253.294 83.1407 253.611 82.8795 254.036 82.6854C254.462 82.4839 255.006 82.3831 255.671 82.3831C256.111 82.3831 256.548 82.4466 256.981 82.5735C257.414 82.6929 257.787 82.8608 258.1 83.0773L257.82 83.7378C257.485 83.5139 257.126 83.3497 256.746 83.2452C256.372 83.1407 256.01 83.0885 255.66 83.0885C255.189 83.0885 254.801 83.1519 254.495 83.2788C254.189 83.4057 253.962 83.5774 253.812 83.7938C253.67 84.0028 253.6 84.2416 253.6 84.5103C253.6 84.8164 253.685 85.0627 253.857 85.2493C254.036 85.4359 254.268 85.5814 254.551 85.6859C254.842 85.7904 255.159 85.8837 255.503 85.9658C255.846 86.0479 256.186 86.1375 256.522 86.2345C256.865 86.3315 257.178 86.4584 257.462 86.6152C257.753 86.7644 257.985 86.966 258.156 87.2197C258.335 87.4735 258.425 87.8057 258.425 88.2162C258.425 88.5968 258.32 88.9514 258.111 89.2798C257.902 89.6007 257.582 89.862 257.149 90.0635C256.723 90.2576 256.175 90.3546 255.503 90.3546ZM261.587 90.2874V83.1668H258.833V82.4503H265.17V83.1668H262.416V90.2874H261.587ZM266.438 90.2874V82.4503H267.266V90.2874H266.438ZM271.901 90.2874L268.43 82.4503H269.326L272.572 89.8284H272.08L275.349 82.4503H276.189L272.718 90.2874H271.901ZM275.776 90.2874L279.358 82.4503H280.176L283.758 90.2874H282.885L279.593 82.9317H279.929L276.638 90.2874H275.776ZM277.186 88.1938L277.433 87.522H281.989L282.236 88.1938H277.186ZM284.999 90.2874V82.4503H285.827V89.5709H290.216V90.2874H284.999Z" fill="black"/>
</svg>
