<svg width="430" height="310" viewBox="0 0 430 310" fill="none" xmlns="http://www.w3.org/2000/svg">
<path fill-rule="evenodd" clip-rule="evenodd" d="M131.705 96.443C131.705 96.443 134.955 169.692 130.705 173.692C126.455 177.692 79.4547 202.942 79.4547 202.942C79.4547 202.942 73.7047 191.942 70.7047 190.942C67.7047 189.942 66.2047 194.192 67.2047 197.192C68.2047 200.192 71.9547 206.942 71.9547 206.942L55.4547 216.442C55.4547 216.442 51.7667 214.504 48.0167 213.004C44.2667 211.504 43.7667 217.254 44.7667 219.004C45.7667 220.754 44.2667 223.004 44.2667 223.004L28.7667 230.754L24.0167 228.004C24.0167 228.004 -0.733292 200.254 0.0167075 204.254C0.766708 208.254 20.5167 235.004 20.5167 235.004C20.5167 235.004 19.0167 239.254 21.0167 241.254C23.0167 243.254 38.2667 255.754 42.5167 255.504C46.7667 255.254 153.267 238.754 158.767 242.504C164.267 246.254 168.017 259.504 168.017 259.504C168.017 259.504 117.017 289.753 120.767 292.504C124.517 295.254 134.017 296.504 144.267 297.504C154.517 298.504 189.517 296.754 189.517 296.754C189.517 296.754 190.767 281.004 193.267 285.004C195.767 289.004 204.767 306.503 212.017 308.753C219.267 311.003 229.017 305.003 230.017 300.753C231.017 296.503 230.017 278.003 230.017 278.003C230.017 278.003 248.267 303.502 254.267 306.253C260.267 309.003 266.517 303.753 266.517 303.753C266.517 303.753 278.017 308.753 283.767 306.753C289.517 304.753 291.517 300.253 291.517 297.003C291.517 293.753 291.767 286.253 291.767 286.253C291.767 286.253 303.267 298.253 313.517 299.003C323.767 299.753 362.018 301.253 365.767 298.753C369.517 296.253 373.267 292.753 370.267 291.003C367.267 289.253 302.517 267.753 300.517 262.503C298.517 257.253 298.517 240.752 301.767 241.002C305.017 241.252 335.016 245.876 335.016 245.876C335.016 245.876 336.516 251.001 338.641 251.251C340.766 251.501 346.141 252.251 347.516 251.376C348.891 250.501 352.391 247.751 352.391 247.751L372.141 250.251C372.141 250.251 377.64 254.251 380.015 255.376C382.39 256.501 386.265 255.251 386.89 254.501C387.515 253.751 395.265 253.001 395.265 253.001C395.265 253.001 412.64 256.126 415.89 257.376C419.14 258.626 428.89 260.626 429.14 258.626C429.39 256.626 412.39 208.125 411.14 206.876C409.89 205.626 405.39 207.501 407.89 212.626C410.39 217.751 414.89 236.876 414.89 236.876L331.265 202.751C331.265 202.751 323.015 191.001 321.765 191.001C320.515 191.001 322.515 199.001 320.515 199.501C318.515 200.001 312.515 197.001 312.515 197.001L309.515 170.251C309.515 170.251 296.015 192.001 294.515 190.751C293.015 189.501 242.765 174.751 234.265 162.751C225.765 150.751 205.264 138.501 199.764 124.251C194.264 110.001 187.514 83.75 177.264 68.75C167.014 53.75 157.264 55 150.014 50.25C142.764 45.5 129.014 31 120.389 26.625C114.287 23.53 109.312 21.999 106.923 21.368L89.3877 0L105.33 28C105.655 54.82 112.636 75.029 131.705 96.443Z" fill="black"/>
</svg>
