<svg width="552" height="550" viewBox="0 0 552 550" fill="none" xmlns="http://www.w3.org/2000/svg">
<path fill-rule="evenodd" clip-rule="evenodd" d="M273.266 549.753C273.266 549.753 264.266 546.503 262.266 531.503C260.266 516.503 260.266 497.503 260.266 497.503L252.266 496.003V525.253C252.266 525.253 248.016 534.003 241.016 538.003C234.016 542.003 223.266 535.753 219.516 530.003C215.766 524.253 213.516 495.753 213.516 495.753L209.516 497.753L199.766 525.003L126.266 527.003L111.266 511.753L192.766 461.503V431.503L22.7629 460.501C22.7629 460.501 14.7629 443.001 11.2629 438.501C7.76295 434.001 5.26295 423.001 5.26295 423.001C5.26295 423.001 9.26197 417.876 8.26197 415.876C7.26197 413.876 3.26093 389.625 0.760934 381.375C-1.73907 373.125 2.51093 369.375 5.01093 373.625C7.51093 377.875 18.5109 418.625 18.5109 418.625L54.5109 396.375C54.5109 396.375 55.0109 386.375 56.0109 384.625C57.0109 382.875 67.0109 389.125 68.5109 388.875C70.0109 388.625 99.5109 370.625 99.5109 370.625C99.5109 370.625 97.0099 351.875 100.261 347.375C107.129 337.866 111.283 362.671 111.761 364.625C111.761 364.625 192.261 323.874 197.261 309.374C202.261 294.874 234.761 214.124 236.761 192.124C238.761 170.124 238.761 100.124 242.261 87.124C245.761 74.124 262.761 42.624 262.761 42.624L264.764 0L266.766 42.624C266.766 42.624 283.766 74.124 287.266 87.124C290.766 100.124 290.766 170.124 292.766 192.124C294.766 214.124 327.266 294.874 332.266 309.374C337.266 323.874 439.367 364.625 439.367 364.625C439.845 362.671 444 337.867 450.867 347.375C454.116 351.873 451.617 370.625 451.617 370.625C451.617 370.625 481.117 388.625 482.617 388.875C484.117 389.125 494.117 382.875 495.117 384.625C496.117 386.375 496.617 396.375 496.617 396.375L532.617 418.625C532.617 418.625 543.617 377.875 546.117 373.625C548.617 369.375 552.867 373.125 550.367 381.375C547.867 389.625 543.866 413.876 542.866 415.876C541.866 417.876 545.865 423.001 545.865 423.001C545.865 423.001 543.365 434.001 539.865 438.501C536.365 443.001 528.365 460.501 528.365 460.501L353.765 434.075V461.502L435.265 511.752L420.265 527.002L346.765 525.002L337.015 497.752L333.015 495.752C333.015 495.752 330.765 524.252 327.015 530.002C323.265 535.752 312.515 542.002 305.515 538.002C298.515 534.002 294.265 525.252 294.265 525.252V496.002L286.265 497.502C286.265 497.502 286.265 516.502 284.265 531.502C282.266 546.503 273.266 549.753 273.266 549.753Z" fill="black"/>
</svg>
