<svg width="430" height="310" viewBox="0 0 430 310" fill="none" xmlns="http://www.w3.org/2000/svg">
<path fill-rule="evenodd" clip-rule="evenodd" d="M297.438 96.443C297.438 96.443 294.188 169.692 298.438 173.692C302.688 177.692 349.688 202.942 349.688 202.942C349.688 202.942 355.438 191.942 358.438 190.942C361.438 189.942 362.938 194.192 361.938 197.192C360.938 200.192 357.188 206.942 357.188 206.942L373.688 216.442C373.688 216.442 377.376 214.504 381.126 213.004C384.876 211.504 385.376 217.254 384.376 219.004C383.376 220.754 384.876 223.004 384.876 223.004L400.376 230.754L405.126 228.004C405.126 228.004 429.876 200.254 429.126 204.254C428.376 208.254 408.626 235.004 408.626 235.004C408.626 235.004 410.126 239.254 408.126 241.254C406.126 243.254 390.876 255.754 386.626 255.504C382.376 255.254 275.876 238.754 270.376 242.504C264.876 246.254 261.126 259.504 261.126 259.504C261.126 259.504 312.126 289.753 308.376 292.504C304.626 295.254 295.126 296.504 284.876 297.504C274.626 298.504 239.626 296.754 239.626 296.754C239.626 296.754 238.376 281.004 235.876 285.004C233.376 289.004 224.376 306.503 217.126 308.753C209.876 311.003 200.126 305.003 199.126 300.753C198.126 296.503 199.126 278.003 199.126 278.003C199.126 278.003 180.876 303.502 174.876 306.253C168.876 309.003 162.626 303.753 162.626 303.753C162.626 303.753 151.126 308.753 145.376 306.753C139.626 304.753 137.626 300.253 137.626 297.003C137.626 293.753 137.376 286.253 137.376 286.253C137.376 286.253 125.876 298.253 115.626 299.003C105.376 299.753 67.1258 301.253 63.3758 298.753C59.6258 296.253 55.8758 292.753 58.8758 291.003C61.8758 289.253 126.626 267.753 128.626 262.503C130.626 257.253 130.626 240.752 127.376 241.002C124.126 241.252 94.1268 245.876 94.1268 245.876C94.1268 245.876 92.6268 251.001 90.5018 251.251C88.3768 251.501 83.0018 252.251 81.6268 251.376C80.2518 250.501 76.7518 247.751 76.7518 247.751L57.0018 250.251C57.0018 250.251 51.5027 254.251 49.1277 255.376C46.7527 256.501 42.8777 255.251 42.2527 254.501C41.6277 253.751 33.8777 253.001 33.8777 253.001C33.8777 253.001 16.5027 256.126 13.2527 257.376C10.0027 258.626 0.25273 260.626 0.00273008 258.626C-0.24727 256.626 16.7527 208.125 18.0027 206.876C19.2527 205.626 23.7527 207.501 21.2527 212.626C18.7527 217.751 14.2527 236.876 14.2527 236.876L97.8777 202.751C97.8777 202.751 106.128 191.001 107.378 191.001C108.628 191.001 106.628 199.001 108.628 199.501C110.628 200.001 116.628 197.001 116.628 197.001L119.628 170.251C119.628 170.251 133.128 192.001 134.628 190.751C136.128 189.501 186.378 174.751 194.878 162.751C203.378 150.751 223.879 138.501 229.379 124.251C234.879 110.001 241.629 83.75 251.879 68.75C262.129 53.75 271.879 55 279.129 50.25C286.379 45.5 300.129 31 308.754 26.625C314.856 23.53 319.831 21.999 322.22 21.368L339.755 0L323.813 28C323.488 54.82 316.507 75.029 297.438 96.443Z" fill="black"/>
</svg>
