<svg width="1059" height="124" viewBox="0 0 1059 124" fill="none" xmlns="http://www.w3.org/2000/svg">
<path d="M15.5482 4.44234C16.5847 4.44234 18.3617 5.47888 20.879 7.55197H22.2117L23.1002 7.10774C23.2483 7.4039 24.581 7.55197 27.0983 7.55197L27.5425 6.66351C24.8771 6.21927 23.5444 5.62696 23.5444 4.88657V4.44234H29.7637V4.88657C29.4675 5.47888 29.3195 5.92312 29.3195 6.21927L30.2079 6.66351H31.0964L30.6522 4.44234H46.6446C47.2369 4.51637 47.5331 4.81253 47.5331 5.3308V18.6578C47.5331 19.028 46.7927 19.6203 45.3119 20.4348L45.7561 24.8771V25.7656C45.0157 26.506 44.2753 28.431 43.5349 31.5406C43.683 32.7252 44.1273 33.3176 44.8677 33.3176C44.8677 33.4656 44.7196 34.0579 44.4234 35.0945L44.8677 37.7599H45.7561C45.9782 36.2791 46.4225 35.5387 47.0888 35.5387L47.5331 36.4272V47.0888C47.5331 47.6811 47.0888 47.9773 46.2004 47.9773V50.1985C47.0888 50.1985 47.5331 50.4946 47.5331 51.0869V66.6351L45.3119 66.1909L44.4234 67.9678L45.7561 70.6332C45.1638 70.7073 44.8677 71.0034 44.8677 71.5217V72.4102H47.5331V90.6238C47.5331 91.6603 47.385 92.993 47.0888 94.6219C47.385 94.9921 47.5331 96.0286 47.5331 97.7315C45.7561 98.4719 44.8677 99.6565 44.8677 101.285C46.3484 102.47 47.0888 103.21 47.0888 103.507L45.3119 104.839L45.7561 107.06L45.3119 109.282C45.7561 109.282 46.3484 109.874 47.0888 111.059C46.7927 111.651 46.6446 112.095 46.6446 112.391H47.0888C47.6071 112.095 48.1994 111.947 48.8658 111.947C55.085 113.28 58.1947 115.353 58.1947 118.166C58.1947 120.461 57.1581 121.794 55.085 122.164C55.085 121.868 54.937 121.72 54.6408 121.72C54.6408 122.164 54.1966 122.609 53.3081 123.053H47.0888C46.4965 122.905 45.9042 122.164 45.3119 120.832L44.4234 121.276H43.5349L40.4253 120.832C40.4253 121.202 39.5368 121.942 37.7599 123.053H34.6503C33.1695 123.053 32.4291 122.757 32.4291 122.164C31.4666 122.757 30.5781 123.053 29.7637 123.053C29.0233 122.461 28.431 122.164 27.9868 122.164C27.3944 122.461 26.9502 122.609 26.654 122.609C26.654 121.794 25.3213 121.202 22.6559 120.832C22.6559 121.424 22.3598 121.72 21.7675 121.72H20.879L19.1021 120.387C19.1021 121.942 17.6213 122.831 14.6597 123.053H5.77504C1.92501 122.683 0 121.202 0 118.611V117.278C1.40674 114.612 3.47983 113.28 6.21928 113.28C6.21928 114.094 6.66351 114.686 7.55198 115.057C9.03276 115.057 9.77315 113.724 9.77315 111.059L8.44045 110.17L8.88468 109.282V91.9565C8.88468 91.5122 9.477 90.9199 10.6616 90.1795C10.2914 88.7728 9.69911 87.5882 8.88468 86.6257V75.5198C8.88468 75.0756 9.477 74.6313 10.6616 74.1871L10.2174 71.9659L11.9943 70.189C10.2174 69.4486 9.32892 68.264 9.32892 66.6351C11.402 66.6351 12.4386 63.9697 12.4386 58.6389C11.9943 58.6389 11.2539 58.0466 10.2174 56.862C9.62507 57.1581 9.18084 57.3062 8.88468 57.3062V55.5293C8.88468 54.6408 9.03276 54.1966 9.32892 54.1966L8.88468 51.9754V46.2003C11.2539 43.5349 12.4386 40.5734 12.4386 37.3157V35.983C12.4386 34.8724 11.5501 32.9474 9.77315 30.2079C10.0693 28.505 10.2174 25.8396 10.2174 22.2117C9.62507 22.5079 9.18084 22.6559 8.88468 22.6559V19.5463C8.88468 16.0665 6.36736 13.8453 1.3327 12.8828L0.888468 11.9943V11.5501C2.96156 7.0337 3.99811 4.66445 3.99811 4.44234H15.5482ZM58.6389 4.44234C60.1937 4.44234 62.7111 4.59041 66.1909 4.88657V5.3308L65.7467 6.21927L67.0794 7.10774H67.5236L69.7448 5.3308C71.4477 5.3308 74.5573 5.92312 79.0737 7.10774V7.99621H77.741L76.4083 7.10774L75.964 7.99621V8.44044C75.964 9.25487 77.4448 9.84718 80.4064 10.2174C80.8506 9.03275 81.2949 8.44044 81.7391 8.44044H82.1833C82.6276 8.44044 83.0718 9.03275 83.516 10.2174C84.1083 9.92122 84.5526 9.77314 84.8487 9.77314C87.6622 10.9578 90.4757 13.1789 93.2892 16.4367V16.8809H92.4007C91.6603 16.8809 91.2161 16.2886 91.068 15.104H90.6238V18.2136C94.3998 22.0636 96.6209 26.3579 97.2873 31.0964C97.7315 31.0964 98.1757 32.4291 98.62 35.0945H99.0642C99.6565 34.5022 100.545 34.206 101.73 34.206C102.026 35.8349 102.174 37.1676 102.174 38.2041C102.174 38.4262 101.285 39.3147 99.5085 40.8695C100.027 43.9051 100.767 45.9782 101.73 47.0888C101.73 49.1619 100.841 51.0869 99.0642 52.8639C98.2498 54.4187 97.2132 57.6764 95.9546 62.637C93.1411 66.1168 90.3276 68.7822 87.5141 70.6332H87.0699C85.441 69.4486 84.4045 68.8563 83.9603 68.8563L81.2949 71.0775V71.9659L82.1833 73.2986V73.7429L76.4083 75.5198C76.4083 75.0756 75.816 74.6313 74.6313 74.1871C73.4467 74.4833 72.4102 74.6313 71.5217 74.6313C71.0034 74.6313 70.115 74.3352 68.8563 73.7429C65.8207 76.1121 64.0438 77.2967 63.5255 77.2967C62.4149 77.5929 61.0822 77.741 59.5274 77.741H55.5293C54.937 77.741 54.6408 77.4448 54.6408 76.8525V69.3005L61.7485 65.3024C62.1928 63.8216 63.2293 63.0812 64.8582 63.0812C64.8582 63.3774 65.0063 63.5255 65.3024 63.5255V61.7485L64.8582 60.8601C65.3024 60.8601 65.7467 60.4158 66.1909 59.5274V58.1947C65.0063 58.1947 64.414 57.8985 64.414 57.3062V52.4196L65.3024 51.0869L64.414 49.7542V46.6446C66.339 45.534 67.5236 44.3494 67.9678 43.0907C67.9678 42.3503 67.5236 40.5734 66.6351 37.7599V35.983L67.0794 35.0945C65.3024 34.7243 64.414 34.2801 64.414 33.7618V28.8752C65.8947 27.6906 66.6351 26.506 66.6351 25.3213V24.4329C64.8582 22.5819 63.9697 21.3973 63.9697 20.879C61.7485 16.1405 58.787 13.7713 55.085 13.7713L54.6408 12.8828V8.44044C54.6408 7.62601 56.1216 7.0337 59.0831 6.66351L58.6389 4.44234ZM2.22117 11.1058V11.5501C2.29521 12.1424 2.59137 12.4385 3.10964 12.4385V11.1058H2.22117ZM44.8677 51.0869C44.5715 53.16 44.4234 54.3446 44.4234 54.6408L45.3119 55.085C45.7561 55.085 46.2004 54.6408 46.6446 53.7523C46.0523 52.7898 45.7561 51.9014 45.7561 51.0869H44.8677ZM125.274 2.22116H149.263C149.855 2.2952 150.151 2.59136 150.151 3.10963V7.10774C150.151 10.3655 150.003 11.9943 149.707 11.9943C150.003 15.0299 150.151 17.3992 150.151 19.1021V56.4177C148.67 56.4177 147.93 56.7139 147.93 57.3062C147.93 58.1947 148.67 58.6389 150.151 58.6389V66.6351L148.818 68.4121V68.8563C149.707 68.8563 150.151 69.1524 150.151 69.7448V72.4102C150.151 72.8544 149.559 73.4467 148.374 74.1871L147.486 73.7429C147.486 74.3352 147.19 74.6313 146.597 74.6313C146.597 74.9275 146.745 75.3717 147.042 75.964C146.745 78.9256 146.597 81.1468 146.597 82.6275C147.782 85.8853 148.967 87.5141 150.151 87.5141V101.285C148.374 102.766 147.486 103.803 147.486 104.395C147.486 105.061 148.374 105.654 150.151 106.172C150.151 109.134 152.52 110.91 157.259 111.503V114.168C157.259 114.835 157.999 115.279 159.48 115.501C160.072 115.205 160.517 115.057 160.813 115.057V115.945C160.813 119.203 158.74 120.832 154.593 120.832H152.817L151.484 119.943H150.595L149.263 120.832H140.378V120.387L140.822 118.166L139.045 117.278C139.045 117.87 137.861 118.166 135.491 118.166L136.38 119.499C136.38 119.943 135.936 120.387 135.047 120.832H134.159V120.387C134.455 119.795 134.603 119.351 134.603 119.055C132.826 117.722 131.938 116.982 131.938 116.834L130.161 117.722L127.939 117.278C126.755 117.722 126.162 118.166 126.162 118.611C126.755 119.573 127.051 120.313 127.051 120.832H111.947L109.282 120.387C108.763 120.684 108.171 120.832 107.505 120.832C104.247 120.239 102.618 118.759 102.618 116.389V115.945C104.469 113.206 107.134 111.133 110.614 109.726C111.207 107.801 111.503 106.468 111.503 105.728V93.7334C113.206 91.2901 114.094 89.217 114.168 87.5141C113.502 86.9218 112.613 86.6257 111.503 86.6257V75.964C111.503 75.6679 111.651 75.5198 111.947 75.5198L111.503 74.6313V68.8563L113.724 69.3005L114.168 68.4121C114.168 67.8197 113.724 67.5236 112.835 67.5236C112.243 67.8197 111.799 67.9678 111.503 67.9678V47.9773C113.872 46.4225 115.057 44.7936 115.057 43.0907V42.2022C114.242 41.0917 113.65 39.6109 113.28 37.7599C112.095 37.7599 111.503 37.4637 111.503 36.8714V23.1002L114.168 19.9905C114.168 18.5838 113.28 17.5472 111.503 16.8809C111.503 15.9184 110.762 14.1414 109.282 11.5501L109.726 9.32891C107.875 8.7366 106.838 7.99621 106.616 7.10774C106.616 6.66351 107.06 6.21927 107.949 5.77504H109.282C110.984 5.77504 112.021 5.92312 112.391 6.21927C118.388 6.21927 122.09 5.03465 123.497 2.6654C124.015 2.36924 124.608 2.22116 125.274 2.22116ZM157.703 2.22116H158.592C158.592 3.40579 161.997 4.59041 168.809 5.77504C169.327 5.47888 169.92 5.3308 170.586 5.3308C171.252 5.3308 171.845 5.47888 172.363 5.77504C175.25 5.47888 177.175 4.59041 178.138 3.10963C179.323 3.55387 179.915 3.9981 179.915 4.44234C179.471 4.44234 179.026 4.88657 178.582 5.77504V6.21927H180.359V5.3308H181.248L183.024 7.10774H183.913L185.69 5.3308C191.613 7.62601 194.575 9.84718 194.575 11.9943C194.575 12.7347 195.463 14.0674 197.24 15.9924C200.127 22.2117 201.756 25.3213 202.127 25.3213C203.903 25.3213 204.792 27.2464 204.792 31.0964V35.5387C204.792 36.2791 204.2 37.4637 203.015 39.0926C203.015 40.9436 201.83 43.1647 199.461 45.7561V47.9773H200.35V48.8658C200.35 49.31 199.757 49.9023 198.573 50.6427H198.128V49.7542H197.24V52.4196C195.463 54.7889 193.686 55.9735 191.909 55.9735C190.873 57.7504 189.54 58.6389 187.911 58.6389V56.4177C187.911 55.8254 187.615 55.5293 187.023 55.5293C186.134 55.5293 184.653 57.3062 182.58 60.8601C179.545 62.0447 177.62 62.637 176.805 62.637V63.0812C179.767 63.0812 181.248 64.1178 181.248 66.1909H182.136L183.469 65.3024C185.32 67.3755 186.8 68.4121 187.911 68.4121C187.911 68.1159 188.059 67.9678 188.355 67.9678L187.911 65.7466V65.3024H188.355C193.316 67.2274 196.277 68.8563 197.24 70.189C201.978 73.5948 204.348 78.0371 204.348 83.516V95.0661H203.459C203.459 94.4738 202.867 94.1776 201.682 94.1776C201.386 94.6959 201.238 95.2882 201.238 95.9546V98.1757L202.127 99.5084L201.238 100.841C201.312 101.433 201.608 101.73 202.127 101.73L204.348 101.285C204.348 103.358 204.792 104.395 205.68 104.395H206.569C209.308 101.137 211.529 99.5084 213.232 99.5084C214.639 99.5084 215.824 100.693 216.786 103.062V103.507L215.898 103.062H215.009V103.507C215.009 104.395 215.75 104.839 217.231 104.839C214.861 111.355 212.64 114.612 210.567 114.612L207.902 114.168C206.939 114.168 206.051 115.501 205.236 118.166V119.499C204.422 119.499 203.089 120.239 201.238 121.72C197.018 122.609 194.501 123.053 193.686 123.053L194.13 120.832V119.943L189.688 119.499C185.838 119.499 183.913 120.387 183.913 122.164C178.582 121.128 175.917 119.647 175.917 117.722L176.361 115.501H172.363C168.513 111.503 166.588 105.876 166.588 98.62V87.5141C166.588 86.9218 167.032 86.6257 167.921 86.6257V86.1814C167.032 86.1814 166.588 85.8853 166.588 85.293V79.9621C167.18 79.2218 167.476 78.6294 167.476 78.1852C166.292 76.4083 165.699 75.0756 165.699 74.1871C166.218 73.8909 166.81 73.7429 167.476 73.7429L167.032 71.5217H166.588C165.995 71.5217 165.699 71.9659 165.699 72.8544H164.811C164.219 72.8544 163.922 72.5582 163.922 71.9659L164.367 69.3005L163.034 68.4121C162.738 68.9303 162.59 69.5226 162.59 70.189C158.74 69.3005 156.815 68.5601 156.815 67.9678V67.0794C156.815 65.6726 156.963 64.1918 157.259 62.637C156.963 61.4524 156.815 60.4158 156.815 59.5274C158.221 58.9351 159.85 58.6389 161.701 58.6389C161.775 59.2312 162.071 59.5274 162.59 59.5274H163.034C163.478 59.4533 164.811 56.3437 167.032 50.1985L167.921 49.7542L166.588 47.533V23.5444C166.588 17.3992 164.07 13.8453 159.036 12.8828V11.9943C159.036 11.402 159.48 11.1058 160.369 11.1058L159.924 10.2174L157.703 10.6616C157.111 10.6616 156.815 10.3655 156.815 9.77314V3.10963C156.889 2.51732 157.185 2.22116 157.703 2.22116ZM168.809 2.6654L169.253 3.55387C169.253 4.14618 168.957 4.44234 168.365 4.44234H167.921C167.328 4.44234 167.032 4.14618 167.032 3.55387L168.809 2.6654ZM111.503 40.4253H112.391V42.2022H111.503V40.4253ZM147.486 96.843L147.042 97.7315C147.338 98.3238 147.486 98.7681 147.486 99.0642H149.263V97.2873L147.486 96.843ZM113.28 103.062V104.839H114.168L115.057 104.395C114.76 103.803 114.612 103.358 114.612 103.062H113.28ZM275.425 -6.58631e-06H275.869L280.312 0.444228C280.312 1.25866 280.016 2.14713 279.423 3.10963L280.756 3.9981C283.718 3.77598 285.198 2.88752 285.198 1.3327C288.752 1.85097 290.529 3.47983 290.529 6.21927H294.083V6.66351H293.195V7.10774C293.195 7.47794 294.379 8.51448 296.748 10.2174H298.081C298.377 10.2174 299.562 9.92122 301.635 9.32891C301.857 10.8097 302.598 11.5501 303.856 11.5501L303.412 14.6597C307.04 19.9905 310.149 22.6559 312.741 22.6559C313.925 22.804 314.518 23.2482 314.518 23.9886C313.333 25.2473 312.741 26.4319 312.741 27.5425C318.072 32.0589 320.737 35.7608 320.737 38.6484C320.441 39.5368 320.145 39.9811 319.849 39.9811C321.922 43.1647 322.958 46.5705 322.958 50.1985C322.366 51.161 322.07 52.0494 322.07 52.8639V53.7523C323.254 53.7523 323.847 54.6408 323.847 56.4177V66.1909C321.774 67.7457 320.737 68.7822 320.737 69.3005V69.7448C320.737 70.4111 320.885 71.0034 321.181 71.5217C320.589 72.4842 320.293 73.3727 320.293 74.1871V78.1852C318.812 79.74 318.072 80.9247 318.072 81.7391C318.072 82.5535 319.108 83.2939 321.181 83.9603C319.997 86.9959 319.404 88.9209 319.404 89.7353H318.072V89.2911L318.516 86.1814L317.627 85.7372H317.183C316.887 88.1805 316.443 90.2536 315.85 91.9565L317.183 94.1776C315.999 97.7315 314.222 99.5084 311.852 99.5084C310.075 100.397 309.187 101.582 309.187 103.062V103.951C310.075 103.951 310.52 104.099 310.52 104.395C310.075 105.58 309.631 106.172 309.187 106.172H308.743C308.743 104.987 308.447 104.395 307.854 104.395L307.41 105.283L307.854 107.505C306.892 107.505 306.003 108.541 305.189 110.614C303.116 112.391 301.487 113.28 300.302 113.28V112.835H299.414L298.081 113.724L298.525 114.612V115.057C290.677 120.387 282.829 123.053 274.981 123.053L274.537 122.164V115.057C275.721 114.242 276.314 113.502 276.314 112.835H278.535L279.423 112.391L278.979 111.503L282.533 105.283C283.718 105.283 284.31 104.247 284.31 102.174L285.198 100.841C284.606 100.841 284.31 100.397 284.31 99.5084L282.977 100.397H282.533V72.4102C283.051 68.9303 283.644 66.8572 284.31 66.1909V65.3024C283.125 65.3024 282.533 65.0063 282.533 64.4139C282.533 64.1178 283.273 63.5255 284.754 62.637C284.754 62.2668 284.014 61.5264 282.533 60.4158V54.1966C282.533 47.6811 283.421 44.4234 285.198 44.4234L284.31 43.0907L283.421 43.5349H282.533V20.879C282.533 15.104 280.016 11.2539 274.981 9.32891C274.685 9.32891 274.537 9.18083 274.537 8.88468V7.10774C274.611 6.51543 274.907 6.21927 275.425 6.21927C275.499 6.81158 275.795 7.10774 276.314 7.10774H276.758V5.3308C275.277 4.29426 274.537 2.81348 274.537 0.888462C274.611 0.29615 274.907 -6.58631e-06 275.425 -6.58631e-06ZM261.654 4.44234H264.764V5.3308C259.729 9.10679 257.212 12.2164 257.212 14.6597V15.104H257.656L258.544 14.6597L259.877 16.4367V18.2136H259.433L258.1 17.3251H257.656C257.212 17.3251 256.767 17.7694 256.323 18.6578V19.9905L256.767 20.879C257.73 20.2867 258.47 19.9905 258.989 19.9905L259.433 20.879V24.4329L258.989 25.3213L258.1 24.8771C256.915 24.8771 256.027 27.3944 255.435 32.4291C255.731 36.7234 256.027 39.0926 256.323 39.5368L255.879 42.2022V46.2003L256.323 49.31H255.879C256.471 50.4946 256.767 51.5312 256.767 52.4196H257.656L258.544 51.9754C259.137 52.9379 259.433 53.8264 259.433 54.6408V56.862C257.36 59.8976 256.323 61.8226 256.323 62.637C256.915 64.7101 257.212 65.8947 257.212 66.1909C256.619 68.8563 256.323 70.7813 256.323 71.9659V74.1871C257.064 74.8534 257.952 76.7785 258.989 79.9621C259.285 79.9621 259.433 80.1102 259.433 80.4064V95.0661C257.656 96.3248 256.767 97.8055 256.767 99.5084C257.212 99.5084 257.656 99.9527 258.1 100.841C258.1 101.063 257.36 101.804 255.879 103.062C257.36 106.912 258.396 108.837 258.989 108.837C259.877 108.837 261.654 110.022 264.319 112.391C266.392 113.058 267.429 113.65 267.429 114.168V118.166L266.985 119.055L266.096 118.611H265.208L263.875 119.499L260.765 119.055C260.321 119.055 259.581 119.943 258.544 121.72C256.323 121.128 254.99 120.832 254.546 120.832L254.99 118.611C253.88 117.204 251.955 115.871 249.215 114.612H248.771L246.106 117.278C241.663 114.39 238.11 111.577 235.444 108.837V108.393L236.333 107.06V106.616C235.444 104.765 233.815 102.692 231.446 100.397H228.336C224.782 94.844 223.006 90.994 223.006 88.8468C222.413 88.8468 222.117 88.5507 222.117 87.9584V86.1814C223.302 86.1814 223.894 85.5891 223.894 84.4045C223.524 80.5545 222.932 78.6294 222.117 78.6294L222.561 76.4083C222.561 74.8534 221.229 73.3727 218.563 71.9659C218.267 68.1159 218.119 65.0063 218.119 62.637V58.1947C218.119 57.6024 218.859 57.3062 220.34 57.3062C220.044 53.8264 219.6 51.4571 219.007 50.1985C219.007 48.4215 219.452 45.608 220.34 41.758H221.229C221.229 42.6465 221.525 43.0907 222.117 43.0907L222.561 39.9811L221.229 38.2041C224.116 29.8377 226.485 24.9511 228.336 23.5444L229.225 23.9886C231.594 23.9886 232.779 22.6559 232.779 19.9905C231.594 19.9905 231.002 19.5463 231.002 18.6578C238.48 11.0318 243.514 6.73754 246.106 5.77504H247.438V6.21927C247.142 6.81158 246.994 7.25582 246.994 7.55197H247.438C247.957 7.25582 248.549 7.10774 249.215 7.10774L250.992 7.55197L261.654 4.44234ZM265.652 7.55197C265.652 8.14429 266.096 8.44044 266.985 8.44044V9.77314C266.763 9.77314 265.874 9.92122 264.319 10.2174V8.88468C264.319 8.44044 264.764 7.99621 265.652 7.55197ZM219.007 60.8601V61.7485C219.081 62.3409 219.378 62.637 219.896 62.637L220.34 61.7485C220.34 61.1562 220.044 60.8601 219.452 60.8601H219.007ZM266.096 121.72H266.54C267.133 121.794 267.429 122.09 267.429 122.609L266.54 123.053H265.208V122.609C265.282 122.016 265.578 121.72 266.096 121.72ZM365.16 2.22116C366.641 3.77598 367.382 4.81253 367.382 5.3308C370.861 5.3308 372.935 4.44234 373.601 2.6654C373.601 2.36924 373.749 2.22116 374.045 2.22116H381.153C381.745 2.22116 382.041 2.96155 382.041 4.44234H382.93L384.263 3.55387H384.707C385.225 3.92406 386.41 4.3683 388.261 4.88657C389.741 4.88657 390.482 3.9981 390.482 2.22116H405.142L406.918 3.55387C406.918 3.10963 407.363 2.6654 408.251 2.22116H408.695C409.51 3.25771 410.694 3.9981 412.249 4.44234V4.88657H414.915L415.359 6.66351C415.359 9.62507 412.842 11.6982 407.807 12.8828C406.993 13.9193 406.4 15.9924 406.03 19.1021H405.586L403.365 18.6578L402.92 19.5463V22.2117C402.92 22.6559 403.513 23.2482 404.697 23.9886C405.29 23.9886 405.586 23.5444 405.586 22.6559H406.474V46.6446C404.993 46.6446 403.809 47.385 402.92 48.8658C403.957 52.4196 404.845 54.6408 405.586 55.5293V56.4177C404.771 56.4177 404.179 57.8985 403.809 60.8601C404.253 61.1562 405.142 61.3043 406.474 61.3043V63.9697C406.474 66.7092 406.326 69.2265 406.03 71.5217C406.326 72.9284 406.474 75.0015 406.474 77.741C406.178 77.741 406.03 77.889 406.03 78.1852L405.142 77.741H404.697C404.105 79.8141 403.809 80.9987 403.809 81.2948C405.068 81.665 405.956 82.4054 406.474 83.516V88.4026C406.474 97.8055 405.142 102.988 402.476 103.951C403.068 103.951 403.365 104.395 403.365 105.283C401.662 109.134 400.033 111.059 398.478 111.059C398.478 113.354 395.665 115.723 390.038 118.166C388.853 117.87 387.076 117.722 384.707 117.722C384.707 120.98 380.857 122.609 373.157 122.609C372.935 122.905 371.602 123.053 369.159 123.053V122.609C369.455 122.09 369.603 121.498 369.603 120.832C369.603 120.239 369.307 119.943 368.714 119.943H367.826C367.234 120.017 366.937 120.313 366.937 120.832V121.276L367.826 122.609V123.053H365.16C365.16 121.276 364.864 120.387 364.272 120.387C364.272 121.276 364.124 121.72 363.828 121.72L364.272 122.609V123.053H362.939C362.347 123.053 362.051 122.757 362.051 122.164V119.943C364.198 118.24 365.383 116.167 365.605 113.724H366.493C366.493 112.687 366.345 111.355 366.049 109.726C367.16 106.246 368.196 104.173 369.159 103.507V103.062L368.714 102.174C369.899 101.582 370.491 100.841 370.491 99.9527C370.195 99.0642 369.899 98.62 369.603 98.62C370.195 97.6575 370.491 96.769 370.491 95.9546L368.714 95.5103C368.714 95.8065 368.566 95.9546 368.27 95.9546L367.826 95.0661V93.7334C369.603 91.5863 370.491 89.3651 370.491 87.0699H369.603L368.27 87.9584L367.826 87.0699V84.8487C369.011 84.8487 369.603 84.5526 369.603 83.9603V83.516L369.159 82.6275L368.27 83.0718H367.826V73.7429C367.826 71.7438 367.974 69.9669 368.27 68.4121C367.974 66.8572 367.826 65.0803 367.826 63.0812V54.6408C367.9 54.0485 368.196 53.7523 368.714 53.7523C369.233 54.0485 369.825 54.1966 370.491 54.1966L370.936 51.9754C370.936 49.9763 369.899 48.1994 367.826 46.6446V34.206C367.9 33.6137 368.196 33.3176 368.714 33.3176H369.159L370.047 33.7618L370.491 31.5406C369.899 31.5406 369.603 31.2445 369.603 30.6522V30.2079C370.491 29.2454 370.936 28.505 370.936 27.9867C370.936 24.9511 369.899 22.8781 367.826 21.7675V19.1021L368.714 17.7694V16.4367C367.826 16.4367 367.382 16.1405 367.382 15.5482C368.566 15.104 369.159 14.6597 369.159 14.2155C369.159 13.6232 368.862 13.327 368.27 13.327L366.937 14.2155H366.493C366.493 13.4751 364.716 12.5866 361.162 11.5501V11.1058C361.755 11.1058 362.051 10.8097 362.051 10.2174C361.459 8.88468 360.866 8.14429 360.274 7.99621H358.941L357.608 8.88468L357.164 7.99621V7.55197C358.571 6.14523 359.459 4.66445 359.83 3.10963C362.643 2.51732 364.42 2.22116 365.16 2.22116ZM404.697 15.104V16.4367C405.29 16.4367 405.586 16.1405 405.586 15.5482V15.104H404.697ZM343.393 75.5198H344.726C344.948 75.5198 345.392 75.964 346.058 76.8525C346.281 76.8525 347.169 76.7044 348.724 76.4083C350.501 77.0006 351.389 77.5929 351.389 78.1852C351.093 78.7035 350.945 79.2958 350.945 79.9621C351.241 79.9621 351.389 80.1102 351.389 80.4064C352.278 80.4064 352.722 79.9621 352.722 79.0737H353.61C353.61 79.666 354.795 80.8506 357.164 82.6275C359.237 86.1814 360.274 89.4391 360.274 92.4007V92.8449C360.274 96.4728 359.237 99.5825 357.164 102.174L356.276 101.73H355.387C355.387 102.322 355.832 102.618 356.72 102.618V103.062C356.72 103.433 355.98 104.173 354.499 105.283H354.055C353.758 105.283 353.61 105.135 353.61 104.839L350.501 106.172L350.945 107.06C350.945 107.357 349.908 108.245 347.835 109.726C349.908 111.577 350.945 112.761 350.945 113.28L354.055 112.835L354.499 113.724V121.276L354.055 122.164C353.758 122.164 351.093 121.72 346.058 120.832V119.943C346.651 119.943 346.947 119.795 346.947 119.499C346.947 118.907 346.058 118.166 344.281 117.278L341.172 117.722H340.283C337.248 117.722 333.546 114.612 329.178 108.393C329.178 104.247 327.993 102.174 325.624 102.174C325.031 98.7681 324.735 96.3988 324.735 95.0661V94.6219C324.735 88.9949 326.808 84.2564 330.954 80.4064H332.731C332.731 81.8872 333.028 82.6275 333.62 82.6275C333.62 82.3314 335.101 81.1468 338.062 79.0737V77.2967L337.618 76.4083C338.951 75.816 340.876 75.5198 343.393 75.5198ZM332.731 78.6294H333.62V79.9621H332.731V78.6294ZM363.828 111.947H364.272V113.724H362.495V113.28C362.495 112.835 362.939 112.391 363.828 111.947ZM419.579 4.44234H420.912L422.245 5.3308H422.689L424.91 4.88657C424.91 5.3308 425.798 6.21927 427.575 7.55197H428.02C428.39 7.55197 429.13 6.51543 430.241 4.44234H434.239C434.683 4.44234 435.127 5.18273 435.572 6.66351C436.46 6.66351 437.497 6.81158 438.681 7.10774C443.124 7.10774 445.345 6.21927 445.345 4.44234H453.341C453.785 4.44234 454.378 5.18273 455.118 6.66351C456.228 6.07119 457.413 5.77504 458.672 5.77504C459.782 5.84908 460.819 7.18178 461.781 9.77314V23.1002H461.337C460.893 23.1002 460.301 22.5079 459.56 21.3232V20.879C460.227 20.0646 460.671 18.5838 460.893 16.4367L458.672 13.7713L458.228 14.6597V19.5463C459.116 20.7309 459.56 22.5079 459.56 24.8771L461.781 24.4329V35.0945C460.004 35.0945 459.116 37.0195 459.116 40.8695C459.708 40.9436 460.004 41.2397 460.004 41.758C459.412 42.7205 459.116 43.4609 459.116 43.9792H461.781V58.6389C461.781 59.2312 460.893 59.5274 459.116 59.5274V60.8601L459.56 61.7485L461.337 60.8601L461.781 61.7485V71.5217C461.781 71.9659 461.337 72.4102 460.449 72.8544L461.781 75.0756C461.041 75.6679 460.449 75.964 460.004 75.964C460.004 76.4083 460.301 77.741 460.893 79.9621C459.116 80.4064 458.228 81.4429 458.228 83.0718L459.116 86.1814H461.781V89.2911C460.893 90.4016 460.449 91.4382 460.449 92.4007C460.893 92.4007 461.337 92.8449 461.781 93.7334V97.7315L460.893 99.0642C461.485 99.1383 461.781 99.4344 461.781 99.9527V110.614L460.893 111.947C461.485 112.021 461.781 112.317 461.781 112.835V122.164C461.781 122.757 461.485 123.053 460.893 123.053H442.235C440.458 120.387 439.274 119.055 438.681 119.055C436.904 119.055 435.127 120.387 433.35 123.053H428.464C428.464 120.98 427.131 119.943 424.466 119.943C424.096 119.943 423.503 120.684 422.689 122.164H423.577V123.053H422.689C419.875 123.053 418.246 121.276 417.802 117.722V117.278L423.577 113.28C424.762 113.28 425.354 112.835 425.354 111.947V106.616C425.354 106.024 424.614 105.728 423.133 105.728V72.4102C424.614 71.2255 425.354 69.8928 425.354 68.4121C424.17 67.9678 423.577 67.5236 423.577 67.0794L424.466 65.7466V65.3024L423.133 63.5255V39.9811L423.577 37.3157C423.281 36.7974 423.133 36.057 423.133 35.0945V33.7618C423.133 33.1695 423.577 32.8733 424.466 32.8733L424.022 30.6522C424.91 30.2079 425.947 27.8387 427.131 23.5444C425.65 15.252 423.281 11.1058 420.023 11.1058C418.543 11.1058 417.802 9.92122 417.802 7.55197C418.987 7.0337 419.579 5.99715 419.579 4.44234ZM470.222 4.44234H493.766L496.432 6.66351L499.986 4.44234H503.539C504.132 4.51637 504.428 4.81253 504.428 5.3308V22.6559L502.651 24.4329V24.8771L504.428 26.654V27.9867C504.428 28.5791 503.836 28.8752 502.651 28.8752V29.3194C503.836 29.3194 504.428 29.6156 504.428 30.2079V37.3157C504.428 37.908 502.503 38.6484 498.653 39.5368C498.653 39.833 498.505 39.9811 498.209 39.9811H497.764C496.728 38.6484 494.655 34.3541 491.545 27.0983C489.398 24.4329 486.881 21.7675 483.993 19.1021V18.6578C484.882 18.6578 485.326 18.3617 485.326 17.7694C485.326 17.029 484.141 16.1405 481.772 15.104L477.774 16.4367C472.147 15.3261 469.333 14.4376 469.333 13.7713V5.3308C469.407 4.73849 469.704 4.44234 470.222 4.44234ZM458.228 27.0983C458.672 28.2829 459.116 28.8752 459.56 28.8752V26.2098H459.116C458.524 26.2838 458.228 26.58 458.228 27.0983ZM501.318 30.6522H502.651V29.7637H502.207C501.614 29.8377 501.318 30.1339 501.318 30.6522ZM485.326 39.0926C487.103 39.2407 487.991 39.6849 487.991 40.4253C486.436 42.2022 485.104 43.0907 483.993 43.0907V43.5349C485.77 43.5349 486.659 45.1638 486.659 48.4215C486.955 48.4215 487.399 48.5696 487.991 48.8658C488.065 48.2734 488.361 47.9773 488.88 47.9773H489.324V73.2986L488.435 74.6313L489.324 75.964V79.9621C489.324 84.4045 488.139 86.6257 485.77 86.6257L484.882 84.4045L482.66 84.8487H481.328L477.774 74.1871C478.366 73.8909 478.81 73.7429 479.107 73.7429V73.2986C479.107 72.7063 477.922 72.2621 475.553 71.9659C475.553 71.3736 473.628 69.8928 469.778 67.5236L470.666 66.1909V65.3024C470.148 62.8591 469.556 61.2303 468.889 60.4158V58.1947C468.889 57.6024 469.63 57.3062 471.11 57.3062V58.6389H471.999C472.739 58.6389 473.331 57.4543 473.776 55.085C476.145 53.2341 477.33 51.7533 477.33 50.6427H478.662V51.9754C479.477 51.9754 480.365 51.6792 481.328 51.0869C481.106 49.6802 480.365 48.4956 479.107 47.533C479.847 41.9061 481.92 39.0926 485.326 39.0926ZM424.022 83.9603V84.4045C424.318 84.9968 424.466 85.441 424.466 85.7372H424.91V83.9603H424.022ZM500.874 86.1814H502.207V86.6257C501.911 87.218 501.762 87.6622 501.762 87.9584H502.207C502.725 87.6622 503.317 87.5141 503.984 87.5141C504.724 87.5141 505.168 88.6987 505.316 91.068L503.539 94.1776C502.947 94.1776 502.651 94.6219 502.651 95.5103C502.651 96.9911 503.539 97.7315 505.316 97.7315V112.391L504.872 115.057C505.168 115.575 505.316 116.315 505.316 117.278V122.164C505.316 122.757 505.02 123.053 504.428 123.053H492.878L491.101 121.276H490.212L487.991 123.053H480.439C479.477 123.053 478.736 122.905 478.218 122.609L475.553 123.053H470.222C469.63 123.053 469.333 122.757 469.333 122.164V114.612C469.407 114.02 469.704 113.724 470.222 113.724C470.666 114.909 471.11 115.501 471.555 115.501H471.999C472.813 113.576 475.627 111.947 480.439 110.614C480.439 110.318 481.18 109.874 482.66 109.282C483.845 109.578 484.882 109.726 485.77 109.726C486.362 109.43 486.807 109.282 487.103 109.282V108.837L485.77 107.06C487.251 104.987 488.732 103.951 490.212 103.951C490.212 102.47 491.101 101.73 492.878 101.73V100.841L492.434 98.62C494.655 94.4738 495.987 92.4007 496.432 92.4007H497.764V91.9565L496.432 90.1795C497.468 87.5141 498.949 86.1814 500.874 86.1814ZM416.47 114.612C417.062 114.686 417.358 114.983 417.358 115.501V115.945H416.914C416.321 115.649 415.877 115.501 415.581 115.501C415.655 114.909 415.951 114.612 416.47 114.612ZM499.541 120.387V121.72H500.874C501.318 121.72 501.762 121.276 502.207 120.387C501.614 120.091 501.17 119.943 500.874 119.943C500.282 120.239 499.837 120.387 499.541 120.387ZM555.071 -6.58631e-06H555.959C556.551 0.0740324 556.848 0.370189 556.848 0.888462V2.22116L554.626 1.77693H552.849V2.22116C553.738 3.10963 554.478 4.59041 555.071 6.66351C556.255 6.66351 556.848 6.95966 556.848 7.55197V9.77314C556.848 10.3655 555.811 10.6616 553.738 10.6616C553.738 10.2174 553.294 9.77314 552.405 9.32891C551.739 9.32891 551.147 10.8097 550.628 13.7713L549.74 14.2155L548.407 13.327H547.519C546.926 13.4011 546.63 13.6972 546.63 14.2155V14.6597L548.407 16.4367V17.7694H547.519V16.4367H546.186C545.668 16.4367 545.223 17.177 544.853 18.6578L545.742 19.1021L547.963 18.6578C547.371 20.879 547.074 22.9521 547.074 24.8771V27.9867C547.074 28.5791 546.778 28.8752 546.186 28.8752C546.186 28.2829 545.89 27.9867 545.297 27.9867C544.113 29.2454 543.52 30.43 543.52 31.5406C543.52 32.0589 544.705 33.2435 547.074 35.0945V39.9811H546.186L544.853 39.0926H544.409C544.409 40.7215 545.297 42.2022 547.074 43.5349V44.4234H545.742V45.7561H547.074V46.6446C547.074 47.9032 546.038 49.2359 543.965 50.6427V52.4196C543.965 52.7898 545.001 53.5302 547.074 54.6408V55.5293C547.074 57.01 546.778 57.7504 546.186 57.7504C546.778 58.861 547.074 60.0456 547.074 61.3043V67.5236C547.074 70.4111 546.186 73.5207 544.409 76.8525C544.409 77.1487 545.149 78.1852 546.63 79.9621V80.4064C546.038 82.4795 545.742 83.6641 545.742 83.9603C546.186 83.9603 546.63 84.4045 547.074 85.293V100.841L547.519 105.283L546.63 104.839C546.038 104.913 545.742 105.209 545.742 105.728V106.172C546.926 107.505 547.519 108.541 547.519 109.282H548.851V108.393H549.74C549.74 109.134 552.109 111.355 556.848 115.057V115.945C554.997 117.426 553.96 119.203 553.738 121.276C553.146 122.461 552.701 123.053 552.405 123.053H551.072C551.072 120.98 550.184 119.943 548.407 119.943C545.816 118.166 541.966 117.278 536.857 117.278C536.857 116.686 536.265 116.389 535.08 116.389C534.118 116.982 533.229 117.278 532.415 117.278C524.122 112.465 519.976 108.615 519.976 105.728L520.42 103.951C520.42 102.84 519.088 102.1 516.422 101.73C516.422 102.026 516.274 102.174 515.978 102.174C515.978 101.507 515.09 100.027 513.313 97.7315C511.832 94.918 510.795 92.5488 510.203 90.6238C510.647 90.6238 511.091 90.1795 511.536 89.2911C508.87 86.6997 507.538 83.7381 507.538 80.4064C506.353 76.3342 505.761 70.4111 505.761 62.637V61.7485H506.205L507.538 62.637C508.13 61.6745 508.426 60.786 508.426 59.9716C507.834 59.6754 507.389 59.5274 507.093 59.5274C506.501 59.8235 506.057 59.9716 505.761 59.9716V59.5274C505.983 52.7158 507.167 49.31 509.314 49.31V47.0888L507.538 46.6446C508.648 38.1301 511.314 31.0223 515.534 25.3213C516.126 25.3213 516.422 25.1733 516.422 24.8771L515.978 23.9886C517.977 20.4348 519.458 18.6578 520.42 18.6578C521.309 18.954 521.753 19.2501 521.753 19.5463C522.938 19.2501 523.53 18.3617 523.53 16.8809L523.086 14.6597C526.714 11.402 528.935 9.77314 529.749 9.77314C529.749 10.2174 530.342 10.6616 531.526 11.1058C532.859 7.84813 533.747 6.21927 534.192 6.21927C536.561 5.3308 538.042 4.59041 538.634 3.9981H539.078L540.855 5.3308H542.188C543.076 5.3308 543.52 4.73849 543.52 3.55387C543.224 2.96155 543.076 2.51732 543.076 2.22116L543.965 1.77693L546.186 2.22116C546.186 0.740384 549.147 -6.58631e-06 555.071 -6.58631e-06ZM566.176 0.444228C580.392 4.44234 587.5 7.25582 587.5 8.88468H587.944C588.684 8.88468 590.017 8.14429 591.942 6.66351V6.21927C591.054 6.21927 590.609 5.92312 590.609 5.3308V4.44234C590.683 3.85002 590.98 3.55387 591.498 3.55387H592.386C592.979 3.55387 593.275 3.9981 593.275 4.88657H593.719L595.496 3.55387C596.088 3.85002 596.532 3.9981 596.829 3.9981V6.21927L599.938 7.99621V19.1021C599.198 19.1021 598.457 19.3982 597.717 19.9905C598.161 22.6559 598.902 24.581 599.938 25.7656V43.0907L599.494 43.9792C599.124 43.683 598.383 43.5349 597.273 43.5349C597.273 45.608 596.236 46.9407 594.163 47.533C592.386 46.7927 591.498 45.7561 591.498 44.4234L590.609 44.8676C590.017 44.8676 588.98 41.758 587.5 35.5387C588.462 34.9464 589.203 34.6503 589.721 34.6503V33.7618C588.98 32.1329 587.352 30.6522 584.834 29.3194C583.946 27.5425 582.909 25.7656 581.725 23.9886V23.1002L583.057 21.3232C583.057 21.0271 580.836 19.6944 576.394 17.3251L567.953 10.2174C567.953 10.8097 567.657 11.1058 567.065 11.1058H566.176C565.806 11.1058 565.066 10.3655 563.955 8.88468V3.55387C565.14 1.48077 565.88 0.444228 566.176 0.444228ZM598.606 2.6654H599.494L599.938 4.44234L599.05 4.88657L598.161 4.44234C598.457 3.92406 598.606 3.33175 598.606 2.6654ZM545.742 23.1002C545.742 23.7665 545.594 24.3588 545.297 24.8771L546.186 25.3213V23.1002H545.742ZM594.607 86.6257C598.161 86.9218 599.938 88.5507 599.938 91.5122L599.494 95.9546H598.161C597.865 95.9546 597.717 95.8065 597.717 95.5103C594.163 98.1017 592.386 101.063 592.386 104.395C588.314 107.357 585.353 110.614 583.502 114.168C583.205 114.168 582.169 115.649 580.392 118.611C574.765 121.572 569.73 123.053 565.288 123.053L564.844 122.164L565.288 119.943C564.844 119.943 564.399 119.499 563.955 118.611C565.51 117.87 566.695 116.686 567.509 115.057C570.767 114.02 572.84 112.243 573.728 109.726H574.173C574.469 109.726 574.617 109.874 574.617 110.17C577.652 107.801 579.281 106.616 579.503 106.616L581.28 107.949H582.613C584.982 106.616 586.167 104.543 586.167 101.73C585.575 101.73 585.279 101.433 585.279 100.841C587.352 97.9536 589.277 94.1036 591.054 89.2911C592.386 89.2911 593.571 88.4026 594.607 86.6257ZM589.721 95.0661C589.721 95.5103 590.165 95.9546 591.054 96.3988C591.498 96.3988 591.942 95.9546 592.386 95.0661V92.8449H591.498C591.128 92.8449 590.535 93.5853 589.721 95.0661ZM589.721 97.7315V99.0642H590.609L591.054 96.843H590.609C590.017 96.9171 589.721 97.2132 589.721 97.7315ZM555.071 121.72L555.515 122.609L554.626 123.053L554.182 122.164L555.071 121.72ZM601.493 4.44234H611.71C612.377 4.88657 614.302 5.47888 617.486 6.21927C620.447 8.14429 621.928 11.2539 621.928 15.5482C620.225 17.029 617.708 19.8425 614.376 23.9886L614.82 24.8771V25.3213L612.155 27.0983C612.155 27.2464 611.71 28.8752 610.822 31.9849V32.4291L612.155 34.206C612.155 36.3532 611.414 37.6859 609.934 38.2041L610.378 41.3138C607.12 41.9061 605.491 43.3869 605.491 45.7561H604.603C601.937 44.7936 600.605 43.1647 600.605 40.8695V31.9849C600.605 31.0223 601.493 29.5416 603.27 27.5425C603.566 25.5435 603.714 23.9146 603.714 22.6559C603.714 21.3232 602.678 19.8425 600.605 18.2136V13.327C600.679 12.7347 600.975 12.4385 601.493 12.4385C601.567 13.0309 601.863 13.327 602.382 13.327V11.5501L601.937 9.32891C603.418 8.95872 604.158 8.51448 604.158 7.99621V5.77504H603.714C603.714 6.95966 603.122 7.84813 601.937 8.44044C601.493 8.44044 601.049 7.99621 600.605 7.10774V5.3308C600.679 4.73849 600.975 4.44234 601.493 4.44234ZM631.257 4.44234L633.034 4.88657H636.143C636.143 5.18273 636.291 5.62696 636.588 6.21927L638.809 5.77504H640.141C640.438 5.77504 640.586 5.92312 640.586 6.21927L641.474 5.77504H645.472L647.249 4.44234H668.128C668.721 4.51637 669.017 4.81253 669.017 5.3308V5.77504L666.351 8.88468V11.5501L669.017 13.327V20.4348C669.017 21.1011 668.276 21.5454 666.796 21.7675L667.24 24.8771V25.3213C667.24 26.58 667.092 28.2089 666.796 30.2079C668.276 32.5772 669.017 36.131 669.017 40.8695V41.3138L667.684 43.0907V43.5349L669.017 45.3119V73.2986L666.351 75.5198V77.2967C666.351 77.5929 667.24 78.9256 669.017 81.2948C668.572 82.4795 668.128 83.0718 667.684 83.0718C667.98 86.9959 668.424 89.217 669.017 89.7353V104.839C668.202 105.654 667.61 107.134 667.24 109.282C668.128 114.316 670.497 116.834 674.347 116.834C674.347 117.204 675.828 118.536 678.79 120.832C677.531 122.312 675.754 123.053 673.459 123.053H666.351C665.167 122.461 664.574 121.72 664.574 120.832L663.686 121.276H661.465C661.169 121.276 661.02 121.128 661.02 120.832C659.466 121.35 658.133 122.09 657.022 123.053H655.69C653.617 123.053 652.58 122.016 652.58 119.943H652.136C651.766 122.016 651.321 123.053 650.803 123.053H649.026C647.323 120.684 646.287 119.499 645.916 119.499C644.14 119.499 643.251 120.684 643.251 123.053H640.586C639.845 122.461 639.253 122.164 638.809 122.164C637.846 122.757 636.958 123.053 636.143 123.053C634.514 120.684 633.034 119.499 631.701 119.499H629.036C627.777 120.165 627.037 120.906 626.814 121.72L627.703 122.164H630.368V123.053H627.259C623.038 123.053 620.521 121.868 619.707 119.499C619.707 115.945 621.039 114.168 623.705 114.168C623.705 115.057 624.001 115.501 624.593 115.501H625.926C626.518 115.501 626.814 115.057 626.814 114.168V112.835C629.184 112.835 630.368 110.614 630.368 106.172V92.4007L631.701 90.6238V88.8468L630.368 87.0699V77.2967C630.368 75.7419 631.405 73.8169 633.478 71.5217C633.478 70.9294 633.626 70.6332 633.922 70.6332C633.256 68.5601 632.664 67.5236 632.145 67.5236H631.257V67.9678C631.553 69.5226 631.701 70.4111 631.701 70.6332C631.405 71.2255 631.257 71.6698 631.257 71.9659H630.368V52.8639C631.849 51.6792 632.589 50.6427 632.589 49.7542L632.145 47.0888C633.108 47.0888 633.848 44.8676 634.366 40.4253C632.367 36.5753 631.035 34.6503 630.368 34.6503V33.7618H630.813L632.145 34.6503C633.33 34.206 633.922 33.7618 633.922 33.3176C633.922 30.9483 632.886 29.1714 630.813 27.9867C632.589 27.5425 633.478 26.506 633.478 24.8771L632.589 24.4329C632.071 24.729 631.479 24.8771 630.813 24.8771L630.368 23.9886V5.3308C630.442 4.73849 630.738 4.44234 631.257 4.44234ZM659.688 5.3308C659.688 5.77504 660.132 6.21927 661.02 6.66351L661.909 5.3308C661.317 5.3308 661.02 5.18273 661.02 4.88657C660.428 5.18273 659.984 5.3308 659.688 5.3308ZM678.346 4.44234H691.673C693.82 5.3308 695.893 6.95966 697.892 9.32891C698.484 9.03275 698.928 8.88468 699.225 8.88468V31.9849L698.336 33.3176L699.225 34.6503V35.983L698.336 37.3157V38.6484L699.225 39.9811V40.8695C698.706 44.1273 697.077 45.7561 694.338 45.7561H693.894C693.301 45.7561 693.005 45.46 693.005 44.8676L695.671 42.6465V42.2022C693.005 41.684 691.673 40.4993 691.673 38.6484H690.784L688.563 39.0926L688.119 36.8714C690.192 35.7608 691.228 35.0205 691.228 34.6503C688.267 32.8733 686.786 31.5406 686.786 30.6522C684.639 22.6559 681.233 17.3251 676.569 14.6597V6.66351C677.753 6.66351 678.346 5.92312 678.346 4.44234ZM651.247 5.3308V5.77504C651.321 6.36735 651.618 6.66351 652.136 6.66351H652.58V6.21927C652.58 5.62696 652.284 5.3308 651.692 5.3308H651.247ZM654.357 6.66351L655.245 7.10774C655.69 7.10774 656.134 6.66351 656.578 5.77504H655.245C654.653 5.84908 654.357 6.14523 654.357 6.66351ZM621.928 8.88468H623.261V9.77314H621.928V8.88468ZM696.559 31.9849L697.892 32.8733C697.892 32.5772 698.04 32.1329 698.336 31.5406L697.448 31.0964C696.855 31.1704 696.559 31.4666 696.559 31.9849ZM631.257 96.843V98.1757H632.589C632.589 97.7315 632.145 97.2873 631.257 96.843ZM710.33 4.44234H711.663L712.996 5.3308H713.44L714.773 4.44234H732.542C733.134 4.44234 733.431 5.18273 733.431 6.66351C735.208 6.66351 736.836 5.92312 738.317 4.44234H751.644L752.533 4.88657L752.088 5.77504V7.55197C753.273 7.55197 753.865 7.99621 753.865 8.88468L755.642 7.55197H756.531V9.32891C756.531 12.0684 754.013 13.9934 748.979 15.104C748.09 17.103 747.35 19.9165 746.758 23.5444C747.35 23.6184 747.646 23.9146 747.646 24.4329V43.5349H747.202L744.981 43.0907V43.5349L746.758 47.0888C746.165 48.0513 745.869 48.9398 745.869 49.7542C746.313 49.7542 746.758 50.1985 747.202 51.0869L744.981 52.8639V57.3062L747.646 57.7504V107.505H747.202L745.869 106.616H744.981L744.536 108.837L746.758 111.947C746.165 111.947 745.869 112.391 745.869 113.28C745.869 114.316 748.09 115.649 752.533 117.278L752.977 119.943H755.198C755.79 120.017 756.087 120.313 756.087 120.832C755.272 121.572 753.495 122.016 750.756 122.164C750.756 121.868 750.608 121.72 750.311 121.72C750.163 122.609 748.979 123.053 746.758 123.053H742.315V122.609C742.908 121.646 743.204 120.906 743.204 120.387L742.315 119.943C739.946 120.832 738.317 121.276 737.429 121.276L738.317 122.609L737.429 123.053H726.323V122.609L727.211 120.832C726.249 120.239 725.36 119.943 724.546 119.943H720.104C719.511 120.017 719.215 120.313 719.215 120.832C718.919 120.832 718.475 120.684 717.882 120.387L714.773 120.832C714.18 120.536 713.736 120.387 713.44 120.387C712.996 121.572 712.552 122.164 712.107 122.164L709.886 119.943C709.294 120.017 708.998 120.313 708.998 120.832V122.164H710.775V123.053H705.888C702.038 122.683 700.113 121.202 700.113 118.611V118.166C700.113 115.279 702.63 113.502 707.665 112.835C707.961 112.835 708.109 112.984 708.109 113.28C708.628 113.28 709.812 111.799 711.663 108.837C711.071 106.912 710.775 105.728 710.775 105.283C711.071 104.691 711.219 104.247 711.219 103.951C709.738 103.581 708.998 103.136 708.998 102.618V100.397C709.886 97.7315 710.923 95.6584 712.107 94.1776L712.552 92.4007C712.255 92.4007 712.107 92.2526 712.107 91.9565C710.627 92.3267 709.886 92.919 709.886 93.7334H708.998V27.9867C708.998 27.6906 709.146 27.5425 709.442 27.5425L708.998 26.654V23.1002C708.998 22.2857 709.294 21.3973 709.886 20.4348C709.516 20.4348 708.628 17.9174 707.221 12.8828H705.888C705.888 13.7713 705.592 14.2155 705 14.2155C701.742 13.4011 700.113 11.7722 700.113 9.32891V8.88468C700.113 5.92312 703.519 4.44234 710.33 4.44234ZM744.981 21.3232C745.055 21.9155 745.351 22.2117 745.869 22.2117L746.313 21.3232H744.981ZM746.758 53.3081C747.35 53.3821 747.646 53.6783 747.646 54.1966V54.6408C747.646 55.2331 747.35 55.5293 746.758 55.5293C746.165 55.5293 745.869 55.2331 745.869 54.6408V54.1966C745.943 53.6042 746.239 53.3081 746.758 53.3081ZM755.198 116.834H756.531V118.166H756.087C755.494 118.166 755.198 117.87 755.198 117.278V116.834ZM814.503 -6.58631e-06H814.948L819.39 0.444228C819.39 1.25866 819.094 2.14713 818.501 3.10963L819.834 3.9981C822.796 3.77598 824.277 2.88752 824.277 1.3327C827.83 1.85097 829.607 3.47983 829.607 6.21927H833.161V6.66351H832.273V7.10774C832.273 7.47794 833.457 8.51448 835.827 10.2174H837.159C837.455 10.2174 838.64 9.92122 840.713 9.32891C840.935 10.8097 841.676 11.5501 842.934 11.5501L842.49 14.6597C846.118 19.9905 849.228 22.6559 851.819 22.6559C853.004 22.804 853.596 23.2482 853.596 23.9886C852.411 25.2473 851.819 26.4319 851.819 27.5425C857.15 32.0589 859.815 35.7608 859.815 38.6484C859.519 39.5368 859.223 39.9811 858.927 39.9811C861 43.1647 862.036 46.5705 862.036 50.1985C861.444 51.161 861.148 52.0494 861.148 52.8639V53.7523C862.333 53.7523 862.925 54.6408 862.925 56.4177V66.1909C860.852 67.7457 859.815 68.7822 859.815 69.3005V69.7448C859.815 70.4111 859.963 71.0034 860.259 71.5217C859.667 72.4842 859.371 73.3727 859.371 74.1871V78.1852C857.89 79.74 857.15 80.9247 857.15 81.7391C857.15 82.5535 858.186 83.2939 860.259 83.9603C859.075 86.9959 858.483 88.9209 858.483 89.7353H857.15V89.2911L857.594 86.1814L856.706 85.7372H856.261C855.965 88.1805 855.521 90.2536 854.929 91.9565L856.261 94.1776C855.077 97.7315 853.3 99.5084 850.931 99.5084C849.154 100.397 848.265 101.582 848.265 103.062V103.951C849.154 103.951 849.598 104.099 849.598 104.395C849.154 105.58 848.709 106.172 848.265 106.172H847.821C847.821 104.987 847.525 104.395 846.932 104.395L846.488 105.283L846.932 107.505C845.97 107.505 845.081 108.541 844.267 110.614C842.194 112.391 840.565 113.28 839.38 113.28V112.835H838.492L837.159 113.724L837.604 114.612V115.057C829.755 120.387 821.907 123.053 814.059 123.053L813.615 122.164V115.057C814.8 114.242 815.392 113.502 815.392 112.835H817.613L818.501 112.391L818.057 111.503L821.611 105.283C822.796 105.283 823.388 104.247 823.388 102.174L824.277 100.841C823.684 100.841 823.388 100.397 823.388 99.5084L822.055 100.397H821.611V72.4102C822.129 68.9303 822.722 66.8572 823.388 66.1909V65.3024C822.203 65.3024 821.611 65.0063 821.611 64.4139C821.611 64.1178 822.351 63.5255 823.832 62.637C823.832 62.2668 823.092 61.5264 821.611 60.4158V54.1966C821.611 47.6811 822.5 44.4234 824.277 44.4234L823.388 43.0907L822.5 43.5349H821.611V20.879C821.611 15.104 819.094 11.2539 814.059 9.32891C813.763 9.32891 813.615 9.18083 813.615 8.88468V7.10774C813.689 6.51543 813.985 6.21927 814.503 6.21927C814.577 6.81158 814.874 7.10774 815.392 7.10774H815.836V5.3308C814.355 4.29426 813.615 2.81348 813.615 0.888462C813.689 0.29615 813.985 -6.58631e-06 814.503 -6.58631e-06ZM800.732 4.44234H803.842V5.3308C798.807 9.10679 796.29 12.2164 796.29 14.6597V15.104H796.734L797.622 14.6597L798.955 16.4367V18.2136H798.511L797.178 17.3251H796.734C796.29 17.3251 795.846 17.7694 795.401 18.6578V19.9905L795.846 20.879C796.808 20.2867 797.548 19.9905 798.067 19.9905L798.511 20.879V24.4329L798.067 25.3213L797.178 24.8771C795.994 24.8771 795.105 27.3944 794.513 32.4291C794.809 36.7234 795.105 39.0926 795.401 39.5368L794.957 42.2022V46.2003L795.401 49.31H794.957C795.549 50.4946 795.846 51.5312 795.846 52.4196H796.734L797.622 51.9754C798.215 52.9379 798.511 53.8264 798.511 54.6408V56.862C796.438 59.8976 795.401 61.8226 795.401 62.637C795.994 64.7101 796.29 65.8947 796.29 66.1909C795.697 68.8563 795.401 70.7813 795.401 71.9659V74.1871C796.142 74.8534 797.03 76.7785 798.067 79.9621C798.363 79.9621 798.511 80.1102 798.511 80.4064V95.0661C796.734 96.3248 795.846 97.8055 795.846 99.5084C796.29 99.5084 796.734 99.9527 797.178 100.841C797.178 101.063 796.438 101.804 794.957 103.062C796.438 106.912 797.474 108.837 798.067 108.837C798.955 108.837 800.732 110.022 803.397 112.391C805.471 113.058 806.507 113.65 806.507 114.168V118.166L806.063 119.055L805.174 118.611H804.286L802.953 119.499L799.844 119.055C799.399 119.055 798.659 119.943 797.622 121.72C795.401 121.128 794.069 120.832 793.624 120.832L794.069 118.611C792.958 117.204 791.033 115.871 788.294 114.612H787.849L785.184 117.278C780.742 114.39 777.188 111.577 774.522 108.837V108.393L775.411 107.06V106.616C774.522 104.765 772.893 102.692 770.524 100.397H767.415C763.861 94.844 762.084 90.994 762.084 88.8468C761.491 88.8468 761.195 88.5507 761.195 87.9584V86.1814C762.38 86.1814 762.972 85.5891 762.972 84.4045C762.602 80.5545 762.01 78.6294 761.195 78.6294L761.639 76.4083C761.639 74.8534 760.307 73.3727 757.641 71.9659C757.345 68.1159 757.197 65.0063 757.197 62.637V58.1947C757.197 57.6024 757.938 57.3062 759.418 57.3062C759.122 53.8264 758.678 51.4571 758.086 50.1985C758.086 48.4215 758.53 45.608 759.418 41.758H760.307C760.307 42.6465 760.603 43.0907 761.195 43.0907L761.639 39.9811L760.307 38.2041C763.194 29.8377 765.564 24.9511 767.415 23.5444L768.303 23.9886C770.672 23.9886 771.857 22.6559 771.857 19.9905C770.672 19.9905 770.08 19.5463 770.08 18.6578C777.558 11.0318 782.593 6.73754 785.184 5.77504H786.517V6.21927C786.22 6.81158 786.072 7.25582 786.072 7.55197H786.517C787.035 7.25582 787.627 7.10774 788.294 7.10774L790.07 7.55197L800.732 4.44234ZM804.73 7.55197C804.73 8.14429 805.174 8.44044 806.063 8.44044V9.77314C805.841 9.77314 804.952 9.92122 803.397 10.2174V8.88468C803.397 8.44044 803.842 7.99621 804.73 7.55197ZM758.086 60.8601V61.7485C758.16 62.3409 758.456 62.637 758.974 62.637L759.418 61.7485C759.418 61.1562 759.122 60.8601 758.53 60.8601H758.086ZM805.174 121.72H805.619C806.211 121.794 806.507 122.09 806.507 122.609L805.619 123.053H804.286V122.609C804.36 122.016 804.656 121.72 805.174 121.72ZM871.81 4.44234H890.467V4.88657C890.171 5.47888 890.023 5.92312 890.023 6.21927C890.986 6.81158 891.874 7.10774 892.689 7.10774L893.133 6.21927C892.837 5.701 892.689 5.10869 892.689 4.44234H897.131L898.908 7.10774L902.017 7.55197V5.3308C902.092 4.73849 902.388 4.44234 902.906 4.44234H906.016V4.88657L905.127 6.21927C906.756 7.70005 909.273 8.44044 912.679 8.44044V6.66351L912.235 5.77504L913.123 5.3308H913.568C913.568 5.99715 914.752 8.21833 917.121 11.9943L916.233 13.327C916.529 15.6963 916.973 17.3251 917.566 18.2136L919.787 17.7694C920.601 17.7694 921.786 19.6944 923.341 23.5444C922.748 23.6184 922.452 23.9146 922.452 24.4329C923.711 24.4329 924.599 26.506 925.118 30.6522L928.672 34.206C928.672 36.057 929.412 37.6859 930.893 39.0926C930.967 38.5003 931.263 38.2041 931.781 38.2041C934.15 41.2397 935.335 43.4609 935.335 44.8676C935.335 45.534 934.891 46.4225 934.002 47.533V47.9773C934.15 48.7177 935.779 51.235 938.889 55.5293C939.703 58.0466 941.776 59.8235 945.108 60.8601C952.216 73.0765 955.77 79.4439 955.77 79.9621C957.843 82.5535 958.879 84.4785 958.879 85.7372L957.991 87.0699C958.583 87.1439 958.879 87.4401 958.879 87.9584V101.73L956.658 103.507V103.951H957.547L958.435 103.507L958.879 104.395V110.17C958.879 110.466 958.731 110.614 958.435 110.614L958.879 111.503V111.947C956.214 114.094 954.881 116.463 954.881 119.055C954.067 119.351 952.438 120.684 949.995 123.053H948.218C947.626 123.053 947.329 122.461 947.329 121.276H946.441V123.053H942.443L940.666 121.72C940.074 122.016 939.629 122.164 939.333 122.164L932.67 118.611L931.781 117.278V116.389H933.114V115.945C931.855 115.945 930.078 114.02 927.783 110.17C928.968 109.874 929.56 109.282 929.56 108.393C928.746 105.728 927.857 104.099 926.895 103.507H926.006L925.562 105.283H924.673C924.673 104.839 922.748 101.433 918.898 95.0661V93.7334C918.454 93.7334 918.01 93.2892 917.566 92.4007C917.566 91.9565 918.158 91.3642 919.343 90.6238C919.343 88.6247 917.566 87.4401 914.012 87.0699C913.42 85.367 911.346 81.665 907.793 75.964V75.5198H908.237C910.088 77.2967 911.42 78.1852 912.235 78.1852V77.741C910.828 73.8909 909.347 71.9659 907.793 71.9659H906.904C906.312 72.2621 905.868 72.4102 905.571 72.4102C903.498 68.4861 902.462 66.413 902.462 66.1909H902.906C903.794 66.1909 904.239 65.8947 904.239 65.3024C904.239 64.562 903.646 64.1178 902.462 63.9697C901.869 64.2659 901.425 64.4139 901.129 64.4139V63.9697C901.721 62.8591 902.017 61.6745 902.017 60.4158C898.908 60.4158 895.798 56.5658 892.689 48.8658C893.281 48.8658 893.577 48.5696 893.577 47.9773C891.726 47.9773 890.541 47.0888 890.023 45.3119C888.839 43.3128 888.246 42.1282 888.246 41.758L888.69 40.8695C888.394 40.2772 888.246 39.833 888.246 39.5368L887.358 39.9811C886.765 39.9811 886.173 38.9445 885.581 36.8714C886.099 36.5753 886.691 36.4272 887.358 36.4272C885.877 33.7618 884.396 32.4291 882.915 32.4291H882.471L882.915 29.3194V28.431H882.027L880.694 29.3194C880.694 28.9493 879.51 26.8762 877.14 23.1002V22.6559H878.029L878.917 23.1002L879.362 22.2117V21.3232H878.029L876.696 22.2117C873.957 16.8809 870.995 14.2155 867.811 14.2155C865.146 13.1789 863.813 11.6982 863.813 9.77314V9.32891C863.813 6.07119 866.479 4.44234 871.81 4.44234ZM941.999 4.44234H942.443V5.3308C941.554 5.3308 941.11 5.62696 941.11 6.21927C942.295 6.29331 942.887 6.58947 942.887 7.10774C943.405 6.81158 943.998 6.66351 944.664 6.66351V6.21927L943.776 4.88657V4.44234H951.327C953.549 6.51543 955.326 7.55197 956.658 7.55197C957.473 5.47888 958.065 4.44234 958.435 4.44234H964.21C969.541 4.44234 972.206 5.92312 972.206 8.88468V9.32891C972.206 11.476 970.43 13.253 966.876 14.6597C966.283 14.3636 965.839 14.2155 965.543 14.2155C964.951 16.0665 964.21 17.103 963.322 17.3251H962.878L961.545 16.4367C957.991 18.3617 956.214 21.1752 956.214 24.8771V25.7656C957.695 25.7656 958.435 26.654 958.435 28.431C957.991 28.431 957.399 29.0233 956.658 30.2079V31.5406L958.879 33.3176V39.5368L957.991 40.8695C958.583 41.832 958.879 42.7205 958.879 43.5349V44.4234C958.879 45.3119 958.139 45.7561 956.658 45.7561V47.9773C957.843 47.9773 958.435 48.2734 958.435 48.8658C957.843 48.9398 957.547 49.2359 957.547 49.7542V50.1985C958.435 50.1985 958.879 50.6427 958.879 51.5312C958.879 52.4937 958.731 53.2341 958.435 53.7523C958.731 55.3812 958.879 56.7139 958.879 57.7504V62.637H957.547V63.9697L958.879 65.7466V69.7448H958.435C958.139 69.7448 955.178 65.0063 949.551 55.5293V54.6408L950.439 53.3081C949.847 53.3081 949.551 53.0119 949.551 52.4196V49.7542L951.327 47.9773C951.327 47.2369 950.735 46.7927 949.551 46.6446V37.3157L950.883 35.5387V34.206H949.551V27.9867C949.625 27.3944 949.921 27.0983 950.439 27.0983L951.772 27.9867H952.66L951.772 26.654C951.772 25.1733 952.068 24.4329 952.66 24.4329C951.55 21.5454 950.661 20.0646 949.995 19.9905H949.551L947.329 20.4348C947.329 19.3982 945.849 17.6213 942.887 15.104V14.6597L945.108 15.104H945.552V13.7713C945.552 13.327 945.108 12.8828 944.22 12.4385C942.591 12.4385 941.406 12.8828 940.666 13.7713C938 12.7347 936.668 11.2539 936.668 9.32891C936.668 6.07119 938.445 4.44234 941.999 4.44234ZM968.653 9.32891V9.77314C968.727 10.3655 969.023 10.6616 969.541 10.6616L969.985 9.77314V8.44044H969.541C968.949 8.51448 968.653 8.81064 968.653 9.32891ZM965.987 12.4385L966.876 12.8828C968.06 12.4385 968.653 11.9943 968.653 11.5501V11.1058C966.876 11.2539 965.987 11.6982 965.987 12.4385ZM955.77 37.7599C956.066 38.2782 956.214 38.8705 956.214 39.5368H957.103L957.547 37.3157C957.251 36.7234 957.103 36.2791 957.103 35.983C956.658 35.983 956.214 36.5753 955.77 37.7599ZM876.696 36.4272H877.14C879.806 39.6849 881.138 42.0542 881.138 43.5349H878.917C878.547 43.5349 877.807 42.7946 876.696 41.3138V36.4272ZM883.804 46.6446C885.285 48.8658 886.025 50.4946 886.025 51.5312V57.3062C886.025 58.3427 885.877 59.6754 885.581 61.3043V63.9697H884.692V64.8582H886.025V84.8487L884.248 87.0699C884.692 87.0699 885.285 87.6622 886.025 88.8468V99.9527C886.025 100.619 885.433 101.952 884.248 103.951C884.544 105.728 884.989 106.616 885.581 106.616H886.025C886.025 106.32 886.173 105.876 886.469 105.283L886.025 103.062H886.914C886.914 107.209 890.467 111.207 897.575 115.057V115.501C896.687 115.501 896.242 115.797 896.242 116.389L897.575 117.278C897.575 116.389 897.871 115.945 898.464 115.945C899.056 116.908 899.352 117.796 899.352 118.611C899.352 121.572 897.131 123.053 892.689 123.053H871.365C866.331 123.053 863.813 121.572 863.813 118.611C863.813 116.76 864.998 115.279 867.367 114.168C867.886 114.464 868.478 114.612 869.144 114.612C870.107 113.65 871.439 112.91 873.142 112.391L872.698 110.614C875.586 104.469 877.214 101.359 877.585 101.285C876.992 100.323 876.696 99.4344 876.696 98.62V92.4007C876.844 91.8084 877.585 91.2161 878.917 90.6238C879.213 91.142 879.362 91.8824 879.362 92.8449H880.25V92.4007C880.102 89.7353 879.658 88.4026 878.917 88.4026L877.14 89.2911L876.696 88.4026V81.7391L879.806 80.8506V76.8525C879.806 75.2977 879.362 74.4092 878.473 74.1871C878.473 74.6313 878.029 75.0756 877.14 75.5198H876.696V67.9678H877.585C877.585 69.1524 878.029 69.7448 878.917 69.7448L879.806 68.4121C879.806 63.9697 878.769 59.0831 876.696 53.7523C878.547 52.2715 879.584 50.4946 879.806 48.4215C881.583 48.4215 882.915 47.8292 883.804 46.6446ZM956.214 53.3081V54.6408H956.658C957.251 54.6408 957.547 54.3446 957.547 53.7523V53.3081H956.214ZM876.696 78.6294H877.585V79.9621H876.696V78.6294ZM882.471 90.6238L882.027 92.8449C882.323 94.3998 882.471 95.2882 882.471 95.5103H883.36L884.692 94.1776C883.952 91.8084 883.36 90.6238 882.915 90.6238H882.471ZM877.585 95.5103L878.029 98.1757H879.362L879.806 95.9546V95.5103H877.585ZM883.804 96.843L883.36 97.7315L884.692 98.62L885.137 97.7315L883.804 96.843ZM1011.08 -6.58631e-06H1012.41C1013 0.0740324 1013.3 0.370189 1013.3 0.888462L1012.41 1.3327H1011.97C1011.37 1.3327 1011.08 1.03654 1011.08 0.444228V-6.58631e-06ZM1009.3 0.444228H1009.74V0.888462C1009.45 1.48077 1009.3 1.92501 1009.3 2.22116C1010.19 2.22116 1010.78 3.9981 1011.08 7.55197C1012.56 7.92217 1013.3 8.3664 1013.3 8.88468V9.32891C1013.3 9.92122 1011.37 10.8097 1007.52 11.9943L1007.08 11.1058L1007.97 9.77314V9.32891H1006.19C1006.19 11.328 1004.86 12.6607 1002.19 13.327L1001.75 15.5482C1002.93 15.6963 1003.52 16.1405 1003.52 16.8809C1002.93 18.954 1002.64 20.7309 1002.64 22.2117V23.1002C1002.64 27.0242 1005.15 30.8743 1010.19 34.6503V35.5387L1009.3 36.8714L1010.19 38.2041L1012.41 36.8714C1013.37 38.1301 1014.56 38.8705 1015.96 39.0926C1015.96 41.758 1018.33 43.5349 1023.07 44.4234C1025.22 45.46 1028.18 46.3484 1031.96 47.0888C1031.96 47.385 1032.1 47.533 1032.4 47.533C1033.58 46.6446 1034.47 46.2003 1035.07 46.2003C1040.25 48.5696 1044.54 51.6792 1047.95 55.5293V56.4177L1047.5 57.3062C1048.69 57.5283 1049.28 57.8245 1049.28 58.1947L1050.17 57.7504C1050.61 57.7504 1051.06 58.1947 1051.5 59.0831V59.9716L1049.28 59.5274L1048.84 60.4158C1048.84 61.3783 1049.87 62.4149 1051.95 63.5255C1052.39 62.3409 1052.83 61.7485 1053.28 61.7485H1053.72C1054.32 63.0072 1054.61 64.0438 1054.61 64.8582H1052.83V65.7466C1053.65 67.2274 1054.24 67.9678 1054.61 67.9678H1055.06V65.7466H1055.94L1056.83 68.4121C1055.65 68.8563 1055.06 69.3005 1055.06 69.7448V71.9659L1055.5 74.1871H1055.06C1056.83 78.7775 1057.72 81.591 1057.72 82.6275C1056.83 84.5526 1056.39 85.8853 1056.39 86.6257V87.9584C1057.43 89.7353 1058.17 90.6238 1058.61 90.6238C1058.02 93.8815 1057.28 95.5103 1056.39 95.5103L1056.83 96.3988V97.2873H1056.39C1055.8 97.2873 1055.5 96.9911 1055.5 96.3988C1054.46 96.3988 1052.83 98.4719 1050.61 102.618H1050.17V107.505C1049.36 109.134 1047.28 111.207 1043.95 113.724H1043.51L1042.17 112.835C1040.62 112.835 1039.73 114.168 1039.51 116.834C1032.77 120.091 1027.44 121.868 1023.52 122.164V121.72C1022.55 122.312 1021.81 122.609 1021.29 122.609C1018.7 122.609 1016.93 119.499 1015.96 113.28C1025.14 111.059 1029.73 106.468 1029.73 99.5084V98.62C1029.73 93.8815 1026.03 89.4391 1018.63 85.293C1018.63 84.4045 1016.56 83.3679 1012.41 82.1833C1013 81.2208 1013.3 80.3323 1013.3 79.5179L1011.08 79.0737H1010.63C1010.63 80.5545 1010.34 81.2948 1009.74 81.2948C1001.16 77.6669 996.861 75.4458 996.861 74.6313L997.75 73.2986H996.861C995.899 73.8909 995.159 74.1871 994.64 74.1871C994.048 73.8909 993.604 73.7429 993.308 73.7429V71.5217H994.196L995.529 72.4102H995.973V71.5217C995.455 71.5217 993.53 70.189 990.198 67.5236H987.533V68.4121H986.644C984.867 67.3755 983.979 66.6351 983.979 66.1909L984.423 63.9697C982.942 61.1562 981.609 59.6754 980.425 59.5274C980.129 59.5274 979.981 59.6754 979.981 59.9716C979.981 60.5639 979.684 60.8601 979.092 60.8601C977.907 59.0831 977.315 57.7504 977.315 56.862L979.536 56.4177H979.981V57.7504H980.425V56.862C979.314 53.6042 977.833 51.9754 975.982 51.9754V52.4196C975.982 52.6417 976.131 53.5302 976.427 55.085C974.946 53.3081 974.206 51.3831 974.206 49.31L976.427 47.9773C976.427 47.0148 975.242 45.3859 972.873 43.0907V37.7599C974.946 37.7599 975.982 36.4272 975.982 33.7618V32.8733L975.094 31.5406V31.0964L976.427 29.3194V27.9867H976.871V27.0983C976.205 27.0983 975.76 26.2098 975.538 24.4329C976.279 22.3598 976.871 21.3232 977.315 21.3232H978.204C978.204 22.2117 978.5 22.6559 979.092 22.6559L979.536 21.7675C978.944 21.4713 978.5 21.3232 978.204 21.3232V19.9905C978.204 17.7694 981.461 13.7713 987.977 7.99621C991.309 5.3308 994.566 3.9981 997.75 3.9981L997.306 3.10963C1002.41 1.3327 1006.41 0.444228 1009.3 0.444228ZM1020.85 0.444228H1023.52L1025.29 1.77693C1025.37 1.18462 1025.66 0.888462 1026.18 0.888462C1027.51 0.888462 1028.4 1.77693 1028.85 3.55387C1028.55 4.14618 1028.4 4.59041 1028.4 4.88657H1030.62C1031.59 5.77504 1032.33 6.21927 1032.84 6.21927C1033.44 5.92312 1033.88 5.77504 1034.18 5.77504V5.3308L1032.84 3.55387V3.10963H1033.29C1036.84 3.9981 1038.62 4.88657 1038.62 5.77504L1039.51 5.3308C1040.62 5.92312 1041.95 6.21927 1043.51 6.21927C1043.88 6.21927 1045.8 4.44234 1049.28 0.888462H1049.73C1053.28 0.888462 1055.06 2.81348 1055.06 6.66351V8.88468L1053.72 10.6616V11.1058L1055.06 12.8828V36.4272C1053.5 37.8339 1052.46 39.1666 1051.95 40.4253C1052.54 40.4993 1052.83 40.7955 1052.83 41.3138C1051.87 41.9061 1050.98 42.2022 1050.17 42.2022H1049.73C1048.1 42.2022 1046.91 41.6099 1046.17 40.4253V39.9811H1046.62L1047.95 40.8695H1049.73V39.9811C1045.88 39.0926 1043.95 36.8714 1043.95 33.3176C1043.21 32.5031 1042.77 31.0223 1042.62 28.8752V27.9867H1041.73V27.0983C1042.62 27.0983 1043.06 26.8021 1043.06 26.2098V25.3213C1043.06 24.8771 1042.62 24.4329 1041.73 23.9886L1039.51 24.4329C1039.51 22.73 1035.66 18.7319 1027.96 12.4385V10.6616C1027.66 10.6616 1027.51 10.5135 1027.51 10.2174L1024.4 10.6616H1023.07C1022.48 10.6616 1022.18 10.3655 1022.18 9.77314C1022.18 6.73754 1022.63 4.66445 1023.52 3.55387V3.10963C1023.52 2.6654 1023.07 2.22116 1022.18 1.77693L1020.41 3.10963H1019.96V1.3327C1020.04 0.740384 1020.33 0.444228 1020.85 0.444228ZM1005.3 2.6654C1005.6 3.25771 1005.75 3.70194 1005.75 3.9981H1006.63C1007.23 3.9981 1007.52 3.70194 1007.52 3.10963V2.22116C1007.52 1.62885 1007.23 1.3327 1006.63 1.3327H1006.19C1005.6 1.3327 1005.3 1.77693 1005.3 2.6654ZM999.971 20.879L999.527 21.7675L1000.42 24.8771H1001.3V22.2117C1001.3 21.7675 1000.86 21.3232 999.971 20.879ZM985.756 64.8582V66.6351H986.644V64.8582H985.756ZM978.648 79.5179H980.869C981.757 79.5179 983.09 83.2199 984.867 90.6238H983.979L984.423 93.7334H984.867C984.867 92.8449 985.163 92.4007 985.756 92.4007C986.422 92.4007 987.31 94.1776 988.421 97.7315L986.644 99.0642C986.644 101.211 988.421 102.544 991.975 103.062H993.308V103.951C992.345 103.951 991.605 104.099 991.086 104.395C992.049 106.912 993.826 108.985 996.417 110.614L998.638 108.837C1001.82 110.91 1005.08 112.391 1008.41 113.28L1008.86 114.168V118.166C1008.86 118.759 1008.12 119.055 1006.63 119.055V119.943C1006.63 120.165 1007.37 120.906 1008.86 122.164C1008.86 122.757 1008.41 123.053 1007.52 123.053C997.158 121.424 991.975 119.647 991.975 117.722L992.419 115.501C990.79 115.205 989.458 114.612 988.421 113.724H984.867C984.423 113.724 983.979 114.168 983.534 115.057V115.945C984.423 115.945 984.867 116.241 984.867 116.834C981.017 120.387 978.796 122.164 978.204 122.164H977.315C974.354 122.164 972.873 119.647 972.873 114.612V107.06L975.538 105.283V99.0642C975.538 98.4719 975.242 98.1757 974.65 98.1757H974.206C974.206 98.7681 974.057 99.0642 973.761 99.0642L974.206 99.9527V100.841C974.206 101.433 973.909 101.73 973.317 101.73L972.873 100.841V87.9584C972.873 87.292 973.021 86.6997 973.317 86.1814C973.021 85.6631 972.873 85.0708 972.873 84.4045C974.576 82.0352 976.205 80.8506 977.759 80.8506C977.759 79.9621 978.056 79.5179 978.648 79.5179ZM974.206 94.1776V96.3988H974.65C975.242 96.3988 975.538 96.1027 975.538 95.5103C975.538 95.0661 975.094 94.6219 974.206 94.1776ZM1053.72 101.73H1054.17V102.174C1053.58 102.914 1053.28 103.507 1053.28 103.951H1052.39V103.507C1052.83 102.322 1053.28 101.73 1053.72 101.73Z" fill="#453E16"/>
</svg>
