<svg width="190" height="57" viewBox="0 0 190 57" fill="none" xmlns="http://www.w3.org/2000/svg">
<path fill-rule="evenodd" clip-rule="evenodd" d="M98.3676 24.7057L98.3844 7.85545L95.3147 4.78569L46.0766 4.74371L43.0027 7.80937L42.9901 24.6596L46.0556 27.7336L95.2937 27.7754L98.3676 24.7057Z" stroke="black" stroke-width="2.0981" stroke-miterlimit="22.9256"/>
<path fill-rule="evenodd" clip-rule="evenodd" d="M98.3677 24.7057L98.3804 7.85551L95.3147 4.78575L46.0767 4.74377L43.0027 7.80943L42.986 24.6597L46.0557 27.7294L95.2937 27.7755L98.3677 24.7057Z" fill="#333333"/>
<path fill-rule="evenodd" clip-rule="evenodd" d="M90.4671 28.2999L90.4924 4.15265L87.4226 1.07867L75.4664 1.06613L72.3966 4.13589L72.3756 28.2831L75.4413 31.3529L87.3932 31.3655L90.4671 28.2999Z" stroke="black" stroke-width="2.0981" stroke-miterlimit="22.9256"/>
<path fill-rule="evenodd" clip-rule="evenodd" d="M90.4672 28.2998L90.4882 4.15262L87.4185 1.07864L75.4622 1.0661L72.3924 4.13585L72.3715 28.2831L75.4413 31.3528L87.3932 31.3613L90.4672 28.2998Z" fill="#4D4D4D"/>
<path d="M87.4062 1.07022H75.4542V31.3569H87.4062V1.07022Z" fill="#666666"/>
<path d="M85.6911 3.16302H77.1947V4.77341H85.6911V3.16302Z" fill="black"/>
<path d="M85.687 5.96017H77.1906V7.57056H85.687V5.96017Z" fill="black"/>
<path d="M85.6912 8.75732H77.1906V10.3677H85.6912V8.75732Z" fill="black"/>
<path d="M77.1875 11.5433L77.1854 13.1578L85.6818 13.1689L85.6839 11.5544L77.1875 11.5433Z" fill="black"/>
<path fill-rule="evenodd" clip-rule="evenodd" d="M68.2068 28.2789L68.2278 4.13164L65.1579 1.05767L53.2061 1.04935L50.1321 4.11488L50.1111 28.2621L53.1808 31.3361L65.1329 31.3487L68.2068 28.2789Z" stroke="black" stroke-width="2.0981" stroke-miterlimit="22.9256"/>
<path fill-rule="evenodd" clip-rule="evenodd" d="M68.2067 28.2789L68.2277 4.13165L65.1578 1.05768L53.2059 1.04514L50.132 4.11067L50.111 28.258L53.1807 31.332L65.137 31.3445L68.2067 28.2789Z" fill="#4D4D4D"/>
<path d="M65.1448 1.05334H53.1927V31.3401H65.1448V1.05334Z" fill="#666666"/>
<path d="M54.9333 3.13332L54.9312 4.74792L63.4274 4.75897L63.4295 3.14436L54.9333 3.13332Z" fill="black"/>
<path d="M54.9282 5.93316L54.9261 7.54355L63.4268 7.5546L63.4289 5.94421L54.9282 5.93316Z" fill="black"/>
<path d="M63.4226 8.73633H54.9261V10.3466H63.4226V8.73633Z" fill="black"/>
<path d="M54.9231 11.5254L54.921 13.1358L63.4174 13.1469L63.4195 11.5365L54.9231 11.5254Z" fill="black"/>
<path fill-rule="evenodd" clip-rule="evenodd" d="M146.734 24.7057L146.746 7.85551L143.681 4.78575L94.4424 4.74377L91.3685 7.80943L91.3517 24.6597L94.4216 27.7337L143.66 27.7755L146.734 24.7057Z" stroke="black" stroke-width="2.0981" stroke-miterlimit="22.9256"/>
<path fill-rule="evenodd" clip-rule="evenodd" d="M146.734 24.7058L146.746 7.85554L143.681 4.78578L94.4425 4.7438L91.3727 7.80946L91.356 24.6597L94.4216 27.7295L143.66 27.7755L146.734 24.7058Z" fill="#333333"/>
<path fill-rule="evenodd" clip-rule="evenodd" d="M138.837 28.2998L138.858 4.15262L135.788 1.07864L123.836 1.0661L120.762 4.13585L120.741 28.2831L123.807 31.3528L135.763 31.3655L138.837 28.2998Z" stroke="black" stroke-width="2.0981" stroke-miterlimit="22.9256"/>
<path fill-rule="evenodd" clip-rule="evenodd" d="M138.837 28.2998L138.858 4.15262L135.792 1.07864L123.836 1.0661L120.762 4.13585L120.741 28.2831L123.807 31.3528L135.763 31.3613L138.837 28.2998Z" fill="#4D4D4D"/>
<path d="M135.775 1.07022H123.819V31.3569H135.775V1.07022Z" fill="#666666"/>
<path d="M125.61 3.19245L125.608 4.8027L134.104 4.81375L134.106 3.20349L125.61 3.19245Z" fill="black"/>
<path d="M125.513 5.91781L125.51 7.5282L134.007 7.53924L134.009 5.92886L125.513 5.91781Z" fill="black"/>
<path d="M125.606 8.78662L125.604 10.397L134.1 10.408L134.102 8.79766L125.606 8.78662Z" fill="black"/>
<path d="M134.048 11.555H125.551V13.1695H134.048V11.555Z" fill="black"/>
<path fill-rule="evenodd" clip-rule="evenodd" d="M116.568 28.2789L116.594 4.13164L113.524 1.05767L101.572 1.04935L98.4978 4.11488L98.4768 28.2621L101.542 31.3361L113.499 31.3487L116.568 28.2789Z" stroke="black" stroke-width="2.0981" stroke-miterlimit="22.9256"/>
<path fill-rule="evenodd" clip-rule="evenodd" d="M116.568 28.2789L116.589 4.13165L113.524 1.05768L101.567 1.04514L98.4977 4.11067L98.4767 28.258L101.542 31.332L113.498 31.3445L116.568 28.2789Z" fill="#4D4D4D"/>
<path d="M113.516 1.05334H101.56V31.3401H113.516V1.05334Z" fill="#666666"/>
<path d="M103.297 3.13225L103.295 4.74686L111.791 4.7579L111.793 3.14329L103.297 3.13225Z" fill="black"/>
<path d="M103.293 5.93258L103.291 7.54297L111.787 7.55401L111.789 5.94363L103.293 5.93258Z" fill="black"/>
<path d="M103.292 8.73077L103.29 10.3412L111.786 10.3522L111.788 8.74182L103.292 8.73077Z" fill="black"/>
<path d="M111.787 11.5334H103.291V13.1438H111.787V11.5334Z" fill="black"/>
<path fill-rule="evenodd" clip-rule="evenodd" d="M183.42 17.2995C176.61 10.4932 165.576 10.4932 158.77 17.2995C151.959 24.1059 151.959 35.1394 158.77 41.95C165.576 48.7605 176.61 48.7605 183.42 41.95C190.231 35.1436 190.231 24.1059 183.42 17.2995Z" stroke="black" stroke-width="2.23943" stroke-miterlimit="22.9256"/>
<path fill-rule="evenodd" clip-rule="evenodd" d="M183.42 17.2995C176.61 10.4932 165.576 10.4932 158.77 17.2995C151.959 24.1059 151.959 35.1394 158.77 41.95C165.576 48.7605 176.61 48.7605 183.42 41.95C190.231 35.1436 190.231 24.1059 183.42 17.2995Z" fill="#333333"/>
<path fill-rule="evenodd" clip-rule="evenodd" d="M181.458 19.2662C175.734 13.5419 166.457 13.5419 160.737 19.2662C155.013 24.9864 155.013 34.2671 160.737 39.9873C166.461 45.7116 175.738 45.7116 181.458 39.9873C187.178 34.2629 187.178 24.9864 181.458 19.2662Z" fill="#4D4D4D"/>
<path fill-rule="evenodd" clip-rule="evenodd" d="M183.479 28.7862H179.323C178.862 28.7862 178.484 29.1637 178.484 29.625V29.6292C178.484 30.0905 178.862 30.4679 179.323 30.4679H183.479C183.94 30.4679 184.318 30.0905 184.318 29.6292V29.625C184.318 29.1637 183.94 28.7862 183.479 28.7862Z" fill="#666666"/>
<path fill-rule="evenodd" clip-rule="evenodd" d="M183.969 28.7862H179.813C179.352 28.7862 178.974 29.1637 178.974 29.625V29.6292C178.974 30.0905 179.352 30.4678 179.813 30.4678H183.969C184.431 30.4678 184.808 30.0905 184.808 29.6292V29.625C184.808 29.1637 184.431 28.7862 183.969 28.7862Z" fill="black"/>
<path fill-rule="evenodd" clip-rule="evenodd" d="M170.256 17.2446V21.4048C170.256 21.8661 170.634 22.2435 171.095 22.2435C171.557 22.2435 171.934 21.8661 171.934 21.4048V17.2446C171.934 16.7875 171.557 16.4059 171.095 16.4059C170.634 16.4059 170.256 16.7833 170.256 17.2446Z" fill="#666666"/>
<path fill-rule="evenodd" clip-rule="evenodd" d="M170.256 16.7542V20.9143C170.256 21.3756 170.634 21.753 171.095 21.753C171.557 21.753 171.934 21.3756 171.934 20.9143V16.7542C171.934 16.2929 171.557 15.9154 171.095 15.9154C170.634 15.9154 170.256 16.2929 170.256 16.7542Z" fill="black"/>
<path fill-rule="evenodd" clip-rule="evenodd" d="M158.715 30.4678H162.875C163.336 30.4678 163.714 30.0904 163.714 29.6291C163.714 29.1678 163.336 28.7903 162.875 28.7903H158.715C158.254 28.7903 157.876 29.1678 157.876 29.6291C157.876 30.0862 158.254 30.4678 158.715 30.4678Z" fill="#666666"/>
<path fill-rule="evenodd" clip-rule="evenodd" d="M158.225 30.4677H162.38C162.842 30.4677 163.219 30.0904 163.219 29.6291C163.219 29.1678 162.842 28.7903 162.38 28.7903H158.225C157.763 28.7903 157.386 29.1678 157.386 29.6291C157.386 30.0862 157.763 30.4677 158.225 30.4677Z" fill="black"/>
<path fill-rule="evenodd" clip-rule="evenodd" d="M171.934 42.0045V37.8443C171.934 37.383 171.557 37.0056 171.099 37.0056H171.095C170.634 37.0056 170.256 37.383 170.256 37.8443V42.0045C170.256 42.4658 170.634 42.8432 171.095 42.8432H171.099C171.557 42.8432 171.934 42.4658 171.934 42.0045Z" fill="#666666"/>
<path fill-rule="evenodd" clip-rule="evenodd" d="M171.934 42.4991V38.3389C171.934 37.8776 171.557 37.5001 171.099 37.5001H171.095C170.634 37.5001 170.256 37.8776 170.256 38.3389V42.4991C170.256 42.9604 170.634 43.3336 171.095 43.3336H171.099C171.557 43.3336 171.934 42.9604 171.934 42.4991Z" fill="black"/>
<path fill-rule="evenodd" clip-rule="evenodd" d="M6.22451 17.2995C-0.581836 24.1059 -0.581836 35.1394 6.22451 41.95C13.0309 48.7563 24.0686 48.7563 30.8749 41.95C37.6813 35.1394 37.6813 24.1059 30.8749 17.2995C24.0686 10.4932 13.0351 10.4932 6.22451 17.2995Z" stroke="black" stroke-width="2.23943" stroke-miterlimit="22.9256"/>
<path fill-rule="evenodd" clip-rule="evenodd" d="M6.22451 17.2995C-0.581836 24.1059 -0.581836 35.1394 6.22451 41.95C13.0309 48.7563 24.0686 48.7563 30.8749 41.95C37.6813 35.1394 37.6813 24.1059 30.8749 17.2995C24.0686 10.4932 13.0351 10.4932 6.22451 17.2995Z" fill="#333333"/>
<path fill-rule="evenodd" clip-rule="evenodd" d="M8.19184 19.2662C2.46747 24.9864 2.46747 34.2671 8.19184 39.9873C13.9162 45.7116 23.1927 45.7116 28.9129 39.9873C34.6331 34.2629 34.6331 24.9864 28.9129 19.2662C23.1885 13.5419 13.9162 13.5419 8.19184 19.2662Z" fill="#4D4D4D"/>
<path fill-rule="evenodd" clip-rule="evenodd" d="M17.7113 17.2446V21.4048C17.7113 21.8661 18.0888 22.2435 18.5501 22.2435C19.0114 22.2435 19.3889 21.8661 19.3889 21.4048V17.2446C19.3889 16.7875 19.0114 16.4059 18.5501 16.4059C18.093 16.4059 17.7113 16.7833 17.7113 17.2446Z" fill="#666666"/>
<path fill-rule="evenodd" clip-rule="evenodd" d="M17.7113 16.7542V20.9143C17.7113 21.3756 18.0888 21.753 18.5501 21.753C19.0114 21.753 19.3889 21.3756 19.3889 20.9143V16.7542C19.3889 16.2929 19.0114 15.9154 18.5501 15.9154C18.093 15.9154 17.7113 16.2929 17.7113 16.7542Z" fill="black"/>
<path fill-rule="evenodd" clip-rule="evenodd" d="M6.1696 30.4678H10.3255C10.7868 30.4678 11.1642 30.0904 11.1642 29.6291C11.1642 29.1678 10.7868 28.7903 10.3255 28.7903H6.1696C5.70829 28.7903 5.33081 29.1678 5.33081 29.6291C5.33081 30.0862 5.70829 30.4678 6.1696 30.4678Z" fill="#666666"/>
<path fill-rule="evenodd" clip-rule="evenodd" d="M5.67924 30.4677H9.83939C10.3007 30.4677 10.6781 30.0904 10.6781 29.6291C10.6781 29.1678 10.3007 28.7903 9.83939 28.7903H5.67924C5.21794 28.7903 4.84045 29.1678 4.84045 29.6291C4.84045 30.0862 5.21794 30.4677 5.67924 30.4677Z" fill="black"/>
<path fill-rule="evenodd" clip-rule="evenodd" d="M19.3928 42.0045V37.8485C19.3928 37.3872 19.0154 37.0098 18.5541 37.0098C18.0928 37.0098 17.7153 37.3872 17.7153 37.8485V42.0045C17.7153 42.4658 18.0928 42.8433 18.5541 42.8433C19.0112 42.8474 19.3928 42.4658 19.3928 42.0045Z" fill="#666666"/>
<path fill-rule="evenodd" clip-rule="evenodd" d="M19.3927 42.4991V38.339C19.3927 37.8777 19.0153 37.5002 18.554 37.5002C18.0927 37.5002 17.7152 37.8777 17.7152 38.339V42.4991C17.7152 42.9604 18.0927 43.3378 18.554 43.3378C19.0111 43.3378 19.3927 42.9604 19.3927 42.4991Z" fill="black"/>
<path fill-rule="evenodd" clip-rule="evenodd" d="M30.9336 28.7862H26.7776C26.3163 28.7862 25.9388 29.1637 25.9388 29.625C25.9388 30.0863 26.3163 30.4638 26.7776 30.4638H30.9336C31.3949 30.4638 31.7722 30.0863 31.7722 29.625C31.7722 29.1637 31.3949 28.7862 30.9336 28.7862Z" fill="#666666"/>
<path fill-rule="evenodd" clip-rule="evenodd" d="M31.424 28.7862H27.2681C26.8068 28.7862 26.4293 29.1637 26.4293 29.625C26.4293 30.0863 26.8026 30.4638 27.2681 30.4638H31.424C31.8853 30.4638 32.2627 30.0863 32.2627 29.625C32.2627 29.1637 31.8853 28.7862 31.424 28.7862Z" fill="black"/>
<path fill-rule="evenodd" clip-rule="evenodd" d="M14.5494 4.19446H43.0959L45.2179 6.32061H144.432L146.554 4.19446H175.096L180.812 9.91048V49.6917L175.096 55.4035H14.5494L8.83765 49.6917V9.91048L14.5494 4.19446Z" stroke="black" stroke-width="2.01255" stroke-miterlimit="22.9256"/>
<path fill-rule="evenodd" clip-rule="evenodd" d="M14.5495 4.19443H43.0959L45.218 6.31635H144.428L146.55 4.19443H175.092L180.808 9.91045V49.6875L175.092 55.3993H14.5454L8.8335 49.6875V9.91045L14.5495 4.19443Z" fill="#6E6534"/>
<path d="M180.812 9.91055H8.83752V49.6876H180.812V9.91055Z" fill="#59522A"/>
<path d="M180.812 30.2206H8.83752V32.309H180.812V30.2206Z" fill="#6E6534"/>
<path d="M180.812 28.9833H8.83752V31.0676H180.812V28.9833Z" fill="#332D10"/>
<path d="M180.812 9.91055H8.83752V11.0428H180.812V9.91055Z" fill="#B0AC44"/>
<path fill-rule="evenodd" clip-rule="evenodd" d="M180.812 49.6917H8.83752L14.5493 55.4035H175.096L180.812 49.6917Z" fill="#4A4420"/>
<path fill-rule="evenodd" clip-rule="evenodd" d="M10.8583 11.9066C10.137 11.9066 9.5542 12.4979 9.5542 13.2276C9.5542 13.9573 10.137 14.5444 10.8583 14.5444C11.5796 14.5444 12.1626 13.9531 12.1626 13.2276C12.1626 12.4979 11.5796 11.9066 10.8583 11.9066Z" fill="#B0AC44"/>
<path fill-rule="evenodd" clip-rule="evenodd" d="M10.8586 11.9065C10.2044 11.9065 9.67188 12.4392 9.67188 13.0934C9.67188 13.7476 10.2002 14.2802 10.8586 14.2802C11.5129 14.2802 12.0455 13.7518 12.0455 13.0934C12.0455 12.4392 11.5129 11.9065 10.8586 11.9065Z" fill="#332D10"/>
<path fill-rule="evenodd" clip-rule="evenodd" d="M10.8583 46.5254C10.137 46.5254 9.5542 47.1167 9.5542 47.8422C9.5542 48.5719 10.137 49.1633 10.8583 49.1633C11.5796 49.1633 12.1626 48.5719 12.1626 47.8422C12.1626 47.1125 11.5796 46.5254 10.8583 46.5254Z" fill="#B0AC44"/>
<path fill-rule="evenodd" clip-rule="evenodd" d="M10.8586 46.5255C10.2044 46.5255 9.67188 47.058 9.67188 47.7123C9.67188 48.3665 10.2002 48.8991 10.8586 48.8991C11.5129 48.8991 12.0455 48.3665 12.0455 47.7123C12.0455 47.058 11.5129 46.5255 10.8586 46.5255Z" fill="#332D10"/>
<path fill-rule="evenodd" clip-rule="evenodd" d="M178.895 11.9066C178.174 11.9066 177.591 12.4979 177.591 13.2276C177.591 13.9573 178.174 14.5444 178.895 14.5444C179.617 14.5444 180.2 13.9531 180.2 13.2276C180.2 12.4979 179.617 11.9066 178.895 11.9066Z" fill="#B0AC44"/>
<path fill-rule="evenodd" clip-rule="evenodd" d="M178.896 11.9065C178.242 11.9065 177.709 12.4392 177.709 13.0934C177.709 13.7476 178.237 14.2802 178.896 14.2802C179.55 14.2802 180.083 13.7518 180.083 13.0934C180.083 12.4392 179.55 11.9065 178.896 11.9065Z" fill="#332D10"/>
<path fill-rule="evenodd" clip-rule="evenodd" d="M178.895 46.5254C178.174 46.5254 177.591 47.1167 177.591 47.8422C177.591 48.5719 178.174 49.1633 178.895 49.1633C179.617 49.1633 180.2 48.5719 180.2 47.8422C180.2 47.1125 179.617 46.5254 178.895 46.5254Z" fill="#B0AC44"/>
<path fill-rule="evenodd" clip-rule="evenodd" d="M178.896 46.5255C178.242 46.5255 177.709 47.058 177.709 47.7123C177.709 48.3665 178.237 48.8991 178.896 48.8991C179.55 48.8991 180.083 48.3665 180.083 47.7123C180.083 47.058 179.55 46.5255 178.896 46.5255Z" fill="#332D10"/>
<path fill-rule="evenodd" clip-rule="evenodd" d="M38.1174 21.1201C44.6302 21.1201 49.9101 26.4 49.9101 32.9128C49.9101 39.4256 44.6302 44.7055 38.1174 44.7055C31.6046 44.7055 26.3248 39.4256 26.3248 32.9128C26.3248 26.4 31.6046 21.1201 38.1174 21.1201Z" fill="#6E6534"/>
<path fill-rule="evenodd" clip-rule="evenodd" d="M38.1174 19.1703C44.6302 19.1703 49.9101 24.4502 49.9101 30.9629C49.9101 37.4757 44.6302 42.7556 38.1174 42.7556C31.6046 42.7556 26.3248 37.4757 26.3248 30.9629C26.3248 24.4502 31.6046 19.1703 38.1174 19.1703Z" fill="#26210C"/>
<path fill-rule="evenodd" clip-rule="evenodd" d="M38.1169 21.2C43.51 21.2 47.8798 25.5698 47.8798 30.9629C47.8798 36.356 43.51 40.7258 38.1169 40.7258C32.7238 40.7258 28.3541 36.356 28.3541 30.9629C28.3541 25.5698 32.7238 21.2 38.1169 21.2Z" fill="#332D10"/>
<path d="M90.6349 44.7055C97.1477 44.7055 102.428 39.4257 102.428 32.9128C102.428 26.3999 97.1477 21.1201 90.6349 21.1201C84.122 21.1201 78.8422 26.3999 78.8422 32.9128C78.8422 39.4257 84.122 44.7055 90.6349 44.7055Z" fill="#6E6534"/>
<path fill-rule="evenodd" clip-rule="evenodd" d="M90.6349 19.1703C97.1476 19.1703 102.428 24.4502 102.428 30.9629C102.428 37.4757 97.1476 42.7556 90.6349 42.7556C84.1221 42.7556 78.8422 37.4757 78.8422 30.9629C78.8422 24.4502 84.1221 19.1703 90.6349 19.1703Z" fill="#26210C"/>
<path fill-rule="evenodd" clip-rule="evenodd" d="M90.6344 21.2C96.0274 21.2 100.397 25.5698 100.397 30.9629C100.397 36.356 96.0274 40.7258 90.6344 40.7258C85.2413 40.7258 80.8715 36.356 80.8715 30.9629C80.8715 25.5698 85.2413 21.2 90.6344 21.2Z" fill="#332D10"/>
<path d="M143.152 44.7055C149.665 44.7055 154.945 39.4257 154.945 32.9128C154.945 26.3999 149.665 21.1201 143.152 21.1201C136.639 21.1201 131.359 26.3999 131.359 32.9128C131.359 39.4257 136.639 44.7055 143.152 44.7055Z" fill="#6E6534"/>
<path fill-rule="evenodd" clip-rule="evenodd" d="M143.152 19.1703C149.665 19.1703 154.945 24.4502 154.945 30.9629C154.945 37.4757 149.665 42.7556 143.152 42.7556C136.639 42.7556 131.359 37.4757 131.359 30.9629C131.359 24.4502 136.639 19.1703 143.152 19.1703Z" fill="#26210C"/>
<path fill-rule="evenodd" clip-rule="evenodd" d="M143.152 21.2C148.545 21.2 152.914 25.5698 152.914 30.9629C152.914 36.356 148.54 40.7258 143.152 40.7258C137.759 40.7258 133.389 36.356 133.389 30.9629C133.389 25.5698 137.759 21.2 143.152 21.2Z" fill="#332D10"/>
<path d="M58.2261 7.51578H54.9885V15.7061H58.2261V7.51578Z" fill="#B0AC44"/>
<path d="M58.2261 7.51578H54.9885V14.8673H58.2261V7.51578Z" fill="black"/>
<path d="M63.4303 7.51578H60.1927V15.7061H63.4303V7.51578Z" fill="#B0AC44"/>
<path d="M63.4303 7.51578H60.1927V14.8673H63.4303V7.51578Z" fill="black"/>
<path d="M68.6304 7.51578H65.3929V15.7061H68.6304V7.51578Z" fill="#B0AC44"/>
<path d="M68.6304 7.51578H65.3929V14.8673H68.6304V7.51578Z" fill="black"/>
<path d="M113.356 7.51578H110.119V15.7061H113.356V7.51578Z" fill="#B0AC44"/>
<path d="M113.356 7.51578H110.119V14.8673H113.356V7.51578Z" fill="black"/>
<path d="M118.56 7.51578H115.323V15.7061H118.56V7.51578Z" fill="#B0AC44"/>
<path d="M118.56 7.51578H115.323V14.8673H118.56V7.51578Z" fill="black"/>
<path d="M123.765 7.51578H120.527V15.7061H123.765V7.51578Z" fill="#B0AC44"/>
<path d="M123.765 7.51578H120.527V14.8673H123.765V7.51578Z" fill="black"/>
<path d="M63.6526 31.0674H61.2832V49.6916H63.6526V31.0674Z" fill="#332D10"/>
<path fill-rule="evenodd" clip-rule="evenodd" d="M61.2832 49.6917H63.6526L66.8021 55.4035H64.4327L61.2832 49.6917Z" fill="#332D10"/>
<path d="M119.106 31.0674H116.737V49.6916H119.106V31.0674Z" fill="#332D10"/>
<path fill-rule="evenodd" clip-rule="evenodd" d="M119.106 49.6917H116.737L113.588 55.4035H115.957L119.106 49.6917Z" fill="#332D10"/>
<path fill-rule="evenodd" clip-rule="evenodd" d="M38.1136 22.9359C38.6966 22.0846 39.3297 21.3717 40.051 20.793C41.4265 19.69 43.0369 19.1406 45.1506 19.1406C47.499 19.1406 49.6336 20.0968 51.1727 21.6359L51.1685 21.6401C52.7118 23.1876 53.6679 25.3138 53.6679 27.6622C53.6679 35.3115 46.417 42.5623 39.1662 49.8132L38.1136 50.8659L37.061 49.8132C29.8101 42.5623 22.5592 35.3157 22.5592 27.6622C22.5592 25.3138 23.5154 23.1876 25.0587 21.6401V21.6359C26.6019 20.0926 28.7323 19.1406 31.0849 19.1406C33.1943 19.1406 34.8089 19.69 36.1845 20.793C36.9058 21.3633 37.5349 22.0804 38.1136 22.9359Z" stroke="black" stroke-width="2.3753" stroke-miterlimit="22.9256"/>
<path fill-rule="evenodd" clip-rule="evenodd" d="M38.1136 22.9359C38.6966 22.0846 39.3297 21.3717 40.051 20.793C41.4265 19.69 43.0369 19.1406 45.1506 19.1406C47.499 19.1406 49.6336 20.0968 51.1727 21.6359L51.1685 21.6401C52.7118 23.1876 53.6679 25.3138 53.6679 27.6622C53.6679 35.3115 46.417 42.5623 39.1662 49.8132L38.1136 50.8659L37.061 49.8132C29.8101 42.5623 22.5592 35.3157 22.5592 27.6622C22.5592 25.3138 23.5154 23.1876 25.0587 21.6401V21.6359C26.6019 20.0926 28.7323 19.1406 31.0849 19.1406C33.1943 19.1406 34.8089 19.69 36.1845 20.793C36.9058 21.3633 37.5349 22.0804 38.1136 22.9359Z" fill="black"/>
<path fill-rule="evenodd" clip-rule="evenodd" d="M38.1136 20.5289C38.6966 19.6734 39.3297 18.9605 40.051 18.3818C41.4265 17.283 43.0369 16.7294 45.1506 16.7294C47.499 16.7294 49.6336 17.6856 51.1727 19.2289H51.1685C52.7118 20.7722 53.6679 22.9026 53.6679 25.2468C53.6679 32.8961 46.417 40.147 39.1662 47.3979L38.1136 48.4463L37.061 47.3979C29.8101 40.147 22.5592 32.8961 22.5592 25.2468C22.5592 22.9026 23.5154 20.7722 25.0587 19.2289C26.6019 17.6856 28.7323 16.7294 31.0849 16.7294C33.1943 16.7294 34.8089 17.2789 36.1845 18.3818C36.9058 18.9563 37.5349 19.6734 38.1136 20.5289Z" stroke="black" stroke-width="2.3753" stroke-miterlimit="22.9256"/>
<path fill-rule="evenodd" clip-rule="evenodd" d="M38.1136 20.5289C38.6966 19.6734 39.3297 18.9605 40.051 18.3818C41.4265 17.283 43.0369 16.7294 45.1506 16.7294C47.499 16.7294 49.6336 17.6856 51.1727 19.2289H51.1685C52.7118 20.7722 53.6679 22.9026 53.6679 25.2468C53.6679 32.8961 46.417 40.147 39.1662 47.3979L38.1136 48.4463L37.061 47.3979C29.8101 40.147 22.5592 32.8961 22.5592 25.2468C22.5592 22.9026 23.5154 20.7722 25.0587 19.2289C26.6019 17.6856 28.7323 16.7294 31.0849 16.7294C33.1943 16.7294 34.8089 17.2789 36.1845 18.3818C36.9058 18.9563 37.5349 19.6734 38.1136 20.5289Z" fill="#7E0000"/>
<path fill-rule="evenodd" clip-rule="evenodd" d="M38.1174 23.4938C39.8745 19.9753 41.6317 18.2181 45.1502 18.2181C49.0335 18.2181 52.183 21.3676 52.183 25.251C52.183 32.2838 45.1502 39.3208 38.1174 46.3494C31.0846 39.3166 24.0519 32.2838 24.0519 25.251C24.0519 21.3676 27.2012 18.2181 31.0846 18.2181C34.6031 18.2223 36.3602 19.9795 38.1174 23.4938Z" fill="#BA0000"/>
<path fill-rule="evenodd" clip-rule="evenodd" d="M38.1174 23.4938C39.8745 19.9753 41.6317 18.2181 45.1502 18.2181C49.0335 18.2181 52.183 21.3676 52.183 25.251C52.183 27.1549 51.6672 29.0588 50.7782 30.9585H25.4567C24.5677 29.0546 24.0519 27.1549 24.0519 25.251C24.0519 21.3676 27.2012 18.2181 31.0846 18.2181C34.6031 18.2223 36.3602 19.9795 38.1174 23.4938Z" fill="#FF0000"/>
<path fill-rule="evenodd" clip-rule="evenodd" d="M90.6306 22.9359C91.2135 22.0846 91.8468 21.3717 92.5681 20.793C93.9436 19.69 95.554 19.1406 97.6676 19.1406C100.02 19.1406 102.151 20.0968 103.69 21.6359L103.686 21.6401C105.229 23.1876 106.185 25.3138 106.185 27.6622C106.185 35.3115 98.9341 42.5623 91.6832 49.8132L90.6306 50.8659L89.5781 49.8132C82.3272 42.5623 75.0763 35.3157 75.0763 27.6622C75.0763 25.3138 76.0325 23.1876 77.5758 21.6401L77.5715 21.6359C79.1148 20.0926 81.2452 19.1406 83.5937 19.1406C85.7031 19.1406 87.3177 19.69 88.6932 20.793C89.4229 21.3633 90.0519 22.0804 90.6306 22.9359Z" stroke="black" stroke-width="2.3753" stroke-miterlimit="22.9256"/>
<path fill-rule="evenodd" clip-rule="evenodd" d="M90.6306 22.9359C91.2135 22.0846 91.8468 21.3717 92.5681 20.793C93.9436 19.69 95.554 19.1406 97.6676 19.1406C100.02 19.1406 102.151 20.0968 103.69 21.6359L103.686 21.6401C105.229 23.1876 106.185 25.3138 106.185 27.6622C106.185 35.3115 98.9341 42.5623 91.6832 49.8132L90.6306 50.8659L89.5781 49.8132C82.3272 42.5623 75.0763 35.3157 75.0763 27.6622C75.0763 25.3138 76.0325 23.1876 77.5758 21.6401L77.5715 21.6359C79.1148 20.0926 81.2452 19.1406 83.5937 19.1406C85.7031 19.1406 87.3177 19.69 88.6932 20.793C89.4229 21.3633 90.0519 22.0804 90.6306 22.9359Z" fill="black"/>
<path fill-rule="evenodd" clip-rule="evenodd" d="M90.6307 20.5289C91.2136 19.6734 91.8469 18.9605 92.5682 18.3818C93.9438 17.283 95.5541 16.7294 97.6678 16.7294C100.02 16.7294 102.151 17.6856 103.69 19.2289H103.686C105.229 20.7722 106.185 22.9026 106.185 25.2468C106.185 32.8961 98.9342 40.147 91.6834 47.3979L90.6307 48.4463L89.5782 47.3979C82.3273 40.147 75.0764 32.8961 75.0764 25.2468C75.0764 22.9026 76.0326 20.7722 77.5759 19.2289H77.5717C79.1149 17.6856 81.2453 16.7294 83.5938 16.7294C85.7032 16.7294 87.3178 17.2789 88.6933 18.3818C89.423 18.9563 90.052 19.6734 90.6307 20.5289Z" stroke="black" stroke-width="2.3753" stroke-miterlimit="22.9256"/>
<path fill-rule="evenodd" clip-rule="evenodd" d="M90.6307 20.5289C91.2136 19.6734 91.8469 18.9605 92.5682 18.3818C93.9438 17.283 95.5541 16.7294 97.6678 16.7294C100.02 16.7294 102.151 17.6856 103.69 19.2289H103.686C105.229 20.7722 106.185 22.9026 106.185 25.2468C106.185 32.8961 98.9342 40.147 91.6834 47.3979L90.6307 48.4463L89.5782 47.3979C82.3273 40.147 75.0764 32.8961 75.0764 25.2468C75.0764 22.9026 76.0326 20.7722 77.5759 19.2289H77.5717C79.1149 17.6856 81.2453 16.7294 83.5938 16.7294C85.7032 16.7294 87.3178 17.2789 88.6933 18.3818C89.423 18.9563 90.052 19.6734 90.6307 20.5289Z" fill="#7E0000"/>
<path fill-rule="evenodd" clip-rule="evenodd" d="M90.6347 23.4938C92.3919 19.9753 94.1532 18.2181 97.6675 18.2181C101.551 18.2181 104.7 21.3676 104.7 25.251C104.7 32.2838 97.6675 39.3208 90.6347 46.3494C83.6019 39.3166 76.5691 32.2838 76.5691 25.251C76.5691 21.3676 79.7186 18.2181 83.6019 18.2181C87.1204 18.2223 88.8776 19.9795 90.6347 23.4938Z" fill="#BA0000"/>
<path fill-rule="evenodd" clip-rule="evenodd" d="M90.6347 23.4938C92.3919 19.9753 94.149 18.2181 97.6675 18.2181C101.551 18.2181 104.7 21.3676 104.7 25.251C104.7 27.1549 104.185 29.0588 103.296 30.9585H77.9741C77.085 29.0546 76.5691 27.1549 76.5691 25.251C76.5691 21.3676 79.7186 18.2181 83.6019 18.2181C87.1204 18.2223 88.8776 19.9795 90.6347 23.4938Z" fill="#FF0000"/>
<path fill-rule="evenodd" clip-rule="evenodd" d="M143.148 22.9359C143.731 22.0846 144.36 21.3717 145.082 20.793C146.457 19.69 148.068 19.1406 150.181 19.1406C152.534 19.1406 154.664 20.0968 156.203 21.6359L156.199 21.6401C157.742 23.1876 158.699 25.3138 158.699 27.6622C158.699 35.3115 151.452 42.5623 144.197 49.8132L143.144 50.8659L142.096 49.8132C134.845 42.5623 127.594 35.3157 127.594 27.6622C127.594 25.3138 128.55 23.1876 130.093 21.6401L130.089 21.6359C131.632 20.0926 133.763 19.1406 136.115 19.1406C138.225 19.1406 139.839 19.69 141.215 20.793C141.936 21.3633 142.565 22.0804 143.148 22.9359Z" stroke="black" stroke-width="2.3753" stroke-miterlimit="22.9256"/>
<path fill-rule="evenodd" clip-rule="evenodd" d="M143.148 22.9359C143.731 22.0846 144.36 21.3717 145.082 20.793C146.457 19.69 148.068 19.1406 150.181 19.1406C152.534 19.1406 154.664 20.0968 156.203 21.6359L156.199 21.6401C157.742 23.1876 158.699 25.3138 158.699 27.6622C158.699 35.3115 151.452 42.5623 144.197 49.8132L143.144 50.8659L142.096 49.8132C134.845 42.5623 127.594 35.3157 127.594 27.6622C127.594 25.3138 128.55 23.1876 130.093 21.6401L130.089 21.6359C131.632 20.0926 133.763 19.1406 136.115 19.1406C138.225 19.1406 139.839 19.69 141.215 20.793C141.936 21.3633 142.565 22.0804 143.148 22.9359Z" fill="black"/>
<path fill-rule="evenodd" clip-rule="evenodd" d="M143.148 20.5289C143.731 19.6734 144.36 18.9605 145.081 18.3818C146.457 17.283 148.067 16.7294 150.181 16.7294C152.534 16.7294 154.664 17.6856 156.203 19.2289H156.199C157.742 20.7722 158.698 22.9026 158.698 25.2468C158.698 32.8961 151.452 40.147 144.197 47.3979L143.144 48.4463L142.096 47.3979C134.845 40.147 127.594 32.8961 127.594 25.2468C127.594 22.9026 128.55 20.7722 130.093 19.2289H130.089C131.632 17.6856 133.763 16.7294 136.115 16.7294C138.225 16.7294 139.839 17.2789 141.215 18.3818C141.936 18.9563 142.565 19.6734 143.148 20.5289Z" stroke="black" stroke-width="2.3753" stroke-miterlimit="22.9256"/>
<path fill-rule="evenodd" clip-rule="evenodd" d="M143.148 20.5289C143.731 19.6734 144.36 18.9605 145.081 18.3818C146.457 17.283 148.067 16.7294 150.181 16.7294C152.534 16.7294 154.664 17.6856 156.203 19.2289H156.199C157.742 20.7722 158.698 22.9026 158.698 25.2468C158.698 32.8961 151.452 40.147 144.197 47.3979L143.144 48.4463L142.096 47.3979C134.845 40.147 127.594 32.8961 127.594 25.2468C127.594 22.9026 128.55 20.7722 130.093 19.2289H130.089C131.632 17.6856 133.763 16.7294 136.115 16.7294C138.225 16.7294 139.839 17.2789 141.215 18.3818C141.936 18.9563 142.565 19.6734 143.148 20.5289Z" fill="#7E0000"/>
<path fill-rule="evenodd" clip-rule="evenodd" d="M143.152 23.4938C144.909 19.9753 146.667 18.2181 150.185 18.2181C154.064 18.2181 157.218 21.3676 157.218 25.251C157.218 32.2838 150.185 39.3208 143.152 46.3494C136.119 39.3166 129.087 32.2838 129.087 25.251C129.087 21.3676 132.236 18.2181 136.119 18.2181C139.634 18.2223 141.391 19.9795 143.152 23.4938Z" fill="#BA0000"/>
<path fill-rule="evenodd" clip-rule="evenodd" d="M143.152 23.4938C144.909 19.9753 146.667 18.2181 150.185 18.2181C154.068 18.2181 157.218 21.3676 157.218 25.251C157.218 27.1549 156.702 29.0588 155.813 30.9585H130.496C129.607 29.0546 129.087 27.1549 129.087 25.251C129.087 21.3676 132.236 18.2181 136.119 18.2181C139.634 18.2223 141.391 19.9795 143.152 23.4938Z" fill="#FF0000"/>
</svg>
